SplineFontDB: 3.0
FontName: Untitled1
FullName: Untitled1
FamilyName: Untitled1
Weight: Regular
Copyright: Copyright (c) 2017, Takahiro
UComments: "2017-1-15: Created with FontForge (http://fontforge.org)"
Version: 001.000
ItalicAngle: 0
UnderlinePosition: -100
UnderlineWidth: 50
Ascent: 800
Descent: 200
InvalidEm: 0
LayerCount: 2
Layer: 0 0 "Back" 1
Layer: 1 0 "Fore" 0
XUID: [1021 877 71554418 16478097]
StyleMap: 0x0000
FSType: 0
OS2Version: 0
OS2_WeightWidthSlopeOnly: 0
OS2_UseTypoMetrics: 1
CreationTime: 1484416890
ModificationTime: 1484465268
OS2TypoAscent: 0
OS2TypoAOffset: 1
OS2TypoDescent: 0
OS2TypoDOffset: 1
OS2TypoLinegap: 90
OS2WinAscent: 0
OS2WinAOffset: 1
OS2WinDescent: 0
OS2WinDOffset: 1
HheadAscent: 0
HheadAOffset: 1
HheadDescent: 0
HheadDOffset: 1
DEI: 91125
Encoding: jis208
UnicodeInterp: none
NameList: AGL For New Fonts
DisplaySize: -48
AntiAlias: 1
FitToEm: 0
WinInfo: 9215 19 10
BeginChars: 65536 175

StartChar: uni3041
Encoding: 9249 12353 0
Width: 1000
VWidth: 0
HStem: 311.073 69.9121<470.046 588.73> 323.232 58.7676<308.446 395.101> 323.232 35.4629<254.775 343.077>
VStem: 395.437 57.2471<227.484 323.119> 421.273 66.873<389.267 495.975>
LayerCount: 2
Fore
SplineSet
445.083984375 498.51953125 m 0x48
 451.669921875 506.118164062 462.30859375 511.690429688 471.427734375 512.198242188 c 0
 485.106445312 513.2109375 486.625976562 511.690429688 488.146484375 497 c 0
 489.159179688 487.880859375 484.09375 461.029296875 477.5078125 436.206054688 c 0
 469.908203125 408.849609375 466.868164062 390.104492188 469.908203125 387.572265625 c 0
 472.44140625 385.0390625 500.810546875 382 532.727539062 380.985351562 c 2
 590.987304688 379.465820312 l 1
 592.5078125 360.721679688 l 2
 594.533203125 333.87109375 581.868164062 311.073242188 564.137695312 311.073242188 c 0x88
 556.538085938 311.073242188 545.392578125 314.11328125 539.8203125 318.166992188 c 0
 534.247070312 322.219726562 515.502929688 326.778320312 499.291015625 328.298828125 c 2
 468.895507812 331.337890625 l 1
 460.282226562 311.580078125 l 2
 452.17578125 293.342773438 446.603515625 233.563476562 452.68359375 227.484375 c 0
 454.203125 225.963867188 463.322265625 227.990234375 472.44140625 232.043945312 c 0
 482.06640625 236.095703125 494.225585938 241.162109375 499.797851562 243.188476562 c 0
 512.463867188 247.748046875 564.137695312 245.721679688 584.401367188 239.642578125 c 0
 594.533203125 237.109375 606.69140625 238.123046875 621.889648438 243.188476562 c 0
 647.220703125 251.80078125 663.939453125 248.76171875 665.458984375 236.095703125 c 0
 665.458984375 231.536132812 666.471679688 224.950195312 666.471679688 221.912109375 c 0
 666.978515625 218.87109375 679.643554688 202.66015625 695.348632812 185.435546875 c 0
 734.357421875 142.374023438 738.916992188 126.162109375 727.771484375 72.4619140625 c 0
 723.212890625 49.158203125 716.119140625 26.3603515625 712.06640625 21.80078125 c 0
 708.014648438 17.748046875 704.974609375 12.17578125 704.974609375 10.1484375 c 0
 704.974609375 1.5361328125 661.405273438 -53.177734375 653.30078125 -55.203125 c 0
 648.741210938 -56.72265625 637.087890625 -56.216796875 627.969726562 -54.1904296875 c 0
 613.278320312 -51.150390625 611.250976562 -48.6181640625 609.731445312 -32.4052734375 c 0
 608.212890625 -16.701171875 610.23828125 -13.154296875 624.9296875 -4.54296875 c 0
 649.75390625 10.1484375 674.578125 59.796875 675.590820312 97.79296875 c 0
 676.09765625 125.1484375 675.083984375 129.202148438 659.379882812 145.919921875 c 0
 639.622070312 166.690429688 635.0625 168.2109375 630.502929688 155.544921875 c 0
 625.436523438 139.840820312 578.322265625 59.796875 568.697265625 49.158203125 c 0
 563.630859375 44.091796875 557.043945312 34.97265625 554.004882812 28.8935546875 c 0
 535.766601562 -4.54296875 476.493164062 -60.26953125 437.9921875 -79.5205078125 c 0
 408.102539062 -94.212890625 404.048828125 -95.2255859375 370.612304688 -91.6787109375 c 0
 346.801757812 -89.146484375 333.630859375 -85.599609375 331.603515625 -81.0400390625 c 0
 330.083984375 -76.9873046875 326.03125 -73.9482421875 321.978515625 -73.9482421875 c 0
 317.92578125 -73.9482421875 309.313476562 -64.322265625 301.713867188 -53.177734375 c 0
 290.568359375 -35.4453125 289.048828125 -27.845703125 291.075195312 -6.0625 c 0
 294.622070312 27.3740234375 306.780273438 74.9951171875 313.873046875 83.607421875 c 0
 317.418945312 87.66015625 328.05859375 103.365234375 338.190429688 118.563476562 c 0
 348.322265625 133.76171875 365.040039062 155.544921875 375.171875 166.690429688 c 2
 393.916992188 186.956054688 l 1
 395.436523438 253.321289062 l 2
 396.44921875 294.356445312 394.9296875 321.206054688 391.889648438 323.232421875 c 0x50
 388.850585938 324.751953125 369.09375 323.739257812 346.801757812 320.192382812 c 0
 279.423828125 310.060546875 254.09375 314.620117188 254.09375 336.404296875 c 0
 254.09375 350.588867188 267.771484375 358.188476562 293.608398438 358.6953125 c 0x30
 309.8203125 359.202148438 322.485351562 363.254882812 333.630859375 370.853515625 c 0
 342.2421875 376.93359375 354.908203125 382 362 382 c 0
 396.44921875 382 404.555664062 387.065429688 413.16796875 413.409179688 c 0
 417.727539062 427.594726562 421.2734375 444.311523438 421.2734375 450.897460938 c 0
 421.2734375 465.083007812 428.873046875 480.28125 445.083984375 498.51953125 c 0x48
579.3359375 186.448242188 m 0
 560.083984375 198.100585938 508.41015625 189.994140625 475.987304688 169.73046875 c 2
 456.736328125 158.079101562 l 1
 456.736328125 122.616210938 l 2
 456.736328125 92.2197265625 458.256835938 86.646484375 466.361328125 84.6201171875 c 0
 479.02734375 81.580078125 488.146484375 60.302734375 484.09375 44.091796875 c 2
 480.546875 30.919921875 l 1
 496.7578125 45.1044921875 l 2
 505.370117188 53.2109375 518.54296875 69.9287109375 526.141601562 82.5947265625 c 0
 533.234375 95.2587890625 540.833007812 106.912109375 542.352539062 108.430664062 c 0
 547.418945312 112.484375 562.618164062 140.346679688 578.829101562 175.302734375 c 0
 581.361328125 179.862304688 581.361328125 184.928710938 579.3359375 186.448242188 c 0
407.595703125 78.03515625 m 0
 406.075195312 94.751953125 403.036132812 109.950195312 400.502929688 110.963867188 c 0
 393.916992188 115.5234375 380.745117188 92.2197265625 368.586914062 52.7041015625 c 0
 350.348632812 -6.0625 357.44140625 -36.458984375 390.370117188 -41.5244140625 c 0
 405.0625 -44.05859375 456.736328125 -7.0751953125 456.736328125 5.5888671875 c 0
 456.736328125 8.62890625 450.657226562 12.17578125 443.05859375 13.1884765625 c 0
 424.313476562 15.21484375 410.634765625 40.0390625 407.595703125 78.03515625 c 0
EndSplineSet
Validated: 524321
EndChar

StartChar: uni3042
Encoding: 9250 12354 1
Width: 1000
VWidth: 0
HStem: 564.537 58.3613<486.813 670.103> 568.186 67.4795<166.854 401.006>
VStem: 405.4 71.1279<144.22 229.502> 795.083 60.793<-39.3965 55.9695>
LayerCount: 2
Fore
SplineSet
446.739257812 736.581054688 m 4x70
 460.114257812 746.30859375 488.079101562 745.701171875 496.58984375 735.366210938 c 4
 502.060546875 728.678710938 500.845703125 719.559570312 491.727539062 695.849609375 c 4
 478.3515625 660.58984375 481.391601562 638.705078125 500.237304688 635.665039062 c 4x70
 506.924804688 634.44921875 524.5546875 631.409179688 539.75390625 628.370117188 c 4
 554.951171875 625.330078125 586.563476562 622.8984375 610.272460938 622.8984375 c 4
 658.298828125 622.291015625 669.2421875 615.603515625 675.928710938 582.166992188 c 4
 679.577148438 566.361328125 677.75390625 561.498046875 664.377929688 552.986328125 c 4
 649.180664062 542.65234375 646.748046875 542.65234375 624.86328125 553.595703125 c 4
 607.233398438 561.498046875 586.563476562 564.537109375 543.400390625 564.537109375 c 4xb0
 511.788085938 564.537109375 483.823242188 562.10546875 480.784179688 559.674804688 c 4
 473.489257812 551.770507812 474.096679688 368.176757812 482 370 c 4
 522.731445312 382.766601562 607.840820312 397.356445312 640.060546875 397.356445312 c 4
 678.96875 397.356445312 716.052734375 384.58984375 716.052734375 371.823242188 c 4
 716.052734375 369.392578125 720.30859375 366.959960938 725.170898438 366.959960938 c 4
 739.76171875 366.959960938 762.255859375 352.370117188 806.026367188 315.286132812 c 4
 859.524414062 269.69140625 890.528320312 185.796875 883.840820312 105.55078125 c 4
 880.193359375 58.1318359375 871.682617188 21.65625 862.563476562 12.537109375 c 4
 858.916015625 8.890625 855.875976562 0.986328125 855.875976562 -5.0927734375 c 4
 855.875976562 -18.466796875 823.048828125 -84.7314453125 804.203125 -110.263671875 c 4
 796.298828125 -119.991210938 788.396484375 -134.581054688 786.572265625 -141.875976562 c 4
 780.493164062 -161.331054688 748.272460938 -157.682617188 732.466796875 -135.796875 c 4
 722.739257812 -123.030273438 721.524414062 -117.55859375 726.995117188 -112.087890625 c 4
 731.250976562 -107.833007812 734.290039062 -99.9287109375 734.290039062 -93.849609375 c 4
 734.290039062 -87.1630859375 738.545898438 -82.908203125 746.44921875 -82.908203125 c 4
 753.135742188 -82.908203125 758.607421875 -78.65234375 758.607421875 -73.7880859375 c 4
 758.607421875 -68.9248046875 767.118164062 -51.294921875 776.845703125 -34.2724609375 c 4
 787.180664062 -17.251953125 795.083007812 0.37890625 795.083007812 4.634765625 c 4
 795.083007812 9.498046875 799.338867188 22.8720703125 804.810546875 35.638671875 c 4
 816.361328125 62.99609375 818.184570312 170.599609375 808.45703125 206.467773438 c 4
 802.985351562 224.09765625 791.436523438 239.90234375 769.55078125 259.96484375 c 4
 737.938476562 288.537109375 737.331054688 288.537109375 731.250976562 274.5546875 c 4
 724.563476562 258.140625 595.075195312 131.69140625 558.599609375 104.943359375 c 4
 544.616210938 95.2158203125 533.673828125 84.2724609375 533.673828125 80.6259765625 c 4
 533.673828125 70.8984375 504.493164062 44.150390625 478.958984375 30.1669921875 c 4
 467.41015625 24.087890625 456.466796875 17.400390625 454.642578125 14.9697265625 c 4
 450.387695312 10.10546875 435.188476562 0.986328125 391.41796875 -22.72265625 c 4
 310.563476562 -65.8857421875 233.357421875 -78.65234375 201.744140625 -54.9423828125 c 4
 173.780273438 -34.2724609375 163.444335938 -11.171875 167.091796875 23.4794921875 c 4
 170.131835938 56.9169921875 195.6640625 116.494140625 209.0390625 121.96484375 c 4
 213.90234375 123.7890625 217.55078125 128.044921875 217.55078125 132.298828125 c 4
 217.55078125 148.713867188 337.920898438 273.947265625 383.515625 304.34375 c 6
 406.0078125 320.150390625 l 5
 406.616210938 369.392578125 l 6
 407.223632812 483.075195312 404.79296875 558.458007812 401.14453125 562.713867188 c 4
 398.712890625 565.14453125 362.845703125 567.577148438 320.8984375 568.185546875 c 4
 250.377929688 568.79296875 244.90625 568.185546875 234.572265625 556.026367188 c 4
 224.845703125 543.259765625 223.629882812 543.259765625 204.176757812 552.986328125 c 4
 179.859375 565.14453125 156.7578125 585.815429688 156.7578125 594.325195312 c 4
 156.7578125 597.973632812 161.62109375 607.091796875 167.700195312 614.99609375 c 4
 179.859375 630.80078125 216.942382812 635.665039062 331.840820312 635.665039062 c 4
 407.833007812 635.665039062 412.6953125 637.48828125 416.342773438 661.197265625 c 4
 420.599609375 687.33984375 437.62109375 729.286132812 446.739257812 736.581054688 c 4x70
660.123046875 316.501953125 m 4
 650.396484375 324.405273438 595.075195312 330.484375 591.426757812 324.405273438 c 4
 590.2109375 321.973632812 582.30859375 321.366210938 575.012695312 322.581054688 c 4
 565.893554688 323.796875 545.833007812 315.286132812 518.475585938 298.264648438 c 6
 475.920898438 271.514648438 l 5
 476.528320312 208.291015625 l 6
 477.744140625 122.573242188 482 121.96484375 565.286132812 199.780273438 c 4
 599.938476562 232 628.509765625 262.396484375 629.727539062 267.259765625 c 4
 630.942382812 272.124023438 640.060546875 280.026367188 649.788085938 284.890625 c 4
 668.633789062 294.616210938 672.282226562 306.774414062 660.123046875 316.501953125 c 4
405.400390625 196.131835938 m 4
 404.184570312 213.762695312 402.361328125 228.3515625 400.536132812 229.569335938 c 4
 392.026367188 234.431640625 375.611328125 222.272460938 333.056640625 179.110351562 c 4
 277.735351562 123.7890625 252.810546875 78.80078125 251.594726562 35.638671875 c 4
 250.985351562 5.2421875 250.985351562 5.2421875 269.223632812 5.849609375 c 4
 280.166992188 6.4580078125 306.30859375 18.6162109375 333.056640625 36.24609375 c 4
 357.981445312 52.6611328125 381.69140625 67.25 384.731445312 69.0751953125 c 4
 388.377929688 70.8984375 398.10546875 76.9775390625 407.223632812 83.6650390625 c 4
 422.422851562 93.392578125 423.637695312 97.0390625 420.599609375 120.140625 c 4
 418.166992188 133.514648438 414.51953125 149.321289062 411.479492188 154.79296875 c 4
 409.048828125 159.65625 406.0078125 178.501953125 405.400390625 196.131835938 c 4
EndSplineSet
Validated: 524321
EndChar

StartChar: uni3043
Encoding: 9251 12355 2
Width: 1000
VWidth: 0
VStem: 670.185 77.7969<-42.1109 145.285>
LayerCount: 2
Fore
SplineSet
601.388671875 362.974609375 m 4
 615.534179688 372.619140625 615.534179688 372.619140625 642.537109375 367.474609375 c 4
 657.96875 364.258789062 662.469726562 359.759765625 662.469726562 348.185546875 c 4
 662.469726562 339.828125 666.326171875 330.826171875 670.828125 328.255859375 c 4
 679.185546875 323.111328125 693.973632812 292.891601562 706.833984375 255.600585938 c 4
 718.405273438 222.810546875 720.334960938 211.879882812 726.764648438 165.587890625 c 4
 729.3359375 142.44140625 735.123046875 116.081054688 738.338867188 106.436523438 c 4
 742.1953125 97.4345703125 745.411132812 68.5029296875 746.053710938 42.1416015625 c 4
 746.696289062 16.423828125 747.338867188 -13.15234375 747.981445312 -24.0830078125 c 4
 748.624023438 -36.2998046875 746.696289062 -42.728515625 741.551757812 -42.0859375 c 4
 737.05078125 -40.798828125 730.62109375 -45.9423828125 726.764648438 -53.015625 c 4
 722.90625 -60.7314453125 713.262695312 -65.8740234375 704.260742188 -65.8740234375 c 4
 681.758789062 -65.8740234375 666.969726562 -34.3701171875 670.184570312 4.20703125 c 4
 673.3984375 38.92578125 665.041015625 113.508789062 656.041015625 123.796875 c 4
 652.825195312 127.653320312 648.323242188 141.155273438 647.038085938 153.372070312 c 4
 643.181640625 179.732421875 629.677734375 228.596679688 614.890625 268.459960938 c 4
 590.458007812 334.041992188 587.88671875 352.6875 601.388671875 362.974609375 c 4
276.055664062 335.970703125 m 4
 295.34375 346.2578125 302.416015625 347.54296875 313.990234375 340.470703125 c 4
 322.991210938 334.041992188 323.633789062 331.46875 333.921875 252.38671875 c 4
 350.637695312 123.15234375 382.141601562 27.3525390625 413.00390625 13.2080078125 c 4
 421.362304688 9.3515625 435.5078125 2.921875 445.150390625 -1.5791015625 c 4
 472.799804688 -15.0810546875 477.298828125 -54.9453125 451.581054688 -58.8017578125 c 4
 400.787109375 -67.1611328125 347.422851562 -52.373046875 347.422851562 -30.5126953125 c 4
 347.422851562 -26.6552734375 341.63671875 -17.654296875 334.564453125 -11.2236328125 c 4
 313.990234375 7.421875 296.629882812 39.5693359375 289.557617188 69.7880859375 c 4
 286.342773438 85.21875 279.270507812 117.3671875 274.125976562 141.798828125 c 4
 268.33984375 165.587890625 264.482421875 191.305664062 264.482421875 199.665039062 c 4
 265.125 207.380859375 263.197265625 220.881835938 260.624023438 229.8828125 c 4
 254.836914062 250.458007812 251.624023438 307.680664062 256.124023438 318.609375 c 4
 257.41015625 323.111328125 266.411132812 330.826171875 276.055664062 335.970703125 c 4
EndSplineSet
Validated: 524321
EndChar

StartChar: uni3044
Encoding: 9252 12356 3
Width: 1000
VWidth: 0
VStem: 97.792 76.6221<290.255 550.35>
LayerCount: 2
Fore
SplineSet
114.733398438 551.094726562 m 4
 123.515625 564.620117188 129.833007812 567.612304688 146.885742188 566.81640625 c 4
 185.827148438 564.609375 196.689453125 546.618164062 184.694335938 500.771484375 c 4
 181.2109375 488.05078125 177.953125 460.463867188 177 440 c 4
 176.045898438 419.53515625 174.734375 396.984375 174.4140625 390.1640625 c 4
 172.916015625 377.74609375 201.604492188 251.387695312 211.6875 225.151367188 c 4
 250.094726562 123.9765625 278.693359375 60.5947265625 295.815429688 41.5224609375 c 4
 301.555664062 34.9453125 307.137695312 24.9580078125 308.04296875 19 c 4
 308.94921875 13.0419921875 316.416992188 4.0166015625 325.466796875 -2.0576171875 c 4
 339.755859375 -11.3994140625 341.741210938 -11.09765625 346.953125 -0.8232421875 c 4
 355.432617188 14.6884765625 387.885742188 28.42578125 390.258789062 17.2734375 c 4
 390.962890625 12.6396484375 394.09765625 0.923828125 396.270507812 -8.904296875 c 4
 398.541992188 -19.396484375 397.762695312 -27.642578125 395.115234375 -28.044921875 c 4
 391.8046875 -28.5478515625 385.26953125 -39.0234375 380.359375 -51.283203125 c 4
 368.397460938 -79.515625 341.58203125 -99.1708984375 317.046875 -98.1591796875 c 4
 287.013671875 -96.6279296875 258.3515625 -68.474609375 227.708984375 -9.466796875 c 4
 213.150390625 19.4755859375 206.86328125 34.09765625 179.806640625 105.166015625 c 4
 174.944335938 119.327148438 162.271484375 149.234375 152.69140625 172.159179688 c 4
 128.107421875 231.412109375 95.7119140625 391.069335938 97.7919921875 444.21484375 c 4
 100.25 508.254882812 104.930664062 535.380859375 114.733398438 551.094726562 c 4
718.75390625 569.756835938 m 4
 717.546875 577.700195312 743.924804688 582.387695312 756.286132812 576.81640625 c 4
 761.322265625 574.873046875 778.026367188 549.641601562 793.909179688 520.901367188 c 4
 809.129882812 492.05859375 828.264648438 459.749023438 835.271484375 449.299804688 c 4
 842.940429688 438.950195312 853.022460938 412.713867188 858.330078125 391.170898438 c 4
 863.635742188 369.626953125 870.368164062 347.62109375 873.159179688 342.626953125 c 4
 889.544921875 310.575195312 917.708007812 147.564453125 908.524414062 136.6875 c 4
 905.056640625 132.772460938 892.119140625 128.774414062 880.000976562 128.288085938 c 4
 860.500976562 127.354492188 856.7890625 129.500976562 848.934570312 149.98046875 c 4
 844.374023438 162.155273438 835.329101562 199.38671875 828.413085938 231.5234375 c 4
 821.495117188 263.659179688 806.56640625 312.86328125 794.1953125 340.784179688 c 4
 781.82421875 368.704101562 770.014648438 397.387695312 768.907226562 404.669921875 c 4
 765.46875 418.37109375 729.112304688 470.4140625 719.600585938 475.065429688 c 4
 716.651367188 476.647460938 708.940429688 491.73046875 702.150390625 509.663085938 c 4
 689.635742188 542.978515625 691.95703125 558.911132812 710.493164062 561.728515625 c 4
 715.787109375 562.533203125 719.256835938 566.446289062 718.75390625 569.756835938 c 4
EndSplineSet
Validated: 524321
EndChar

StartChar: uni3045
Encoding: 9253 12357 4
Width: 1000
VWidth: 0
HStem: 224.949 64.5068<383.482 529.213>
VStem: 570.36 55.6523<20.6038 183.844>
LayerCount: 2
Fore
SplineSet
368.728515625 493.512695312 m 4
 376.422851562 499.099609375 433.33984375 479.495117188 456 464 c 4
 494.049804688 437.754882812 517.028320312 418.362304688 520.190429688 409.5078125 c 4
 521.455078125 404.870117188 525.565429688 400.759765625 529.254882812 400.021484375 c 4
 532.838867188 398.7578125 540.322265625 392.328125 546.013671875 385.159179688 c 4
 558.345703125 370.087890625 557.186523438 336.885742188 544.116210938 334.567382812 c 4
 533.891601562 332.775390625 515.341796875 344.159179688 508.595703125 357.018554688 c 4
 505.85546875 362.499023438 499.21484375 367.6640625 494.47265625 368.61328125 c 4
 489.73046875 369.561523438 482.03515625 374.935546875 477.607421875 380.206054688 c 4
 472.653320312 385.58203125 462.325195312 391.484375 454.418945312 393.065429688 c 4
 447.041992188 394.541015625 432.49609375 401.286132812 422.798828125 407.610351562 c 4
 413.20703125 414.461914062 402.561523438 418.783203125 399.611328125 417.728515625 c 4
 396.66015625 416.67578125 386.540039062 426.372070312 376.52734375 439.3359375 c 4
 364.40625 455.462890625 360.084960938 466.740234375 362.087890625 476.754882812 c 4
 363.668945312 484.659179688 366.830078125 492.249023438 368.728515625 493.512695312 c 4
465.486328125 289.456054688 m 4
 479.926757812 290.404296875 498.58203125 290.508789062 505.961914062 289.033203125 c 4
 525.038085938 285.765625 566.145507812 261.1015625 567.620117188 252.0390625 c 4
 568.359375 247.504882812 572.99609375 243.2890625 578.266601562 242.234375 c 4
 589.333984375 240.022460938 612.416992188 199.231445312 622.008789062 164.9765625 c 4
 625.380859375 151.694335938 627.594726562 129.876953125 626.012695312 116.491210938 c 4
 624.958984375 103 625.486328125 86.4521484375 627.068359375 80.654296875 c 4
 630.545898438 67.900390625 614.5234375 4.2392578125 606.302734375 -1.2421875 c 4
 602.508789062 -3.771484375 599.2421875 -9.1474609375 598.29296875 -13.890625 c 4
 597.34375 -18.6337890625 587.857421875 -30.439453125 576.580078125 -40.2412109375 c 4
 565.934570312 -49.6220703125 556.02734375 -60.794921875 555.39453125 -63.9560546875 c 4
 554.657226562 -67.6455078125 550.862304688 -70.1748046875 547.173828125 -69.4365234375 c 4
 542.95703125 -68.59375 534.62890625 -71.8603515625 528.200195312 -76.6044921875 c 4
 514.076171875 -86.9345703125 494.893554688 -84.193359375 487.727539062 -70.703125 c 4
 484.986328125 -65.220703125 477.185546875 -57.6318359375 470.86328125 -53.6259765625 c 4
 462.11328125 -48.041015625 460.849609375 -43.40234375 464.1171875 -32.546875 c 4
 473.286132812 -5.8798828125 482.772460938 0.4443359375 503.115234375 -7.4619140625 c 4
 525.56640625 -15.787109375 536.000976562 -7.4599609375 556.658203125 35.5419921875 c 4
 570.362304688 62.947265625 571.415039062 70.9580078125 570.360351562 134.19921875 c 4
 570.151367188 171.51171875 527.146484375 216.833984375 486.77734375 223.262695312 c 4
 472.444335938 225.581054688 453.892578125 226.00390625 445.4609375 224.94921875 c 4
 424.485351562 221.471679688 379.267578125 203.659179688 377.686523438 198.494140625 c 4
 377.264648438 196.385742188 366.092773438 184.370117188 353.12890625 171.616210938 c 4
 340.1640625 158.862304688 328.147460938 142.631835938 326.8828125 136.306640625 c 4
 323.510742188 119.442382812 307.385742188 110.0625 288.938476562 113.750976562 c 4
 268.385742188 117.861328125 266.3828125 132.51171875 279.875 169.82421875 c 4
 291.78515625 201.971679688 308.016601562 220.100585938 353.971679688 252.565429688 c 4
 386.435546875 275.12109375 419.84765625 285.9765625 465.486328125 289.456054688 c 4
EndSplineSet
Validated: 524321
EndChar

StartChar: uni3046
Encoding: 9254 12358 5
Width: 1000
VWidth: 0
HStem: 365.7 70.9424<460.806 596.388>
VStem: 467.374 37.7979<-44.7018 18.7508> 666.247 64.5459<97.8018 299.213>
LayerCount: 2
Fore
SplineSet
406.317382812 688.431640625 m 4
 416.203125 691.920898438 443.533203125 692.501953125 467.374023438 690.7578125 c 4
 491.216796875 688.431640625 516.220703125 686.6875 522.6171875 686.106445312 c 4
 533.083984375 685.524414062 544.1328125 681.454101562 597.048828125 657.03125 c 4
 654.03515625 630.86328125 674.388671875 611.092773438 668.573242188 586.669921875 c 4
 663.920898438 569.224609375 653.454101562 569.224609375 619.145507812 586.087890625 c 4
 559.833007812 616.326171875 495.8671875 623.885742188 417.947265625 609.9296875 c 4
 408.643554688 608.184570312 388.291015625 605.859375 373.171875 604.696289062 c 4
 348.16796875 602.951171875 344.678710938 604.115234375 330.72265625 622.72265625 c 4
 316.766601562 640.749023438 316.185546875 644.23828125 323.163085938 658.194335938 c 4
 329.559570312 671.568359375 335.95703125 675.057617188 359.797851562 678.546875 c 4
 376.080078125 680.872070312 397.012695312 685.524414062 406.317382812 688.431640625 c 4
480.749023438 433.154296875 m 4
 483.075195312 435.48046875 504.590820312 436.642578125 528.431640625 436.642578125 c 4
 563.321289062 436.061523438 574.951171875 433.154296875 588.908203125 422.6875 c 4
 598.79296875 415.709960938 609.259765625 409.89453125 612.16796875 409.89453125 c 4
 623.797851562 409.89453125 697.6484375 331.392578125 705.20703125 311.040039062 c 4
 709.278320312 299.9921875 716.836914062 283.127929688 722.071289062 273.2421875 c 4
 729.629882812 259.286132812 731.95703125 242.423828125 730.79296875 192.99609375 c 4
 729.629882812 138.333984375 726.72265625 124.37890625 711.603515625 86 c 4
 701.717773438 62.158203125 682.529296875 26.6875 667.991210938 8.080078125 c 4
 653.454101562 -11.1103515625 641.82421875 -29.13671875 641.82421875 -32.0439453125 c 4
 641.82421875 -35.533203125 639.497070312 -37.8583984375 637.171875 -37.8583984375 c 4
 634.264648438 -37.8583984375 629.03125 -44.2548828125 625.541992188 -51.8154296875 c 4
 618.564453125 -67.5146484375 552.2734375 -115.780273438 529.594726562 -121.594726562 c 4
 514.4765625 -125.083007812 512.731445312 -124.501953125 474.934570312 -93.1015625 c 4
 458.65234375 -79.14453125 456.327148438 -54.7216796875 467.374023438 -9.9462890625 c 4
 475.515625 22.03515625 478.422851562 24.3623046875 497.03125 13.89453125 c 4
 504.590820312 9.82421875 507.497070312 4.58984375 505.171875 -2.96875 c 4
 503.427734375 -8.7841796875 504.590820312 -15.1796875 508.080078125 -17.5068359375 c 4
 511.568359375 -19.83203125 517.3828125 -28.5556640625 520.873046875 -36.6962890625 c 6
 526.6875 -52.396484375 l 5
 574.951171875 -1.224609375 l 6
 619.145507812 46.4580078125 630.775390625 62.740234375 646.4765625 101.700195312 c 4
 663.920898438 144.732421875 666.247070312 158.106445312 666.247070312 201.717773438 c 4
 666.247070312 280.219726562 643.568359375 322.087890625 586 350 c 4
 569.717773438 357.560546875 554.018554688 363.375 551.110351562 362.793945312 c 4
 548.203125 362.2109375 541.224609375 363.375 535.991210938 365.700195312 c 4
 524.361328125 370.934570312 484.8203125 359.303710938 484.8203125 350.581054688 c 4
 484.8203125 347.092773438 481.331054688 345.9296875 477.259765625 347.673828125 c 4
 473.190429688 349.41796875 465.048828125 347.092773438 458.65234375 342.440429688 c 4
 452.836914062 337.788085938 443.533203125 334.299804688 437.717773438 334.299804688 c 4
 406.317382812 334.299804688 334.79296875 229.629882812 341.771484375 193.577148438 c 4
 344.096679688 180.784179688 341.190429688 174.969726562 321.418945312 159.850585938 c 4
 296.99609375 140.080078125 281.294921875 140.080078125 281.294921875 159.268554688 c 4
 281.294921875 165.665039062 278.969726562 172.061523438 276.061523438 173.806640625 c 4
 273.155273438 176.131835938 270.828125 189.505859375 270.828125 205.20703125 c 4
 270.247070312 227.303710938 275.48046875 241.259765625 296.415039062 277.313476562 c 4
 310.951171875 302.317382812 321.418945312 324.99609375 319.674804688 327.90234375 c 4
 317.34765625 330.810546875 321.418945312 334.881835938 327.815429688 337.20703125 c 4
 334.2109375 338.951171875 342.934570312 344.184570312 346.422851562 348.255859375 c 4
 369.1015625 370.352539062 436.5546875 416.291015625 454.581054688 422.106445312 c 4
 466.2109375 425.59375 478.422851562 430.828125 480.749023438 433.154296875 c 4
EndSplineSet
Validated: 524321
EndChar

StartChar: uni3047
Encoding: 9255 12359 6
Width: 1000
VWidth: 0
HStem: -41.1943 75.9902<514.892 651.076> 382.531 79.0303<363.294 555.938>
LayerCount: 2
Fore
SplineSet
425.984375 463.38671875 m 4
 468.5390625 470.681640625 512.309570312 464.602539062 544.53125 446.971679688 c 4
 595.596679688 419.006835938 616.266601562 380.099609375 594.98828125 351.52734375 c 4
 586.477539062 340.583984375 585.262695312 341.19140625 555.473632812 363.685546875 c 4
 522.037109375 389.21875 498.935546875 394.08203125 464.283203125 383.747070312 c 4
 450.909179688 379.4921875 430.240234375 378.884765625 407.74609375 382.53125 c 4
 375.526367188 386.787109375 371.270507812 389.21875 359.719726562 409.888671875 c 6
 346.345703125 432.990234375 l 5
 361.54296875 448.795898438 l 6
 371.270507812 459.130859375 380.388671875 463.38671875 389.508789062 461.561523438 c 4
 396.803710938 460.346679688 413.217773438 460.954101562 425.984375 463.38671875 c 4
452.125 240.276367188 m 4
 474.618164062 251.826171875 483.129882812 253.04296875 501.368164062 248.1796875 c 4
 526.900390625 241.4921875 546.354492188 215.959960938 537.236328125 201.9765625 c 4
 533.587890625 197.112304688 531.15625 184.346679688 531.15625 174.012695312 c 4
 531.15625 163.677734375 523.252929688 140.576171875 514.134765625 122.337890625 c 4
 492.856445312 80.9990234375 492.856445312 68.232421875 515.958007812 56.0732421875 c 4
 526.29296875 51.2099609375 535.411132812 45.130859375 536.01953125 42.091796875 c 4
 537.236328125 39.6591796875 546.354492188 33.580078125 556.689453125 28.1083984375 c 4
 573.103515625 19.59765625 575.53515625 19.59765625 585.262695312 28.7158203125 c 4
 591.341796875 33.580078125 600.459960938 36.6201171875 605.931640625 34.7958984375 c 4
 615.05078125 31.1484375 664.900390625 62.1533203125 695.905273438 90.7255859375 c 4
 724.477539062 116.866210938 782.83984375 115.04296875 771.2890625 88.9013671875 c 4
 766.424804688 77.3505859375 764.600585938 71.271484375 763.384765625 57.8974609375 c 4
 762.77734375 53.6416015625 759.129882812 49.994140625 756.08984375 49.994140625 c 4
 752.44140625 49.994140625 742.108398438 43.3076171875 732.98828125 35.4033203125 c 4
 723.870117188 26.892578125 702.591796875 11.0859375 685.569335938 -0.46484375 c 4
 668.547851562 -12.623046875 646.663085938 -29.0361328125 637.54296875 -37.5478515625 c 4
 615.05078125 -58.216796875 582.221679688 -64.2958984375 559.728515625 -50.921875 c 4
 550.001953125 -45.4501953125 537.84375 -41.1943359375 531.764648438 -41.1943359375 c 4
 526.29296875 -41.1943359375 516.565429688 -37.5478515625 509.87890625 -32.6845703125 c 4
 503.19140625 -28.4287109375 489.209960938 -22.349609375 478.266601562 -20.525390625 c 4
 460.63671875 -16.26953125 455.772460938 -18.7021484375 424.161132812 -49.70703125 c 4
 385.860351562 -88.005859375 368.23046875 -92.26171875 351.817382812 -67.9443359375 c 4
 340.874023438 -50.921875 343.913085938 -20.525390625 358.504882812 -5.9345703125 c 4
 363.368164062 -1.6796875 367.014648438 5.6142578125 367.014648438 9.87109375 c 4
 367.014648438 14.126953125 374.309570312 23.853515625 382.821289062 32.3642578125 c 4
 391.33203125 40.2666015625 405.315429688 60.9375 413.826171875 77.3505859375 c 4
 422.3359375 94.373046875 435.711914062 116.258789062 443.614257812 127.201171875 c 4
 463.067382812 153.341796875 462.459960938 161.853515625 441.791015625 156.3828125 c 4
 412.001953125 149.0859375 388.900390625 135.104492188 355.463867188 104.708007812 c 4
 326.892578125 77.9599609375 321.420898438 75.52734375 309.870117188 81.6064453125 c 4
 274.001953125 100.452148438 280.08203125 127.809570312 332.971679688 179.482421875 c 4
 351.209960938 197.112304688 402.8828125 226.29296875 416.866210938 226.901367188 c 4
 421.120117188 226.901367188 436.926757812 232.98046875 452.125 240.276367188 c 4
EndSplineSet
Validated: 524321
EndChar

StartChar: uni3048
Encoding: 9256 12360 7
Width: 1000
VWidth: 0
HStem: 573.375 52.4395<573.099 654.743>
LayerCount: 2
Fore
SplineSet
342.598632812 694.608398438 m 0
 356.131835938 704.758789062 406.317382812 703.06640625 440.712890625 692.352539062 c 0
 450.299804688 688.969726562 462.140625 687.27734375 466.087890625 687.841796875 c 0
 475.109375 689.533203125 486.951171875 685.022460938 531.497070312 664.158203125 c 0
 550.669921875 655.137695312 569.840820312 647.805664062 573.224609375 647.805664062 c 0
 576.608398438 647.805664062 583.938476562 643.859375 589.577148438 638.78515625 c 0
 599.727539062 629.762695312 610.440429688 626.379882812 632.431640625 625.814453125 c 0
 645.400390625 625.250976562 666.264648438 591.418945312 660.0625 580.705078125 c 0
 654.987304688 572.247070312 623.409179688 567.171875 615.515625 573.375 c 0
 611.568359375 576.758789062 599.163085938 580.705078125 587.885742188 582.9609375 c 0
 576.04296875 585.215820312 566.458007812 589.163085938 566.458007812 591.418945312 c 0
 566.458007812 594.23828125 554.051757812 597.62109375 538.828125 599.876953125 c 0
 523.040039062 602.131835938 507.814453125 607.20703125 503.8671875 611.71875 c 0
 499.357421875 616.793945312 494.845703125 617.920898438 487.515625 613.973632812 c 0
 481.3125 610.590820312 470.598632812 610.590820312 458.756835938 613.973632812 c 0
 448.04296875 617.357421875 422.10546875 619.612304688 400.114257812 619.612304688 c 0
 359.515625 620.17578125 347.673828125 624.6875 336.395507812 646.115234375 c 0
 325.681640625 665.287109375 328.501953125 685.022460938 342.598632812 694.608398438 c 0
627.920898438 431.27734375 m 0
 635.250976562 438.044921875 658.93359375 427.89453125 666.828125 414.92578125 c 0
 674.721679688 402.51953125 674.721679688 397.444335938 669.083007812 389.55078125 c 0
 665.701171875 384.475585938 654.423828125 363.612304688 645.400390625 343.313476562 c 0
 635.814453125 323.013671875 615.515625 294.255859375 600.854492188 278.466796875 c 0
 585.629882812 263.2421875 570.404296875 244.634765625 566.458007812 237.3046875 c 0
 563.07421875 229.973632812 542.2109375 198.9609375 520.784179688 168.510742188 c 0
 495.973632812 132.987304688 483.004882812 109.868164062 485.259765625 104.229492188 c 0
 486.951171875 99.154296875 490.334960938 95.20703125 492.58984375 94.6435546875 c 0
 529.805664062 90.1318359375 569.27734375 72.0888671875 622.282226562 36.564453125 c 0
 638.634765625 25.287109375 658.93359375 16.2646484375 667.392578125 16.2646484375 c 0
 687.126953125 16.2646484375 734.493164062 50.09765625 792.008789062 105.920898438 c 0
 816.255859375 129.603515625 841.629882812 139.75390625 848.959960938 128.475585938 c 0
 855.163085938 117.762695312 849.524414062 95.20703125 836.5546875 80.5458984375 c 0
 830.352539062 74.34375 825.840820312 65.8857421875 825.840820312 62.501953125 c 0
 825.840820312 58.5546875 823.5859375 55.736328125 821.331054688 55.736328125 c 0
 816.819335938 55.736328125 787.497070312 29.2333984375 765.505859375 4.423828125 c 0
 748.025390625 -15.3125 740.131835938 -20.3876953125 709.681640625 -36.1767578125 c 0
 665.135742188 -58.7314453125 650.475585938 -59.859375 618.8984375 -43.5068359375 c 0
 604.23828125 -36.1767578125 585.629882812 -22.0791015625 577.736328125 -12.4931640625 c 0
 569.840820312 -2.908203125 559.126953125 4.9873046875 552.924804688 4.9873046875 c 0
 546.721679688 4.9873046875 537.135742188 9.498046875 531.497070312 14.5732421875 c 0
 519.65625 25.287109375 472.854492188 29.2333984375 463.268554688 19.6474609375 c 0
 459.321289062 16.2646484375 446.916015625 8.9345703125 435.638671875 2.7314453125 c 0
 424.361328125 -2.908203125 403.497070312 -19.2587890625 389.96484375 -33.919921875 c 0
 330.193359375 -96.509765625 320.608398438 -105.533203125 305.947265625 -112.862304688 c 0
 288.466796875 -121.884765625 280.572265625 -117.9375 272.114257812 -97.638671875 c 0
 265.912109375 -81.8505859375 265.912109375 -67.7529296875 272.678710938 -62.677734375 c 0
 274.369140625 -60.986328125 282.828125 -49.708984375 291.286132812 -36.740234375 c 0
 299.180664062 -24.333984375 313.840820312 -5.7265625 323.991210938 3.859375 c 0
 333.577148438 14.0087890625 353.3125 37.6923828125 367.409179688 57.427734375 c 0
 382.071289062 76.599609375 395.603515625 92.9521484375 397.858398438 94.080078125 c 0
 400.678710938 95.20703125 408.008789062 105.357421875 414.774414062 116.634765625 c 0
 422.10546875 127.912109375 437.331054688 149.33984375 449.171875 163.435546875 c 0
 461.013671875 178.09765625 470.598632812 191.629882812 470.598632812 193.322265625 c 0
 470.598632812 195.013671875 484.696289062 218.696289062 501.612304688 244.634765625 c 0
 518.528320312 271.137695312 532.625976562 294.255859375 532.625976562 295.947265625 c 0
 532.625976562 298.203125 538.828125 306.661132812 546.721679688 316.247070312 c 0
 554.6171875 325.268554688 560.819335938 337.674804688 560.819335938 343.876953125 c 0
 560.819335938 352.8984375 556.872070312 354.590820312 536.008789062 354.590820312 c 0
 521.912109375 354.590820312 509.505859375 352.334960938 507.814453125 349.515625 c 0
 505.559570312 346.696289062 493.71875 342.75 480.184570312 340.493164062 c 0
 453.681640625 335.982421875 389.96484375 311.736328125 353.3125 292 c 2
 328.501953125 278.466796875 l 1
 317.224609375 292 l 2
 291.286132812 324.140625 339.215820312 376.58203125 403.497070312 386.166992188 c 0
 417.03125 388.423828125 431.126953125 391.805664062 433.947265625 394.0625 c 0
 439.022460938 397.444335938 459.321289062 401.956054688 558 420 c 0
 567.5859375 421.692382812 586.193359375 424.510742188 600.291015625 426.203125 c 0
 614.38671875 427.331054688 626.79296875 430.149414062 627.920898438 431.27734375 c 0
EndSplineSet
Validated: 524321
EndChar

StartChar: uni3049
Encoding: 9257 12361 8
Width: 1000
VWidth: 0
HStem: 337.074 58.7451<305.281 385.669>
VStem: 358.157 95.1104<-72.6559 111.828> 392.285 68.2559<411.564 476.138> 399 78.3252<185.844 336.315>
LayerCount: 2
Fore
SplineSet
401.795898438 487.012695312 m 4xa0
 415.22265625 490.9296875 437.603515625 485.893554688 448.231445312 476.3828125 c 4
 453.826171875 471.34765625 458.302734375 454.563476562 460.541015625 431.625 c 4xa0
 462.778320312 410.923828125 466.135742188 391.90234375 468.932617188 387.986328125 c 4
 475.086914062 380.713867188 475.646484375 374.559570312 477.325195312 306.302734375 c 4x90
 477.884765625 277.2109375 476.20703125 242.524414062 473.967773438 229.095703125 c 4
 467.814453125 200.00390625 473.967773438 191.051757812 504.739257812 183.219726562 c 4
 517.047851562 179.862304688 534.950195312 172.030273438 544.461914062 165.875976562 c 4
 554.532226562 160.28125 566.840820312 153.568359375 572.435546875 151.888671875 c 4
 577.470703125 149.651367188 581.946289062 145.734375 581.946289062 142.938476562 c 4
 581.946289062 140.140625 591.45703125 128.391601562 603.20703125 116.642578125 c 4
 640.690429688 78.5986328125 645.166015625 71.884765625 649.642578125 42.232421875 c 4
 656.35546875 0.2724609375 647.405273438 -33.2958984375 622.228515625 -58.47265625 c 4
 600.408203125 -81.41015625 585.862304688 -84.767578125 566.28125 -70.7802734375 c 4
 549.497070312 -59.5908203125 550.616210938 -48.4013671875 570.756835938 -25.462890625 c 4
 580.267578125 -15.392578125 588.100585938 -2.525390625 588.100585938 3.0693359375 c 4
 588.66015625 8.1044921875 589.778320312 19.2939453125 590.337890625 27.6865234375 c 4
 591.45703125 36.6376953125 589.219726562 43.9111328125 584.18359375 45.58984375 c 4
 579.708007812 47.267578125 576.3515625 53.4228515625 576.3515625 59.5771484375 c 4
 576.3515625 75.2412109375 524.3203125 111.047851562 497.465820312 113.28515625 c 4
 462.778320312 116.642578125 453.267578125 102.655273438 453.267578125 46.7080078125 c 4
 452.708007812 -25.462890625 442.637695312 -74.1376953125 428.091796875 -74.1376953125 c 4
 425.293945312 -74.1376953125 418.021484375 -81.41015625 412.985351562 -90.921875 c 4
 404.033203125 -107.146484375 403.474609375 -107.146484375 386.130859375 -98.75390625 c 4
 374.94140625 -93.1591796875 364.311523438 -80.2919921875 355.360351562 -62.3876953125 c 4
 344.170898438 -38.3310546875 342.4921875 -29.37890625 345.290039062 5.8671875 c 4
 346.967773438 27.6865234375 350.325195312 48.3876953125 353.122070312 51.1845703125 c 4
 355.919921875 54.5419921875 358.157226562 63.4921875 358.157226562 71.884765625 c 4xc0
 358.157226562 79.716796875 363.192382812 93.1455078125 369.346679688 100.977539062 c 4
 375.500976562 108.810546875 380.536132812 118.879882812 380.536132812 123.915039062 c 4
 380.536132812 128.951171875 382.774414062 132.8671875 385.01171875 132.8671875 c 4
 398.439453125 132.8671875 401.795898438 163.078125 399 247 c 4x90
 397.3203125 295.11328125 393.963867188 335.396484375 392.28515625 337.07421875 c 4
 390.047851562 338.193359375 371.024414062 335.956054688 349.765625 331.479492188 c 4
 316.198242188 325.326171875 308.923828125 321.96875 294.9375 304.065429688 c 4
 273.677734375 277.2109375 261.928710938 271.616210938 244.024414062 278.329101562 c 4
 234.514648438 281.686523438 227.801757812 290.637695312 223.325195312 306.302734375 c 4
 217.170898438 325.884765625 217.73046875 329.801757812 226.681640625 339.87109375 c 4
 232.276367188 346.026367188 239.549804688 351.060546875 243.465820312 351.060546875 c 4
 247.381835938 351.060546875 257.453125 357.215820312 266.405273438 365.047851562 c 4
 286.544921875 382.391601562 313.958984375 395.819335938 329.625 395.819335938 c 4
 336.337890625 395.819335938 341.373046875 398.056640625 341.373046875 400.293945312 c 4
 341.373046875 403.091796875 352.002929688 407.008789062 365.4296875 410.365234375 c 4
 387.25 414.840820312 388.928710938 416.518554688 387.25 432.184570312 c 4
 385.01171875 459.598632812 391.166015625 484.215820312 401.795898438 487.012695312 c 4xa0
694.399414062 261.545898438 m 4
 699.435546875 264.90234375 706.708007812 262.6640625 715.100585938 254.272460938 c 4
 727.967773438 242.524414062 728.52734375 239.166992188 725.73046875 192.171875 c 4
 721.814453125 125.594726562 709.505859375 114.405273438 673.139648438 142.938476562 c 4
 655.795898438 156.365234375 649.083007812 227.41796875 663.069335938 248.677734375 c 4
 668.104492188 255.951171875 675.377929688 260.986328125 679.293945312 259.8671875 c 4
 683.209960938 258.189453125 689.923828125 259.307617188 694.399414062 261.545898438 c 4
EndSplineSet
Validated: 524321
EndChar

StartChar: uni304A
Encoding: 9258 12362 9
Width: 1000
VWidth: 0
Flags: H
HStem: 405.004 67.4541<123.389 244.105>
VStem: 390.123 63.9648<281.147 458.77> 697.736 76.1758<427.635 499.427> 802.987 3.48926<379.64 400.603>
LayerCount: 2
Fore
SplineSet
390.012695312 701.008789062 m 4
 397.573242188 710.893554688 407.458007812 716.126953125 417.924804688 716.126953125 c 4
 433.625976562 716.126953125 434.20703125 714.963867188 447 651 c 4
 465.026367188 560.286132812 464.444335938 563.194335938 474.330078125 571.333984375 c 4
 484.797851562 580.057617188 528.990234375 574.82421875 535.387695312 563.775390625 c 4
 538.875976562 558.541992188 531.317382812 547.493164062 510.3828125 528.885742188 c 4
 482.470703125 502.717773438 481.307617188 500.392578125 484.797851562 478.294921875 c 4
 486.541992188 465.501953125 485.959960938 453.872070312 483.634765625 452.126953125 c 4
 480.7265625 450.3828125 479.563476562 436.427734375 480.145507812 421.30859375 c 4
 481.307617188 406.188476562 482.470703125 371.298828125 482.470703125 344.55078125 c 6
 483.634765625 296.286132812 l 5
 507.475585938 300.938476562 l 6
 552.25 309.078125 607.493164062 303.263671875 633.080078125 286.982421875 c 4
 681.924804688 255.581054688 719.72265625 200.337890625 723.2109375 152.07421875 c 4
 725.538085938 123.581054688 717.977539062 75.3173828125 708.092773438 54.9638671875 c 4
 704.603515625 47.986328125 701.696289062 37.51953125 701.114257812 31.123046875 c 4
 700.532226562 16.00390625 633.661132812 -92.736328125 622.612304688 -96.8056640625 c 4
 617.37890625 -98.5517578125 607.493164062 -105.529296875 601.096679688 -111.92578125 c 4
 582.489257812 -129.952148438 545.853515625 -128.208007812 536.55078125 -109.017578125 c 4
 525.501953125 -86.921875 533.061523438 -68.8935546875 552.833007812 -68.8935546875 c 4
 584.233398438 -68.8935546875 619.704101562 -18.8857421875 641.801757812 56.126953125 c 4
 647.616210938 75.3173828125 654.012695312 96.25 656.920898438 102.646484375 c 4
 668.55078125 133.466796875 646.454101562 216.0390625 626.681640625 216.0390625 c 4
 623.775390625 216.0390625 614.470703125 221.272460938 606.330078125 227.668945312 c 4
 595.282226562 235.810546875 585.395507812 238.135742188 565.043945312 236.973632812 c 4
 502.2421875 231.740234375 478.982421875 209.061523438 451.0703125 122.41796875 c 4
 439.440429688 87.5283203125 420.833007812 42.7529296875 409.784179688 22.400390625 c 4
 398.736328125 2.0478515625 389.431640625 -20.048828125 389.431640625 -27.0263671875 c 4
 389.431640625 -35.75 385.943359375 -39.8193359375 378.3828125 -39.8193359375 c 4
 371.986328125 -39.8193359375 365.008789062 -45.052734375 363.264648438 -51.44921875 c 4
 360.356445312 -60.75390625 354.541992188 -63.0791015625 337.096679688 -63.0791015625 c 4
 316.744140625 -63.0791015625 313.836914062 -61.3349609375 310.34765625 -46.7978515625 c 4
 308.021484375 -38.0751953125 304.532226562 -29.9345703125 302.788085938 -28.189453125 c 4
 300.462890625 -26.4453125 296.391601562 -18.8857421875 292.90234375 -10.744140625 c 4
 284.76171875 7.2822265625 298.717773438 59.6162109375 324.885742188 111.370117188 c 4
 334.771484375 130.55859375 341.16796875 146.259765625 339.421875 146.259765625 c 4
 338.259765625 146.259765625 343.493164062 153.237304688 351.634765625 161.959960938 c 4
 359.775390625 170.682617188 366.171875 180.568359375 366.171875 184.057617188 c 4
 366.171875 187.545898438 377.801757812 201.501953125 392.33984375 215.458007812 c 4
 421.4140625 243.951171875 420.833007812 239.879882812 418.505859375 361.413085938 c 4
 417.924804688 410.259765625 410.366210938 470.153320312 404.55078125 475.967773438 c 4
 403.969726562 477.131835938 394.083984375 474.224609375 383.03515625 469.572265625 c 4
 371.986328125 464.920898438 333.026367188 455.616210938 296.391601562 448.638671875 c 4
 259.7578125 441.66015625 221.959960938 431.194335938 212.07421875 425.959960938 c 4
 198.119140625 418.400390625 189.395507812 417.818359375 167.298828125 421.889648438 c 4
 136.479492188 427.704101562 129.501953125 438.171875 141.713867188 457.360351562 c 4
 150.435546875 470.736328125 181.255859375 489.34375 194.047851562 489.34375 c 4
 197.538085938 489.34375 207.421875 493.413085938 216.7265625 498.065429688 c 4
 225.450195312 502.135742188 246.3828125 507.370117188 263.24609375 508.532226562 c 4
 279.528320312 510.276367188 300.462890625 513.766601562 308.603515625 517.255859375 c 4
 317.326171875 520.744140625 325.466796875 522.489257812 327.2109375 520.744140625 c 4
 328.374023438 519 345.237304688 523.0703125 363.845703125 529.466796875 c 4
 403.387695312 542.840820312 406.875976562 549.237304688 392.920898438 595.756835938 c 4
 377.801757812 648.673828125 376.638671875 684.145507812 390.012695312 701.008789062 c 4
733.677734375 516.673828125 m 4
 737.16796875 520.744140625 749.37890625 523.0703125 762.171875 521.90625 c 4
 786.59375 519.581054688 801.713867188 506.788085938 802.294921875 487.598632812 c 4
 802.294921875 474.224609375 811.599609375 456.779296875 826.717773438 441.66015625 c 4
 834.278320312 434.100585938 837.184570312 425.959960938 834.859375 417.818359375 c 4
 833.114257812 410.840820312 831.370117188 400.955078125 831.370117188 396.303710938 c 4
 831.370117188 391.65234375 829.043945312 384.091796875 826.135742188 380.022460938 c 4
 819.740234375 369.5546875 784.849609375 387 751.704101562 418.400390625 c 4
 731.93359375 435.844726562 726.700195312 445.73046875 726.119140625 460.850585938 c 4
 724.956054688 492.25 727.282226562 509.114257812 733.677734375 516.673828125 c 4
EndSplineSet
EndChar

StartChar: uni304B
Encoding: 9259 12363 10
Width: 1000
VWidth: 0
Flags: H
VStem: 348.898 51.9824<169.952 353.868> 371.807 63.4355<471.807 523.736> 466.96 7.04883<40.5283 50.6611> 506.167 40.0889<184.561 407.573>
LayerCount: 2
Fore
SplineSet
312.612304688 663.62109375 m 4x70
 324.916015625 677.220703125 331.391601562 679.810546875 345.638671875 675.92578125 c 4
 374.780273438 668.802734375 380.608398438 660.3828125 378.017578125 624.766601562 c 6x70
 376.075195312 591.741210938 l 5
 401.977539062 591.091796875 l 6
 462.202148438 590.444335938 463.497070312 589.796875 503 549 c 4
 527.608398438 523.744140625 541.20703125 504.317382812 541.20703125 494.602539062 c 4
 541.20703125 486.184570312 543.796875 477.766601562 546.38671875 475.823242188 c 4
 553.51171875 471.291015625 566.462890625 412.360351562 569.700195312 368.326171875 c 4
 572.291015625 334.651367188 559.987304688 260.828125 547.03515625 227.153320312 c 4
 543.796875 218.735351562 541.20703125 207.079101562 541.20703125 200.602539062 c 4
 541.20703125 183.766601562 480.981445312 49.0712890625 464.145507812 27.7001953125 c 4
 457.021484375 17.9873046875 450.544921875 6.9775390625 450.544921875 2.4443359375 c 4
 450.544921875 -2.087890625 446.013671875 -9.2119140625 440.83203125 -13.744140625 c 4
 435.651367188 -18.27734375 433.061523438 -24.1064453125 435.00390625 -27.3427734375 c 4
 436.946289062 -30.58203125 435.00390625 -33.171875 431.766601562 -33.171875 c 4
 427.880859375 -33.171875 424.642578125 -37.0576171875 424.642578125 -42.23828125 c 4
 424.642578125 -54.5419921875 381.903320312 -91.453125 367.655273438 -91.453125 c 4
 354.056640625 -90.8056640625 332.0390625 -73.322265625 321.677734375 -53.24609375 c 4
 313.259765625 -38.3525390625 296.421875 -37.0576171875 268.577148438 -48.7138671875 c 4
 252.38671875 -55.8369140625 225.188476562 -22.8115234375 220.655273438 8.919921875 c 4
 214.1796875 58.13671875 215.475585938 92.4580078125 229.72265625 202.546875 c 4
 234.255859375 234.278320312 238.788085938 262.770507812 240.083984375 264.712890625 c 4
 241.37890625 267.3046875 244.616210938 293.854492188 246.559570312 323.643554688 c 4
 248.501953125 353.431640625 250.444335938 382.573242188 251.091796875 387.75390625 c 4xb0
 252.38671875 405.884765625 249.796875 420.1328125 245.263671875 420.1328125 c 4
 242.026367188 420.1328125 228.427734375 409.770507812 214.1796875 397.466796875 c 4
 199.93359375 385.163085938 186.333984375 374.802734375 183.744140625 374.802734375 c 4
 180.505859375 374.802734375 178.563476562 371.563476562 178.563476562 367.030273438 c 4
 178.563476562 358.612304688 148.774414062 313.282226562 131.938476562 295.796875 c 4
 118.987304688 282.845703125 117.690429688 264.712890625 126.110351562 234.278320312 c 4
 129.34765625 223.268554688 130.642578125 212.259765625 128.700195312 210.317382812 c 4
 124.166992188 205.784179688 79.4833984375 229.09765625 69.123046875 241.401367188 c 4
 58.1142578125 254.352539062 65.2373046875 304.216796875 81.427734375 335.946289062 c 4
 101.501953125 373.505859375 180.505859375 463.51953125 228.427734375 501.7265625 c 4
 278.938476562 543.819335938 281.528320312 547.057617188 284.766601562 580.083984375 c 4
 289.298828125 625.4140625 296.421875 646.13671875 312.612304688 663.62109375 c 4x70
448.603515625 501.079101562 m 4
 420.7578125 520.505859375 365.712890625 508.202148438 354.704101562 479.708984375 c 4
 339.163085938 439.559570312 327.505859375 390.34375 327.505859375 361.850585938 c 4xb0
 327.505859375 345.661132812 324.916015625 329.470703125 321.677734375 326.233398438 c 4
 314.5546875 318.462890625 301.603515625 230.391601562 301.603515625 187.651367188 c 4
 301.603515625 170.815429688 300.30859375 155.272460938 298.366210938 153.330078125 c 4
 289.946289062 144.912109375 290.59375 53.6025390625 299.013671875 37.4140625 c 4
 303.544921875 27.7001953125 306.13671875 18.634765625 304.194335938 16.6923828125 c 4
 302.25 14.748046875 302.25 9.5673828125 304.841796875 5.6826171875 c 4
 308.079101562 0.501953125 314.5546875 3.7412109375 324.268554688 16.04296875 c 6
 339.163085938 34.8232421875 l 5
 346.286132812 16.6923828125 l 6
 360.532226562 -20.2197265625 375.427734375 -2.087890625 431.118164062 116.41796875 c 4
 462.202148438 183.119140625 484.220703125 253.057617188 482.276367188 276.370117188 c 4
 480.981445312 286.083984375 482.276367188 297.741210938 484.868164062 301.625 c 4
 491.34375 311.987304688 491.991210938 390.34375 486.163085938 424.017578125 c 4
 480.333984375 458.987304688 465.440429688 489.423828125 448.603515625 501.079101562 c 4
731.59375 564.541015625 m 4
 741.30859375 565.8359375 752.96484375 558.065429688 772.391601562 537.34375 c 4
 787.286132812 521.153320312 799.58984375 504.96484375 800.237304688 501.7265625 c 4
 800.237304688 499.13671875 809.3046875 484.889648438 820.959960938 470.643554688 c 4
 852.690429688 429.845703125 868.880859375 407.180664062 891.544921875 368.326171875 c 4
 903.202148438 348.899414062 914.2109375 331.4140625 916.153320312 329.470703125 c 4
 918.09765625 327.528320312 920.686523438 317.815429688 921.333984375 306.806640625 c 4
 921.981445312 296.444335938 923.276367188 278.9609375 923.92578125 267.952148438 c 4
 924.573242188 257.58984375 929.104492188 240.104492188 934.286132812 230.391601562 c 4
 943.352539062 212.259765625 941.409179688 199.956054688 929.104492188 199.956054688 c 4
 925.220703125 199.956054688 918.09765625 195.423828125 912.916015625 190.2421875 c 4
 898.669921875 175.995117188 894.13671875 177.938476562 868.233398438 207.7265625 c 4
 852.04296875 227.153320312 846.21484375 239.458007812 848.159179688 249.171875 c 4
 850.1015625 256.942382812 847.51171875 271.8359375 842.330078125 281.55078125 c 4
 837.149414062 291.912109375 832.616210938 303.567382812 832.616210938 307.454101562 c 4
 832.616210938 311.33984375 826.788085938 319.7578125 819.665039062 326.233398438 c 4
 812.541015625 332.708984375 806.712890625 343.071289062 806.712890625 350.194335938 c 4
 806.712890625 356.669921875 804.123046875 361.850585938 800.237304688 361.850585938 c 4
 797 361.850585938 793.76171875 368.973632812 793.76171875 376.744140625 c 4
 793.76171875 385.810546875 788.581054688 394.876953125 780.810546875 398.114257812 c 4
 774.333984375 401.352539062 754.259765625 422.075195312 736.126953125 444.091796875 c 4
 687.559570312 504.96484375 685.616210938 556.123046875 731.59375 564.541015625 c 4
EndSplineSet
EndChar

StartChar: uni304C
Encoding: 9260 12364 11
Width: 1000
VWidth: 0
HStem: 46.6963 57.2686<335.348 375.311>
VStem: 193.833 44.0527<221.453 275.943> 264.317 42.291<57.8845 204.591> 349.339 48.0176<396.546 477.346> 629.956 57.2686<299.866 415.79> 859.912 42.7314<335.768 443.109 443.236 455.492>
LayerCount: 2
Fore
SplineSet
349.338867188 473.127929688 m 0
 351.982421875 476.65234375 360.352539062 478.4140625 373.568359375 477.533203125 c 0
 391.629882812 476.211914062 393.833007812 474.889648438 397.356445312 462.995117188 c 0
 399.559570312 455.06640625 399.119140625 440.087890625 396.03515625 424.229492188 c 0
 392.951171875 410.131835938 392.0703125 397.796875 393.391601562 396.475585938 c 0
 394.713867188 395.154296875 404.405273438 392.951171875 414.977539062 391.629882812 c 0
 440.96875 388.10546875 473.127929688 366.51953125 488.545898438 342.291015625 c 0
 500.440429688 322.907226562 500.880859375 320.705078125 496.916015625 291.189453125 c 0
 492.510742188 254.625976562 491.189453125 247.13671875 486.784179688 229.515625 c 0
 481.498046875 209.69140625 449.338867188 146.255859375 442.291015625 142.291015625 c 0
 438.766601562 140.528320312 436.123046875 135.2421875 436.123046875 130.836914062 c 0
 436.123046875 126.431640625 430.836914062 118.501953125 424.669921875 112.334960938 c 0
 418.501953125 106.608398438 410.572265625 95.154296875 406.608398438 87.224609375 c 0
 396.916015625 66.51953125 376.65234375 46.6962890625 365.638671875 46.6962890625 c 0
 354.625976562 46.6962890625 330.396484375 69.1630859375 330.396484375 79.294921875 c 0
 330.396484375 88.10546875 345.815429688 103.96484375 354.625976562 103.96484375 c 0
 360.79296875 103.96484375 365.638671875 109.69140625 384.581054688 139.20703125 c 0
 409.250976562 177.533203125 418.942382812 197.796875 425.55078125 223.788085938 c 0
 429.515625 239.20703125 435.682617188 257.268554688 439.20703125 263.876953125 c 0
 442.731445312 270.924804688 444.93359375 282.819335938 444.493164062 290.30859375 c 0
 443.612304688 298.23828125 444.493164062 306.608398438 446.255859375 309.250976562 c 0
 447.577148438 311.89453125 445.374023438 317.62109375 440.96875 321.5859375 c 0
 429.956054688 331.717773438 392.951171875 342.731445312 389.868164062 337.004882812 c 0
 388.10546875 334.801757812 383.700195312 333.040039062 379.294921875 333.040039062 c 0
 371.365234375 333.040039062 359.471679688 313.215820312 363.436523438 306.608398438 c 0
 364.317382812 304.845703125 358.58984375 290.30859375 350.220703125 274.44921875 c 0
 341.850585938 258.149414062 335.2421875 243.612304688 335.682617188 241.850585938 c 0
 337.4453125 234.801757812 325.110351562 192.0703125 320.705078125 192.0703125 c 0
 318.501953125 192.0703125 317.62109375 190.30859375 318.942382812 188.10546875 c 0
 320.264648438 186.34375 319.3828125 177.973632812 317.180664062 169.603515625 c 0
 310.131835938 146.255859375 307.9296875 131.27734375 306.608398438 96.4755859375 c 0
 305.7265625 78.8544921875 302.643554688 61.2333984375 299.559570312 57.708984375 c 0
 292.510742188 49.3388671875 271.365234375 49.3388671875 264.317382812 57.2685546875 c 0
 259.471679688 63.4365234375 258.149414062 114.977539062 262.114257812 139.20703125 c 0
 268.72265625 176.65234375 281.938476562 237.004882812 284.581054688 241.41015625 c 0
 286.34375 244.493164062 289.427734375 254.625976562 291.189453125 264.7578125 c 0
 293.391601562 274.44921875 296.03515625 287.665039062 297.796875 294.713867188 c 0
 300 305.286132812 299.559570312 306.166992188 292.510742188 303.96484375 c 0
 287.665039062 302.203125 273.568359375 290.30859375 261.233398438 277.533203125 c 0
 244.052734375 260.352539062 237.885742188 250.220703125 237.885742188 241.41015625 c 0
 237.885742188 231.27734375 234.801757812 227.752929688 220.264648438 221.145507812 c 0
 200.440429688 212.334960938 190.30859375 215.418945312 181.057617188 233.040039062 c 0
 175.770507812 242.731445312 176.211914062 246.696289062 184.581054688 263.436523438 c 0
 189.427734375 274.44921875 193.833007812 284.581054688 193.833007812 286.34375 c 0
 193.833007812 291.189453125 222.466796875 317.180664062 243.171875 330.836914062 c 0
 253.303710938 337.4453125 263.876953125 344.93359375 266.079101562 347.13671875 c 0
 268.72265625 349.779296875 282.819335938 357.708984375 297.356445312 365.198242188 c 2
 323.788085938 379.294921875 l 1
 334.801757812 423.34765625 l 2
 340.96875 447.577148438 347.577148438 470.043945312 349.338867188 473.127929688 c 0
865.198242188 453.303710938 m 0
 869.163085938 461.673828125 896.03515625 463.876953125 900.880859375 456.387695312 c 0
 904.845703125 449.779296875 906.608398438 358.58984375 902.643554688 348.017578125 c 0
 900.880859375 342.731445312 896.03515625 337.4453125 891.629882812 335.682617188 c 0
 880.17578125 331.27734375 860.352539062 341.850585938 859.912109375 352.422851562 c 0
 859.912109375 357.708984375 857.708984375 370.924804688 855.506835938 382.37890625 c 0
 851.1015625 404.405273438 851.982421875 426.872070312 857.708984375 435.682617188 c 0
 859.471679688 438.766601562 861.233398438 441.850585938 861.673828125 443.171875 c 0
 861.673828125 444.493164062 863.436523438 448.8984375 865.198242188 453.303710938 c 0
742.291015625 435.2421875 m 0
 749.779296875 439.20703125 755.947265625 442.731445312 756.387695312 442.731445312 c 0
 756.828125 443.171875 762.114257812 441.41015625 767.841796875 439.20703125 c 0
 776.211914062 435.682617188 780.17578125 429.075195312 786.34375 404.845703125 c 0
 790.749023438 388.545898438 798.23828125 366.079101562 803.083984375 355.06640625 c 0
 807.489257812 344.052734375 811.89453125 332.158203125 813.215820312 328.634765625 c 0
 814.096679688 325.110351562 816.740234375 313.65625 819.82421875 303.524414062 c 0
 824.229492188 286.784179688 823.788085938 284.140625 814.096679688 273.568359375 c 0
 804.845703125 263.876953125 802.203125 262.995117188 790.30859375 266.959960938 c 0
 779.735351562 270.484375 775.770507812 275.770507812 770.924804688 292.510742188 c 0
 767.841796875 303.96484375 759.471679688 324.229492188 752.86328125 337.4453125 c 0
 723.34765625 396.475585938 720.705078125 422.466796875 742.291015625 435.2421875 c 0
623.34765625 416.299804688 m 0
 633.48046875 426.872070312 659.912109375 426.872070312 665.638671875 416.740234375 c 0
 673.127929688 403.083984375 687.224609375 368.72265625 687.224609375 363.876953125 c 0
 687.224609375 361.673828125 688.986328125 355.947265625 691.189453125 351.541992188 c 0
 697.356445312 338.766601562 705.286132812 314.977539062 715.859375 273.568359375 c 0
 721.5859375 251.982421875 729.075195312 225.991210938 732.598632812 216.299804688 c 0
 736.123046875 206.608398438 737.885742188 196.03515625 737.004882812 192.951171875 c 0
 735.682617188 189.868164062 737.885742188 178.4140625 741.850585938 166.959960938 c 0
 745.815429688 155.506835938 748.8984375 134.801757812 748.8984375 120.264648438 c 0
 748.8984375 98.6787109375 747.13671875 92.951171875 739.20703125 85.9033203125 c 0
 733.48046875 81.498046875 725.110351562 77.9736328125 720.264648438 77.9736328125 c 0
 703.083984375 77.9736328125 697.796875 87.224609375 694.713867188 122.026367188 c 0
 692.951171875 140.087890625 687.665039062 167.841796875 682.819335938 183.700195312 c 0
 677.973632812 199.119140625 674.008789062 216.299804688 674.008789062 221.5859375 c 0
 674.008789062 226.872070312 672.247070312 232.158203125 669.603515625 233.920898438 c 0
 667.401367188 235.2421875 666.51953125 239.20703125 668.282226562 242.731445312 c 0
 669.603515625 246.696289062 668.72265625 251.982421875 666.079101562 255.06640625 c 0
 663.436523438 258.149414062 659.03125 270.484375 655.947265625 282.37890625 c 0
 653.303710938 294.713867188 646.255859375 314.096679688 640.528320312 325.55078125 c 0
 634.801757812 337.4453125 629.956054688 349.338867188 629.956054688 351.982421875 c 0
 629.956054688 354.625976562 626.872070312 359.912109375 623.34765625 364.317382812 c 0
 612.775390625 375.330078125 613.215820312 405.7265625 623.34765625 416.299804688 c 0
EndSplineSet
Validated: 33
EndChar

StartChar: uni304D
Encoding: 9261 12365 12
Width: 1000
VWidth: 0
Flags: H
HStem: -22.4668 31.7178<491.714 546.351> 2.64355 66.0791<335.944 400.503> 288.105 50.2207<348.018 507.805> 290.309 55.5068<350.339 524.21> 341.851 30.8369<622.357 651.981> 447.577 47.5771<295.805 502.761>
VStem: 518.062 50.6611<506.135 583.348> 526.872 51.9824<125.663 232.093 360.417 442.121>
LayerCount: 2
Fore
SplineSet
596.375 742.299804688 m 4x16
 608.327148438 754.881835938 632.231445312 755.510742188 646.700195312 742.299804688 c 4
 652.991210938 736.638671875 656.766601562 701.411132812 657.39453125 646.681640625 c 4
 657.39453125 621.518554688 660.540039062 608.30859375 667.458984375 602.645507812 c 4
 714.01171875 566.159179688 735.399414062 532.189453125 707.720703125 539.739257812 c 4
 690.106445312 544.141601562 683.81640625 527.157226562 681.299804688 472.427734375 c 4
 679.412109375 432.166992188 680.041015625 425.24609375 689.477539062 423.359375 c 4
 695.767578125 422.102539062 707.091796875 425.875976562 714.640625 430.908203125 c 4
 722.189453125 436.5703125 739.174804688 440.974609375 752.384765625 440.974609375 c 4
 775.661132812 440.974609375 776.290039062 440.344726562 776.290039062 418.955078125 c 4
 776.290039062 407.00390625 773.143554688 396.939453125 769.370117188 396.939453125 c 4x0e
 765.594726562 396.939453125 753.643554688 390.018554688 742.318359375 381.211914062 c 4
 730.997070312 372.404296875 717.786132812 365.485351562 712.125 365.485351562 c 4
 690.106445312 365.485351562 683.186523438 350.38671875 678.782226562 296.286132812 c 4
 676.267578125 266.720703125 671.86328125 239.040039062 668.08984375 235.266601562 c 4
 663.685546875 229.604492188 663.685546875 224.572265625 668.717773438 218.91015625 c 4
 672.4921875 213.876953125 673.75 208.844726562 671.86328125 206.958007812 c 4
 669.9765625 205.071289062 666.830078125 188.0859375 665.572265625 169.842773438 c 4
 661.16796875 123.291015625 652.991210938 100.64453125 634.748046875 80.513671875 c 4
 616.50390625 61.6416015625 610.842773438 59.75390625 602.036132812 71.70703125 c 4
 590.083984375 86.17578125 588.826171875 108.822265625 597.631835938 133.985351562 c 4
 603.293945312 150.970703125 606.440429688 186.827148438 606.440429688 242.815429688 c 4
 606.440429688 349.12890625 608.327148438 347.241210938 524.659179688 330.256835938 c 4
 515.852539062 328.370117188 471.189453125 325.223632812 425.265625 323.336914062 c 6x15
 342.227539062 320.190429688 l 5
 332.79296875 342.208984375 l 6
 322.098632812 368.000976562 325.243164062 381.83984375 344.744140625 391.90625 c 4x25
 359.842773438 400.083984375 500.125976562 408.26171875 534.095703125 402.600585938 c 4
 549.822265625 400.083984375 558.001953125 401.340820312 560.516601562 407.00390625 c 4
 561.775390625 411.407226562 566.807617188 413.922851562 570.58203125 412.036132812 c 4
 589.454101562 405.745117188 596.375 420.842773438 595.745117188 471.169921875 c 4
 595.1171875 524.640625 587.567382812 546.658203125 569.953125 547.287109375 c 4
 564.291015625 547.916992188 549.193359375 547.916992188 537.240234375 547.916992188 c 4
 525.290039062 547.916992188 509.5625 547.916992188 502.642578125 548.544921875 c 4
 486.915039062 549.174804688 472.447265625 548.544921875 439.735351562 545.400390625 c 4
 425.895507812 544.141601562 393.182617188 540.997070312 367.390625 538.48046875 c 4
 341.599609375 536.59375 310.774414062 533.448242188 299.450195312 532.189453125 c 4
 288.126953125 531.559570312 273.659179688 531.559570312 267.368164062 533.448242188 c 4
 254.786132812 536.59375 232.768554688 576.854492188 238.430664062 585.661132812 c 4
 240.318359375 588.807617188 254.786132812 596.984375 269.884765625 603.904296875 c 4
 293.7890625 614.598632812 311.403320312 616.485351562 385.004882812 615.857421875 c 4
 519.626953125 614.598632812 554.2265625 616.485351562 563.663085938 625.291992188 c 4
 568.065429688 630.325195312 574.986328125 632.841796875 578.759765625 631.58203125 c 4
 582.53515625 630.325195312 585.05078125 647.309570312 585.05078125 679.393554688 c 4
 584.421875 719.654296875 586.938476562 731.607421875 596.375 742.299804688 c 4x16
332.79296875 -2.5244140625 m 4
 339.712890625 2.5087890625 354.809570312 6.912109375 366.133789062 6.912109375 c 4x44
 382.489257812 6.912109375 393.182617188 0.6220703125 418.345703125 -24.541015625 c 4
 462.380859375 -68.5771484375 493.205078125 -83.0458984375 546.048828125 -84.9326171875 c 4
 575.616210938 -86.19140625 593.858398438 -83.6748046875 602.666015625 -78.013671875 c 4
 629.715820312 -58.51171875 642.92578125 -100.029296875 617.762695312 -123.305664062 c 4x84
 585.05078125 -152.873046875 554.854492188 -157.27734375 490.061523438 -140.291992188 c 4
 469.302734375 -135.258789062 445.397460938 -128.96875 437.217773438 -127.08203125 c 4
 428.412109375 -125.192382812 410.16796875 -115.12890625 395.071289062 -105.69140625 c 4
 380.6015625 -95.6279296875 364.875976562 -87.4482421875 360.471679688 -87.4482421875 c 4x44
 355.438476562 -86.8193359375 345.375 -81.787109375 337.1953125 -74.8671875 c 4
 317.694335938 -58.51171875 315.178710938 -16.3642578125 332.79296875 -2.5244140625 c 4
EndSplineSet
EndChar

StartChar: uni304E
Encoding: 9262 12366 13
Width: 1000
VWidth: 0
HStem: 303.982 51.3271<365.687 537.61> 318.142 32.7432<603.667 629.92> 423.009 54.8672<326.434 384.437> 427.876 60.1768<334.009 512.382>
VStem: 512.832 52.2119<488.427 579.527> 537.61 48.6729<355.31 433.745> 540.708 43.3623<176.636 304.653> 677.434 52.6553<389.287 530.834> 682.743 67.6992<383.987 467.965> 682.743 40.2656<484.601 530.834> 792.035 55.3096<407.799 531.963>
LayerCount: 2
Fore
SplineSet
531.416015625 579.646484375 m 0x1820
 534.513671875 580.53125 542.477539062 580.53125 549.115234375 579.646484375 c 0
 561.061523438 577.875976562 561.504882812 576.991210938 561.504882812 552.655273438 c 0
 561.504882812 538.938476562 562.83203125 517.256835938 565.043945312 503.982421875 c 0x1820
 568.583984375 480.53125 569.026367188 480.088867188 588.938476562 473.893554688 c 0
 600 470.353515625 611.504882812 463.274414062 615.043945312 457.96484375 c 0
 620.353515625 449.557617188 619.026367188 447.344726562 604.8671875 434.956054688 c 0
 589.380859375 421.681640625 588.938476562 420.353515625 587.610351562 386.283203125 c 2
 586.283203125 350.884765625 l 1x5420
 605.751953125 350.884765625 l 2
 619.46875 350.884765625 626.548828125 348.672851562 630.088867188 343.36328125 c 0
 636.283203125 333.627929688 629.203125 320.796875 616.814453125 318.141601562 c 0
 612.389648438 317.256835938 606.194335938 315.043945312 603.540039062 312.83203125 c 0
 598.672851562 308.849609375 592.03515625 261.504882812 592.477539062 234.956054688 c 0
 592.919921875 226.991210938 590.708007812 219.46875 588.495117188 218.141601562 c 0
 585.840820312 216.814453125 584.0703125 211.504882812 584.0703125 207.080078125 c 0
 584.0703125 194.690429688 561.504882812 170.353515625 553.09765625 173.893554688 c 0
 542.477539062 177.875976562 534.513671875 198.672851562 540.708007812 205.751953125 c 0x5220
 548.23046875 215.043945312 550.884765625 275.221679688 544.248046875 291.150390625 c 2
 538.495117188 304.8671875 l 1
 457.522460938 303.09765625 l 2
 413.274414062 302.211914062 374.778320312 302.655273438 372.56640625 303.982421875 c 0
 370.353515625 305.309570312 367.256835938 312.83203125 365.486328125 319.911132812 c 0
 363.274414062 330.973632812 364.6015625 335.3984375 374.3359375 344.248046875 c 0
 385.3984375 355.309570312 387.16796875 355.309570312 461.504882812 355.309570312 c 2
 537.610351562 355.309570312 l 1
 536.725585938 366.372070312 l 2
 536.283203125 372.56640625 534.956054688 384.513671875 533.627929688 392.919921875 c 0
 532.743164062 401.327148438 531.416015625 413.716796875 531.416015625 419.911132812 c 0
 530.973632812 430.088867188 528.760742188 431.858398438 512.389648438 434.956054688 c 0
 488.495117188 438.938476562 440.708007812 438.052734375 420.353515625 432.743164062 c 0
 411.947265625 430.53125 396.017578125 428.318359375 384.956054688 427.875976562 c 0x9420
 373.893554688 427.43359375 361.504882812 425.221679688 357.522460938 423.008789062 c 0
 346.90234375 417.69921875 336.725585938 423.008789062 329.203125 437.610351562 c 0
 320.353515625 454.8671875 326.548828125 465.043945312 353.09765625 477.875976562 c 0x2420
 372.124023438 487.16796875 380.088867188 488.052734375 443.36328125 488.052734375 c 2
 512.83203125 488.052734375 l 1
 511.061523438 510.176757812 l 2
 510.176757812 522.124023438 511.504882812 534.513671875 513.716796875 537.610351562 c 0
 516.372070312 540.708007812 517.256835938 545.1328125 515.486328125 547.344726562 c 0
 512.389648438 553.09765625 524.3359375 577.43359375 531.416015625 579.646484375 c 0x1820
698.23046875 531.416015625 m 0
 702.655273438 532.30078125 707.96484375 532.30078125 711.061523438 530.973632812 c 0
 718.583984375 528.318359375 725.6640625 504.8671875 723.008789062 490.708007812 c 0x0060
 721.239257812 483.627929688 722.56640625 476.548828125 725.221679688 475.221679688 c 0
 727.875976562 473.451171875 730.088867188 463.274414062 730.088867188 452.211914062 c 0x0120
 730.088867188 436.283203125 732.30078125 430.53125 742.03515625 422.124023438 c 0
 751.327148438 414.159179688 753.09765625 409.734375 750.442382812 400 c 0
 745.575195312 380.973632812 712.389648438 372.56640625 700.442382812 387.610351562 c 0
 693.805664062 396.017578125 685.3984375 413.274414062 682.743164062 423.893554688 c 0x00a0
 677.875976562 446.017578125 674.778320312 481.858398438 677.43359375 484.513671875 c 0x0120
 679.203125 486.283203125 681.858398438 494.248046875 682.743164062 501.327148438 c 0x0060
 686.283203125 521.239257812 690.265625 529.203125 698.23046875 531.416015625 c 0
802.211914062 519.911132812 m 0
 809.734375 530.973632812 815.043945312 534.513671875 825.221679688 534.513671875 c 0
 844.248046875 534.513671875 850.884765625 522.124023438 847.344726562 493.36328125 c 0
 845.1328125 476.991210938 846.90234375 461.504882812 853.09765625 438.938476562 c 0
 857.96484375 421.681640625 860.619140625 405.751953125 858.849609375 403.09765625 c 0
 849.115234375 388.495117188 818.583984375 395.575195312 809.734375 414.159179688 c 0
 801.76953125 430.973632812 792.477539062 472.124023438 792.03515625 489.823242188 c 0
 792.03515625 498.672851562 796.459960938 511.504882812 802.211914062 519.911132812 c 0
357.080078125 98.23046875 m 0
 366.372070312 104.424804688 376.106445312 109.291992188 378.760742188 109.291992188 c 0
 386.283203125 109.734375 393.805664062 100 393.805664062 89.8232421875 c 0
 393.805664062 77.8759765625 408.407226562 61.0615234375 431.416015625 47.3447265625 c 0
 455.309570312 33.185546875 496.90234375 32.30078125 507.96484375 46.017578125 c 0
 519.911132812 60.619140625 566.814453125 56.1943359375 573.008789062 39.8232421875 c 0
 576.548828125 30.53125 546.90234375 3.5400390625 533.185546875 3.5400390625 c 0
 527.875976562 3.5400390625 522.124023438 1.76953125 519.911132812 -0.4423828125 c 0
 513.274414062 -7.080078125 459.734375 -14.6015625 437.610351562 -11.947265625 c 0
 418.583984375 -10.1767578125 399.557617188 -2.2119140625 374.3359375 14.6015625 c 0
 361.947265625 23.0087890625 349.115234375 46.90234375 343.36328125 73.0087890625 c 0
 340.265625 85.8408203125 341.592773438 88.052734375 357.080078125 98.23046875 c 0
EndSplineSet
Validated: 33
EndChar

StartChar: uni304F
Encoding: 9263 12367 14
Width: 1000
VWidth: 0
HStem: 92.0352 30.9736<567.699 599.558> 136.283 53.0977<482.866 536.839>
LayerCount: 2
Fore
SplineSet
614.6015625 482.743164062 m 0
 620.796875 483.627929688 628.760742188 484.956054688 631.858398438 485.3984375 c 0
 634.956054688 485.3984375 638.938476562 481.416015625 641.150390625 476.106445312 c 0
 646.017578125 462.83203125 630.088867188 438.052734375 592.919921875 400.442382812 c 0
 590.265625 397.344726562 584.513671875 391.150390625 580.53125 386.725585938 c 0
 576.548828125 382.30078125 569.911132812 375.6640625 565.486328125 372.124023438 c 0
 561.504882812 368.583984375 547.788085938 355.751953125 534.956054688 343.805664062 c 0
 522.56640625 331.858398438 511.061523438 322.124023438 510.176757812 322.124023438 c 0
 508.849609375 322.124023438 501.327148438 315.043945312 492.919921875 306.63671875 c 0
 484.956054688 298.23046875 475.6640625 291.150390625 472.56640625 291.150390625 c 0
 469.46875 290.708007812 458.849609375 284.0703125 449.115234375 275.6640625 c 0
 432.743164062 261.504882812 432.30078125 260.176757812 438.052734375 249.557617188 c 0
 441.150390625 243.36328125 447.344726562 237.16796875 450.884765625 235.840820312 c 0
 454.8671875 234.513671875 469.026367188 223.451171875 481.858398438 211.504882812 c 0
 494.690429688 199.115234375 506.63671875 189.380859375 508.407226562 189.380859375 c 0
 510.176757812 189.380859375 515.486328125 185.840820312 520.353515625 181.416015625 c 0
 525.221679688 176.991210938 538.052734375 168.141601562 548.672851562 161.504882812 c 0
 559.734375 155.309570312 574.778320312 143.805664062 581.858398438 136.283203125 c 0
 588.938476562 129.203125 596.90234375 123.008789062 599.557617188 123.008789062 c 0
 602.211914062 123.008789062 607.522460938 119.46875 611.504882812 115.486328125 c 0
 623.008789062 103.540039062 633.627929688 94.248046875 649.557617188 83.185546875 c 0
 666.372070312 70.796875 667.256835938 61.0615234375 653.982421875 43.36328125 c 0
 645.1328125 30.9736328125 628.318359375 25.2216796875 628.318359375 34.0703125 c 0
 628.318359375 37.16796875 619.026367188 46.4599609375 579.203125 84.513671875 c 0
 574.3359375 88.4951171875 569.46875 92.03515625 567.69921875 92.03515625 c 0
 565.486328125 92.4775390625 557.080078125 98.23046875 548.672851562 105.309570312 c 0
 540.265625 112.83203125 531.416015625 118.583984375 528.318359375 118.583984375 c 0
 525.6640625 118.583984375 519.911132812 122.56640625 515.486328125 127.43359375 c 0
 511.061523438 132.30078125 503.982421875 136.283203125 500 136.283203125 c 0
 492.03515625 136.283203125 475.6640625 147.788085938 428.760742188 185.840820312 c 0
 411.947265625 199.557617188 388.938476562 215.043945312 378.318359375 220.353515625 c 0
 365.043945312 226.991210938 358.407226562 232.743164062 358.407226562 238.495117188 c 0
 358.407226562 243.36328125 355.751953125 248.23046875 352.211914062 249.557617188 c 0
 342.919921875 253.09765625 352.211914062 276.548828125 366.814453125 285.840820312 c 0
 373.008789062 289.823242188 379.203125 294.248046875 380.53125 295.575195312 c 0
 384.956054688 300 402.655273438 308.849609375 407.96484375 308.849609375 c 0
 410.619140625 308.849609375 416.814453125 311.947265625 421.239257812 316.372070312 c 0
 425.6640625 320.353515625 432.743164062 325.6640625 437.610351562 328.318359375 c 0
 458.407226562 340.708007812 491.150390625 364.6015625 491.150390625 367.256835938 c 0
 491.150390625 371.681640625 514.159179688 393.36328125 537.16796875 411.061523438 c 0
 546.90234375 419.026367188 565.9296875 438.052734375 579.203125 453.09765625 c 0
 594.690429688 471.239257812 607.080078125 481.416015625 614.6015625 482.743164062 c 0
EndSplineSet
Validated: 33
EndChar

StartChar: uni3050
Encoding: 9264 12368 15
Width: 1000
VWidth: 0
VStem: 739.647 53.7441<613.365 648.156>
LayerCount: 2
Fore
SplineSet
755.947265625 644.052734375 m 0
 770.484375 657.268554688 792.510742188 664.317382812 793.391601562 655.947265625 c 0
 793.391601562 653.744140625 794.2734375 634.361328125 794.713867188 612.334960938 c 0
 795.594726562 590.30859375 797.356445312 569.603515625 799.559570312 566.959960938 c 0
 801.321289062 563.876953125 804.405273438 551.1015625 806.166992188 538.766601562 c 0
 811.89453125 503.083984375 819.82421875 476.65234375 826.872070312 471.365234375 c 0
 835.682617188 463.876953125 829.956054688 446.255859375 815.418945312 437.4453125 c 0
 802.643554688 429.956054688 783.259765625 431.717773438 784.581054688 440.528320312 c 0
 785.022460938 443.171875 783.259765625 451.541992188 780.17578125 458.58984375 c 0
 772.6875 477.973632812 755.947265625 521.145507812 744.93359375 549.779296875 c 0
 736.563476562 571.365234375 734.361328125 601.321289062 739.647460938 627.3125 c 0
 740.087890625 628.193359375 747.13671875 635.682617188 755.947265625 644.052734375 c 0
851.982421875 576.211914062 m 0
 859.03125 581.057617188 869.163085938 580.6171875 882.37890625 574.44921875 c 0
 893.833007812 569.163085938 894.2734375 567.401367188 892.0703125 548.8984375 c 0
 890.749023438 537.885742188 889.427734375 512.334960938 888.986328125 491.629882812 c 0
 888.545898438 463.436523438 886.34375 450.661132812 880.17578125 440.087890625 c 0
 875.330078125 432.158203125 870.043945312 425.55078125 868.72265625 425.55078125 c 0
 861.673828125 425.991210938 854.625976562 433.48046875 848.458007812 448.458007812 c 0
 836.123046875 477.092773438 838.766601562 567.841796875 851.982421875 576.211914062 c 0
621.5859375 476.211914062 m 0
 642.731445312 492.951171875 648.8984375 493.833007812 651.1015625 479.735351562 c 0
 652.86328125 467.841796875 623.34765625 438.766601562 610.131835938 438.766601562 c 0
 604.405273438 438.766601562 597.796875 435.682617188 594.713867188 432.158203125 c 0
 591.629882812 428.193359375 588.10546875 426.431640625 587.224609375 427.3125 c 0
 585.022460938 429.515625 580.6171875 426.431640625 566.079101562 413.65625 c 0
 562.995117188 410.572265625 558.58984375 407.9296875 557.268554688 407.9296875 c 0
 555.506835938 407.9296875 538.766601562 396.475585938 520.264648438 382.37890625 c 0
 501.76171875 368.282226562 481.938476562 354.184570312 476.65234375 351.1015625 c 0
 470.924804688 348.017578125 462.995117188 342.731445312 459.03125 339.20703125 c 0
 455.06640625 336.123046875 447.577148438 330.396484375 442.731445312 326.872070312 c 0
 433.920898438 320.705078125 434.361328125 320.264648438 448.458007812 305.286132812 c 0
 456.387695312 296.916015625 468.282226562 287.224609375 474.889648438 284.140625 c 0
 491.629882812 275.330078125 513.65625 260.79296875 522.026367188 251.982421875 c 0
 525.991210938 248.017578125 543.612304688 236.563476562 560.79296875 226.431640625 c 0
 578.4140625 216.740234375 602.643554688 201.321289062 614.977539062 193.391601562 c 0
 636.123046875 178.854492188 638.766601562 178.4140625 655.947265625 183.259765625 c 0
 675.330078125 188.10546875 692.0703125 183.700195312 691.189453125 173.127929688 c 0
 690.749023438 161.233398438 674.889648438 140.96875 660.79296875 133.920898438 c 2
 645.815429688 126.431640625 l 1
 601.76171875 149.779296875 l 2
 518.501953125 193.391601562 495.594726562 206.166992188 486.34375 214.537109375 c 0
 481.498046875 219.3828125 474.44921875 222.907226562 470.484375 222.907226562 c 0
 466.51953125 222.907226562 461.233398438 225.991210938 458.149414062 229.515625 c 0
 455.06640625 233.040039062 450.220703125 236.123046875 447.13671875 236.123046875 c 0
 443.612304688 236.123046875 435.2421875 240.96875 428.193359375 247.13671875 c 0
 420.705078125 253.303710938 408.370117188 260.79296875 400 263.436523438 c 0
 373.127929688 272.6875 357.708984375 284.581054688 354.625976562 297.796875 c 0
 350.661132812 316.740234375 362.114257812 334.801757812 385.462890625 346.255859375 c 0
 396.475585938 351.541992188 407.9296875 358.149414062 411.013671875 361.233398438 c 0
 421.5859375 370.484375 444.493164062 385.903320312 448.8984375 385.903320312 c 0
 451.1015625 385.903320312 466.959960938 396.916015625 484.140625 410.572265625 c 0
 501.321289062 423.788085938 529.515625 443.612304688 546.696289062 454.184570312 c 0
 576.65234375 472.6875 578.854492188 473.127929688 590.30859375 467.401367188 c 0
 601.76171875 461.233398438 603.524414062 461.673828125 621.5859375 476.211914062 c 0
EndSplineSet
Validated: 33
EndChar

StartChar: uni3051
Encoding: 9265 12369 16
Width: 1000
VWidth: 0
HStem: 353.098 43.8047<704.249 752.424>
LayerCount: 2
Fore
SplineSet
662.389648438 508.849609375 m 0
 673.008789062 519.911132812 674.778320312 520.353515625 687.610351562 515.043945312 c 2
 701.327148438 509.291992188 l 1
 700.442382812 474.3359375 l 2
 700 455.309570312 699.115234375 431.858398438 698.23046875 422.56640625 c 0
 697.344726562 413.274414062 697.788085938 403.982421875 699.115234375 401.76953125 c 0
 700.442382812 400 711.504882812 397.344726562 723.451171875 396.90234375 c 0
 738.938476562 396.017578125 747.788085938 392.919921875 752.655273438 386.725585938 c 0
 759.291992188 378.760742188 758.849609375 377.43359375 746.459960938 365.486328125 c 0
 738.052734375 357.96484375 728.318359375 353.09765625 720.796875 353.09765625 c 0
 711.061523438 353.09765625 707.522460938 350.884765625 706.194335938 343.36328125 c 0
 705.309570312 337.610351562 702.211914062 322.124023438 699.557617188 308.849609375 c 0
 696.90234375 295.575195312 693.805664062 266.814453125 692.477539062 244.690429688 c 0
 689.823242188 201.327148438 679.203125 116.814453125 673.008789062 92.03515625 c 0
 664.6015625 58.849609375 650 9.734375 646.459960938 1.3271484375 c 0
 644.248046875 -3.5400390625 639.380859375 -14.6015625 635.840820312 -23.0087890625 c 0
 615.486328125 -70.353515625 609.734375 -80.0888671875 596.90234375 -84.9560546875 c 0
 585.3984375 -89.8232421875 583.185546875 -89.380859375 575.6640625 -80.0888671875 c 0
 566.814453125 -68.583984375 567.69921875 -63.716796875 582.743164062 -41.150390625 c 0
 588.495117188 -32.7431640625 594.248046875 -18.1416015625 595.575195312 -8.849609375 c 0
 597.344726562 0.4423828125 600 9.2919921875 602.211914062 10.1767578125 c 0
 603.982421875 11.5048828125 607.080078125 22.1240234375 608.849609375 33.6279296875 c 0
 610.176757812 45.1328125 613.274414062 56.63671875 615.043945312 58.849609375 c 0
 617.256835938 61.5048828125 619.911132812 73.451171875 621.239257812 85.8408203125 c 0
 622.56640625 98.23046875 625.221679688 113.274414062 627.43359375 119.026367188 c 0
 633.185546875 134.513671875 637.16796875 165.043945312 639.380859375 209.734375 c 0
 640.265625 231.416015625 642.03515625 269.911132812 643.805664062 295.575195312 c 0
 645.1328125 321.239257812 644.690429688 344.690429688 642.477539062 347.788085938 c 0
 639.380859375 352.211914062 617.256835938 354.424804688 559.291992188 356.194335938 c 0
 515.9296875 357.522460938 476.548828125 358.849609375 472.124023438 359.291992188 c 0
 467.256835938 359.291992188 462.83203125 365.043945312 460.176757812 375.221679688 c 0
 453.982421875 396.90234375 454.424804688 402.211914062 463.716796875 408.849609375 c 0
 474.3359375 417.256835938 539.380859375 416.814453125 593.36328125 407.522460938 c 0
 643.805664062 399.557617188 646.459960938 400.442382812 643.805664062 427.875976562 c 0
 641.150390625 456.194335938 650 496.017578125 662.389648438 508.849609375 c 0
327.43359375 422.56640625 m 0
 335.840820312 429.203125 356.194335938 429.646484375 367.69921875 423.893554688 c 0
 377.875976562 418.141601562 379.203125 396.459960938 369.46875 388.495117188 c 0
 338.938476562 363.274414062 325.6640625 284.0703125 333.627929688 179.646484375 c 0
 335.840820312 151.76953125 340.708007812 137.610351562 356.194335938 116.372070312 c 0
 361.947265625 107.96484375 361.947265625 106.194335938 355.751953125 97.3447265625 c 0
 347.344726562 84.9560546875 326.106445312 84.513671875 314.159179688 96.4599609375 c 0
 309.291992188 101.327148438 299.557617188 116.372070312 292.477539062 130.088867188 c 0
 282.30078125 150.442382812 279.646484375 161.061523438 278.760742188 192.919921875 c 0
 277.875976562 214.159179688 277.43359375 236.283203125 277.875976562 242.477539062 c 0
 279.646484375 281.416015625 283.185546875 310.176757812 286.725585938 314.6015625 c 0
 290.708007812 319.46875 296.90234375 342.03515625 298.672851562 357.522460938 c 0
 300.884765625 377.43359375 317.256835938 414.159179688 327.43359375 422.56640625 c 0
EndSplineSet
Validated: 33
EndChar

StartChar: uni3052
Encoding: 9266 12370 17
Width: 1000
VWidth: 0
HStem: 343.612 52.8633<415.724 566.423>
VStem: 198.679 56.8281<19.8635 301.66> 211.895 78.8545<289.868 384.141> 533.04 53.7441<-35.5405 75.6764> 569.604 48.8984<49.2095 340.679> 570.484 61.2334<124.783 341.845> 713.656 64.3174<431.458 535.597> 814.978 66.5205<391.63 451.982>
LayerCount: 2
Fore
SplineSet
728.634765625 536.563476562 m 0x83
 736.123046875 541.41015625 768.282226562 535.2421875 772.6875 527.752929688 c 0
 774.44921875 524.229492188 777.092773438 505.286132812 777.973632812 485.903320312 c 0
 779.294921875 457.708984375 781.498046875 448.458007812 788.545898438 440.96875 c 0
 793.391601562 435.682617188 797.356445312 428.193359375 797.356445312 424.229492188 c 0
 797.356445312 401.76171875 752.86328125 388.545898438 746.255859375 409.250976562 c 0
 744.493164062 414.537109375 741.850585938 419.82421875 740.528320312 421.145507812 c 0
 735.682617188 424.229492188 713.65625 494.2734375 713.65625 504.845703125 c 0
 713.65625 515.418945312 721.5859375 532.158203125 728.634765625 536.563476562 c 0x83
852.422851562 492.951171875 m 0
 857.268554688 494.2734375 861.673828125 495.154296875 862.114257812 495.594726562 c 0
 862.995117188 495.594726562 866.079101562 491.629882812 869.603515625 486.34375 c 0
 874.44921875 478.854492188 875.330078125 471.806640625 872.6875 459.912109375 c 0
 869.603515625 447.13671875 870.484375 440.96875 877.092773438 430.396484375 c 0
 881.498046875 422.907226562 884.581054688 412.334960938 883.700195312 406.608398438 c 0
 882.37890625 401.321289062 881.498046875 394.2734375 881.498046875 391.629882812 c 0
 881.057617188 383.259765625 864.7578125 384.581054688 855.947265625 393.833007812 c 0
 825.110351562 425.110351562 814.977539062 439.647460938 814.977539062 451.982421875 c 0
 814.977539062 470.043945312 823.788085938 487.224609375 834.361328125 489.427734375 c 0
 839.647460938 490.30859375 847.577148438 492.0703125 852.422851562 492.951171875 c 0
596.03515625 459.912109375 m 0
 600 466.079101562 637.004882812 467.401367188 640.96875 461.233398438 c 0
 642.291015625 458.58984375 638.326171875 446.696289062 632.598632812 434.361328125 c 0
 626.431640625 422.026367188 622.466796875 409.250976562 623.788085938 405.7265625 c 0
 626.872070312 398.23828125 642.291015625 394.2734375 645.815429688 400 c 0
 647.577148438 402.643554688 649.779296875 402.643554688 651.541992188 400.880859375 c 0
 652.86328125 398.678710938 664.7578125 393.391601562 677.533203125 388.986328125 c 0
 717.180664062 375.330078125 730.396484375 365.198242188 742.731445312 338.766601562 c 0
 753.744140625 314.096679688 753.744140625 314.096679688 744.93359375 306.166992188 c 0
 731.27734375 293.391601562 719.3828125 296.03515625 706.166992188 314.537109375 c 0
 693.391601562 332.158203125 672.6875 341.850585938 648.017578125 341.850585938 c 0
 633.920898438 341.850585938 629.956054688 334.361328125 631.717773438 310.131835938 c 0x87
 632.598632812 301.321289062 630.396484375 293.833007812 625.991210938 290.749023438 c 0
 620.705078125 286.34375 618.942382812 274.889648438 618.501953125 231.27734375 c 0x8b
 618.501953125 201.321289062 616.740234375 170.484375 614.977539062 162.5546875 c 0
 613.215820312 155.06640625 610.131835938 129.515625 607.9296875 105.286132812 c 0
 602.203125 43.6123046875 600.440429688 35.2421875 586.784179688 -1.76171875 c 0
 576.211914062 -30.396484375 573.127929688 -34.8017578125 562.995117188 -36.123046875 c 0
 548.458007812 -37.8857421875 533.040039062 -23.7880859375 533.040039062 -8.810546875 c 0x93
 533.040039062 -2.6435546875 537.004882812 8.810546875 541.41015625 16.740234375 c 0
 545.815429688 24.669921875 551.1015625 43.171875 552.86328125 57.708984375 c 0
 556.828125 92.951171875 558.149414062 103.96484375 563.876953125 148.017578125 c 0
 566.51953125 168.72265625 569.163085938 221.145507812 569.603515625 264.7578125 c 2x8b
 570.484375 344.052734375 l 1x87
 546.255859375 343.612304688 l 2
 497.796875 342.291015625 459.03125 338.326171875 444.052734375 333.040039062 c 0
 422.907226562 325.110351562 415.418945312 329.075195312 411.89453125 350.220703125 c 0
 408.370117188 371.806640625 413.65625 378.854492188 437.885742188 383.259765625 c 0
 447.13671875 385.022460938 459.912109375 388.545898438 466.51953125 391.189453125 c 0
 472.6875 393.833007812 497.356445312 396.03515625 520.705078125 396.475585938 c 0
 544.493164062 396.916015625 564.7578125 398.678710938 566.51953125 400.440429688 c 0
 567.841796875 401.76171875 571.365234375 414.537109375 574.44921875 428.634765625 c 0
 577.533203125 446.255859375 581.498046875 454.184570312 585.903320312 454.184570312 c 0
 589.427734375 454.184570312 594.2734375 456.828125 596.03515625 459.912109375 c 0
236.123046875 382.37890625 m 0
 241.41015625 392.951171875 244.493164062 393.833007812 266.51953125 393.833007812 c 0
 288.10546875 393.391601562 290.749023438 392.510742188 290.749023438 384.140625 c 0xa3
 290.749023438 379.294921875 286.784179688 368.282226562 281.938476562 360.352539062 c 0
 276.65234375 351.982421875 270.924804688 332.158203125 268.72265625 316.299804688 c 0
 266.51953125 300 263.436523438 281.938476562 262.114257812 275.770507812 c 0
 251.541992188 233.920898438 245.815429688 133.040039062 251.982421875 94.2734375 c 0
 254.184570312 78.8544921875 255.947265625 59.03125 255.506835938 50.220703125 c 0
 255.506835938 40.96875 257.268554688 33.48046875 259.912109375 33.48046875 c 0
 262.114257812 33.48046875 268.282226562 29.515625 273.127929688 24.669921875 c 0
 280.17578125 17.62109375 281.057617188 14.0966796875 276.65234375 5.2861328125 c 0
 270.484375 -8.810546875 250.220703125 -13.65625 236.123046875 -4.845703125 c 0
 222.026367188 4.4052734375 203.083984375 46.6962890625 198.678710938 78.4140625 c 0xc3
 194.713867188 108.370117188 199.559570312 207.489257812 207.489257812 247.13671875 c 0
 210.131835938 261.673828125 212.334960938 281.057617188 211.89453125 289.868164062 c 0xa3
 211.454101562 298.678710938 213.215820312 307.048828125 215.859375 308.810546875 c 0
 218.501953125 310.572265625 219.3828125 313.215820312 218.061523438 315.418945312 c 0
 214.977539062 320.264648438 227.3125 364.7578125 236.123046875 382.37890625 c 0
EndSplineSet
Validated: 33
EndChar

StartChar: uni3053
Encoding: 9267 12371 18
Width: 1000
VWidth: 0
HStem: 123.009 1.76953<605.476 615.381> 385.841 41.5928<331.222 492.137>
VStem: 567.699 27.876<300.929 338.086>
LayerCount: 2
Fore
SplineSet
365.486328125 433.627929688 m 0
 373.451171875 441.592773438 396.017578125 440.265625 442.477539062 430.088867188 c 0
 487.610351562 419.911132812 504.8671875 414.159179688 528.760742188 399.557617188 c 0
 561.061523438 380.088867188 567.256835938 374.778320312 583.627929688 354.8671875 c 0
 595.1328125 339.823242188 597.788085938 333.627929688 595.575195312 322.124023438 c 0
 592.919921875 304.8671875 587.610351562 298.672851562 576.991210938 300.884765625 c 0
 571.681640625 301.76953125 568.583984375 306.63671875 567.69921875 315.486328125 c 0
 567.256835938 323.451171875 562.389648438 331.858398438 556.63671875 336.283203125 c 0
 550.884765625 340.708007812 544.248046875 346.017578125 541.150390625 348.672851562 c 0
 538.052734375 350.884765625 532.30078125 353.09765625 528.318359375 353.09765625 c 0
 524.3359375 353.09765625 515.043945312 355.751953125 507.522460938 359.291992188 c 0
 477.875976562 372.56640625 425.6640625 384.956054688 393.805664062 385.840820312 c 0
 345.575195312 387.16796875 340.708007812 388.052734375 340.708007812 393.36328125 c 0
 340.708007812 396.017578125 336.283203125 401.76953125 330.973632812 405.751953125 c 0
 316.814453125 417.256835938 323.008789062 428.760742188 342.919921875 427.43359375 c 0
 352.211914062 426.991210938 361.061523438 429.203125 365.486328125 433.627929688 c 0
544.248046875 107.080078125 m 0
 574.778320312 117.69921875 602.211914062 125.6640625 605.309570312 124.778320312 c 0
 608.849609375 123.893554688 613.274414062 123.008789062 615.486328125 123.008789062 c 0
 623.893554688 123.008789062 619.026367188 107.080078125 607.522460938 96.017578125 c 0
 594.248046875 84.0703125 557.522460938 65.486328125 546.459960938 65.486328125 c 0
 539.380859375 65.486328125 507.96484375 51.76953125 504.424804688 46.90234375 c 0
 503.09765625 45.1328125 473.893554688 44.248046875 439.380859375 45.1328125 c 0
 374.778320312 46.017578125 368.141601562 47.7880859375 352.655273438 67.69921875 c 0
 348.672851562 73.0087890625 353.09765625 100.884765625 359.291992188 108.849609375 c 0
 365.486328125 115.9296875 384.513671875 115.9296875 393.36328125 108.407226562 c 0
 402.211914062 101.327148438 438.495117188 92.03515625 467.69921875 89.8232421875 c 0
 484.0703125 88.4951171875 501.327148438 92.4775390625 544.248046875 107.080078125 c 0
EndSplineSet
Validated: 33
EndChar

StartChar: uni3054
Encoding: 9268 12372 19
Width: 1000
VWidth: 0
HStem: 68.7227 38.3262<529.962 574.766> 392.511 48.0176<293.26 464.593> 443.172 66.0791<593.308 625.011>
VStem: 592.511 55.0664<439.613 505.697> 721.586 41.4092<397.797 420.516 420.895 479.625>
LayerCount: 2
Fore
SplineSet
599.119140625 499.559570312 m 0
 603.96484375 504.845703125 611.454101562 509.250976562 614.977539062 509.250976562 c 0
 625.110351562 509.250976562 647.577148438 492.0703125 647.577148438 484.140625 c 0
 647.577148438 473.127929688 661.233398438 445.815429688 672.247070312 436.563476562 c 0
 681.938476562 427.752929688 684.140625 421.5859375 683.259765625 407.048828125 c 0
 682.819335938 400.880859375 678.854492188 399.119140625 665.198242188 399.119140625 c 0
 650.661132812 399.119140625 644.493164062 402.203125 629.956054688 416.740234375 c 0
 620.264648438 426.431640625 612.334960938 436.563476562 612.334960938 438.766601562 c 0
 612.334960938 441.41015625 609.69140625 443.171875 606.166992188 443.171875 c 0
 597.796875 443.171875 596.03515625 446.255859375 592.510742188 469.603515625 c 0
 590.30859375 486.34375 591.189453125 491.189453125 599.119140625 499.559570312 c 0
734.801757812 479.735351562 m 0
 751.982421875 483.259765625 767.401367188 465.638671875 769.163085938 440.96875 c 0
 769.603515625 433.920898438 770.924804688 424.669921875 772.6875 420.705078125 c 0
 774.44921875 416.740234375 770.924804688 407.9296875 762.995117188 397.796875 c 2
 750.220703125 381.938476562 l 1
 734.361328125 397.356445312 l 2
 722.026367188 409.69140625 719.3828125 414.977539062 721.5859375 422.466796875 c 0
 723.34765625 427.752929688 724.669921875 438.326171875 723.788085938 445.374023438 c 0
 722.466796875 465.638671875 725.991210938 477.533203125 734.801757812 479.735351562 c 0
351.1015625 448.8984375 m 0
 352.422851562 450.661132812 356.387695312 449.779296875 359.912109375 446.696289062 c 0
 363.436523438 444.052734375 376.211914062 440.96875 388.545898438 440.528320312 c 0
 425.110351562 438.766601562 508.370117188 405.286132812 527.752929688 384.581054688 c 0
 533.48046875 378.854492188 539.20703125 366.51953125 540.528320312 357.268554688 c 2
 543.171875 340.96875 l 1
 523.788085938 344.052734375 l 2
 513.215820312 345.815429688 498.23828125 351.541992188 491.189453125 357.268554688 c 0
 463.436523438 377.973632812 398.23828125 394.2734375 349.338867188 392.510742188 c 0
 313.215820312 391.629882812 296.916015625 383.700195312 290.30859375 363.876953125 c 0
 287.665039062 356.828125 283.259765625 350.220703125 279.735351562 349.338867188 c 0
 270.924804688 345.815429688 256.387695312 358.149414062 253.303710938 372.6875 c 0
 251.541992188 379.735351562 248.458007812 386.784179688 246.255859375 388.10546875 c 0
 239.647460938 392.510742188 241.850585938 409.250976562 250.220703125 420.264648438 c 0
 259.471679688 431.717773438 286.34375 439.647460938 336.123046875 444.93359375 c 0
 342.731445312 445.374023438 349.338867188 447.577148438 351.1015625 448.8984375 c 0
289.868164062 116.740234375 m 0
 302.643554688 124.229492188 320.264648438 122.026367188 333.48046875 111.013671875 c 0
 353.303710938 94.7138671875 363.876953125 90.7490234375 394.2734375 87.6650390625 c 0
 410.131835938 86.34375 423.788085938 83.7001953125 425.110351562 81.9384765625 c 0
 425.991210938 80.6171875 440.087890625 81.0576171875 456.828125 83.259765625 c 0
 473.127929688 85.462890625 492.510742188 86.7841796875 499.559570312 86.7841796875 c 0
 511.89453125 86.7841796875 537.4453125 98.23828125 537.4453125 104.405273438 c 0
 537.4453125 105.7265625 545.374023438 107.048828125 555.06640625 107.048828125 c 0
 570.043945312 107.048828125 573.127929688 105.7265625 575.330078125 96.4755859375 c 0
 577.973632812 85.9033203125 565.638671875 68.72265625 555.06640625 68.72265625 c 0
 552.86328125 68.72265625 550.661132812 65.638671875 550.661132812 62.1142578125 c 0
 550.661132812 58.58984375 549.338867188 55.947265625 547.577148438 56.3876953125 c 0
 545.374023438 56.828125 537.885742188 54.1845703125 530.836914062 50.220703125 c 0
 511.89453125 40.087890625 445.815429688 28.634765625 425.110351562 31.7177734375 c 0
 420.264648438 32.5986328125 405.286132812 33.9208984375 392.0703125 35.2421875 c 0
 378.854492188 36.5634765625 361.673828125 39.20703125 353.744140625 41.8505859375 c 0
 345.815429688 44.052734375 336.123046875 44.93359375 331.717773438 44.052734375 c 0
 326.872070312 42.7314453125 319.82421875 45.3740234375 315.418945312 50.6611328125 c 0
 310.572265625 55.947265625 304.845703125 59.912109375 302.203125 59.912109375 c 0
 284.140625 59.912109375 274.008789062 107.489257812 289.868164062 116.740234375 c 0
EndSplineSet
Validated: 33
EndChar

StartChar: uni3055
Encoding: 9269 12373 20
Width: 1000
VWidth: 0
HStem: -40.5283 31.2773<445.355 553.939> -34.8018 85.9033<377.533 422.907>
VStem: 290.749 52.8633<57.3772 75.2446> 493.392 44.0537<540.295 572.916> 537.005 44.9336<169.56 395.932> 537.005 37.8848<170.145 388.065>
LayerCount: 2
Fore
SplineSet
499.119140625 572.247070312 m 0x30
 518.501953125 580.17578125 537.4453125 562.5546875 537.4453125 536.123046875 c 0x30
 537.4453125 526.872070312 539.20703125 518.061523438 541.850585938 515.418945312 c 0
 544.052734375 513.215820312 548.458007812 499.559570312 551.1015625 485.022460938 c 0
 559.03125 441.850585938 564.7578125 437.4453125 621.145507812 432.598632812 c 0
 687.665039062 426.431640625 695.154296875 424.669921875 700 413.65625 c 0
 708.370117188 395.154296875 699.119140625 388.545898438 669.603515625 392.0703125 c 0
 656.387695312 393.833007812 632.598632812 396.03515625 616.740234375 397.356445312 c 2
 588.10546875 400 l 1
 583.700195312 385.022460938 l 2
 581.057617188 377.092773438 580.6171875 362.5546875 581.938476562 352.86328125 c 0x28
 586.784179688 324.229492188 585.022460938 212.775390625 579.735351562 205.7265625 c 0
 577.092773438 202.203125 574.889648438 192.510742188 574.889648438 183.700195312 c 0x24
 574.889648438 168.72265625 574.008789062 167.841796875 561.673828125 169.163085938 c 0
 541.850585938 171.365234375 535.2421875 180.17578125 537.004882812 201.76171875 c 0x28
 539.647460938 233.920898438 539.20703125 281.057617188 535.682617188 317.62109375 c 0
 533.48046875 337.004882812 531.717773438 359.03125 531.27734375 366.079101562 c 0
 529.515625 391.629882812 528.634765625 393.833007812 520.264648438 396.03515625 c 0
 515.418945312 397.356445312 510.131835938 396.916015625 508.810546875 395.154296875 c 0
 507.048828125 393.833007812 484.581054688 390.30859375 459.03125 387.224609375 c 0
 433.040039062 384.581054688 407.9296875 381.498046875 403.083984375 380.17578125 c 0
 397.796875 378.854492188 382.37890625 376.65234375 367.841796875 374.889648438 c 0
 353.303710938 372.6875 335.2421875 368.72265625 327.3125 365.198242188 c 0
 319.3828125 362.114257812 312.775390625 360.79296875 312.775390625 362.114257812 c 0
 312.775390625 363.876953125 310.131835938 362.995117188 307.489257812 360.79296875 c 0
 304.405273438 358.149414062 293.833007812 353.744140625 284.140625 350.661132812 c 0
 274.44921875 347.577148438 263.876953125 343.171875 260.79296875 340.528320312 c 0
 253.744140625 334.801757812 209.250976562 338.766601562 200.880859375 345.815429688 c 0
 192.510742188 352.86328125 191.629882812 377.533203125 199.119140625 385.022460938 c 0
 205.7265625 391.629882812 224.669921875 392.0703125 224.669921875 385.903320312 c 0
 224.669921875 383.700195312 228.634765625 385.462890625 233.040039062 389.868164062 c 0
 248.8984375 405.7265625 269.163085938 412.775390625 300.880859375 414.537109375 c 0
 333.920898438 416.740234375 345.374023438 418.061523438 356.828125 422.466796875 c 0
 360.352539062 423.788085938 373.568359375 425.991210938 385.462890625 427.3125 c 0
 397.796875 428.634765625 423.34765625 432.598632812 442.291015625 436.123046875 c 0
 461.673828125 439.647460938 478.4140625 441.850585938 480.17578125 440.96875 c 0
 481.498046875 440.087890625 488.986328125 442.291015625 496.475585938 446.255859375 c 0
 508.370117188 451.541992188 509.69140625 454.184570312 506.608398438 462.114257812 c 0
 498.23828125 483.700195312 484.581054688 532.158203125 484.581054688 540.087890625 c 0
 484.581054688 544.493164062 486.784179688 549.779296875 488.986328125 551.1015625 c 0
 491.629882812 552.422851562 493.391601562 557.708984375 493.391601562 562.114257812 c 0
 493.391601562 566.51953125 496.03515625 571.365234375 499.119140625 572.247070312 c 0x30
300.880859375 105.286132812 m 0
 329.075195312 110.572265625 343.612304688 104.845703125 343.612304688 88.10546875 c 0
 343.612304688 76.65234375 366.959960938 51.1015625 377.533203125 51.1015625 c 0x60
 380.6171875 51.1015625 383.259765625 48.4580078125 383.259765625 44.93359375 c 0
 383.259765625 41.8505859375 386.784179688 37.4453125 391.189453125 36.123046875 c 0
 395.154296875 34.361328125 407.9296875 27.7529296875 418.942382812 21.1455078125 c 0
 465.198242188 -6.1669921875 468.282226562 -7.048828125 506.166992188 -9.2509765625 c 0
 544.052734375 -11.4541015625 555.06640625 -16.2998046875 555.06640625 -31.27734375 c 0
 555.06640625 -48.017578125 491.189453125 -53.744140625 452.86328125 -40.5283203125 c 0xa0
 438.766601562 -35.6826171875 425.55078125 -33.48046875 422.907226562 -34.8017578125 c 0x60
 420.264648438 -36.5634765625 414.537109375 -34.8017578125 410.572265625 -31.27734375 c 0
 406.608398438 -27.3125 394.2734375 -21.1455078125 383.259765625 -16.740234375 c 0
 372.247070312 -12.775390625 355.506835938 -3.083984375 345.815429688 4.4052734375 c 0
 336.123046875 11.89453125 325.55078125 19.82421875 322.026367188 22.466796875 c 0
 304.845703125 35.2421875 290.749023438 53.3037109375 290.749023438 62.1142578125 c 0
 290.749023438 67.841796875 288.986328125 73.568359375 286.784179688 75.330078125 c 0
 279.294921875 79.7353515625 290.749023438 103.083984375 300.880859375 105.286132812 c 0
EndSplineSet
Validated: 33
EndChar

StartChar: uni3056
Encoding: 9270 12374 21
Width: 1000
VWidth: 0
HStem: -28.1934 27.7529<532.174 559.729> 366.079 36.124<566.278 648.146>
VStem: 341.851 52.4229<52.9871 132.103> 519.383 44.4941<213.82 352.416> 774.449 46.6963<375.784 476.631>
LayerCount: 2
Fore
SplineSet
481.057617188 535.682617188 m 0
 492.951171875 554.184570312 517.62109375 543.171875 521.145507812 518.061523438 c 0
 522.466796875 509.69140625 528.193359375 488.986328125 534.801757812 471.806640625 c 0
 540.96875 455.06640625 546.255859375 434.801757812 546.255859375 426.872070312 c 0
 546.255859375 406.608398438 548.017578125 405.7265625 609.69140625 402.203125 c 0
 632.158203125 400.440429688 641.850585938 397.796875 648.458007812 391.189453125 c 0
 657.268554688 382.819335938 657.268554688 382.37890625 646.696289062 373.127929688 c 0
 637.885742188 364.317382812 633.48046875 363.436523438 607.9296875 366.079101562 c 0
 566.959960938 370.043945312 561.233398438 365.198242188 568.282226562 331.27734375 c 0
 572.247070312 312.775390625 572.247070312 304.405273438 568.72265625 300.880859375 c 0
 566.079101562 298.23828125 563.876953125 286.34375 563.876953125 274.889648438 c 0
 563.876953125 252.422851562 546.696289062 212.334960938 535.2421875 207.9296875 c 0
 526.431640625 204.845703125 519.3828125 215.859375 519.3828125 232.598632812 c 0
 519.3828125 240.528320312 519.3828125 262.114257812 519.3828125 280.6171875 c 0
 519.82421875 300.880859375 517.62109375 318.501953125 514.096679688 324.669921875 c 0
 493.391601562 361.673828125 492.0703125 362.995117188 471.365234375 364.7578125 c 0
 438.326171875 367.841796875 298.23828125 349.779296875 258.149414062 337.004882812 c 0
 222.466796875 325.991210938 192.510742188 337.004882812 194.713867188 360.79296875 c 0
 196.03515625 374.889648438 196.03515625 374.889648438 220.264648438 374.44921875 c 0
 234.801757812 374.008789062 240.96875 374.889648438 235.682617188 377.092773438 c 0
 227.752929688 379.735351562 228.193359375 380.6171875 240.528320312 387.224609375 c 0
 255.506835938 394.713867188 276.211914062 397.796875 339.20703125 401.76171875 c 0
 362.114257812 403.083984375 389.868164062 405.286132812 400.880859375 406.608398438 c 0
 411.89453125 407.489257812 435.682617188 408.810546875 453.744140625 409.69140625 c 0
 471.806640625 410.572265625 488.10546875 411.454101562 490.30859375 411.89453125 c 0
 496.475585938 412.775390625 493.391601562 438.326171875 484.140625 459.471679688 c 0
 473.568359375 483.259765625 472.247070312 521.5859375 481.057617188 535.682617188 c 0
659.912109375 472.247070312 m 0
 663.876953125 475.770507812 674.008789062 477.973632812 682.37890625 477.092773438 c 0
 696.03515625 476.211914062 697.796875 474.44921875 703.96484375 455.06640625 c 0
 707.489257812 443.612304688 718.061523438 425.55078125 727.3125 414.977539062 c 0
 754.625976562 384.140625 754.184570312 366.959960938 725.991210938 363.436523438 c 0
 718.061523438 362.114257812 711.013671875 365.198242188 703.96484375 372.6875 c 0
 697.796875 378.854492188 686.784179688 388.545898438 679.294921875 394.713867188 c 0
 655.06640625 413.65625 643.612304688 459.912109375 659.912109375 472.247070312 c 0
784.581054688 470.043945312 m 0
 808.810546875 488.545898438 823.788085938 475.330078125 821.145507812 436.563476562 c 0
 820.264648438 416.299804688 821.5859375 407.048828125 828.193359375 396.03515625 c 0
 840.528320312 375.330078125 836.123046875 367.841796875 813.65625 370.924804688 c 0
 791.629882812 373.568359375 782.819335938 381.498046875 774.44921875 407.9296875 c 0
 766.51953125 433.48046875 770.484375 459.471679688 784.581054688 470.043945312 c 0
362.5546875 131.717773438 m 0
 381.498046875 140.528320312 386.34375 135.2421875 394.2734375 97.796875 c 0
 400 70.9248046875 403.083984375 65.638671875 425.991210938 41.8505859375 c 0
 456.387695312 10.572265625 477.533203125 -3.5244140625 488.986328125 -0.4404296875 c 0
 493.391601562 0.880859375 501.76171875 -1.3212890625 507.048828125 -5.2861328125 c 0
 516.299804688 -11.4541015625 517.180664062 -11.4541015625 522.907226562 -3.5244140625 c 0
 527.3125 3.083984375 532.158203125 4.845703125 546.255859375 3.5244140625 c 0
 559.912109375 2.203125 563.876953125 0 562.114257812 -4.845703125 c 0
 560.79296875 -8.3701171875 559.471679688 -14.9775390625 559.471679688 -19.82421875 c 0
 559.471679688 -24.2294921875 556.387695312 -28.193359375 552.86328125 -28.193359375 c 0
 549.338867188 -28.193359375 546.255859375 -29.9560546875 546.255859375 -31.7177734375 c 0
 546.255859375 -33.9208984375 538.326171875 -39.20703125 528.634765625 -43.6123046875 c 0
 502.203125 -55.5068359375 459.03125 -51.1015625 437.885742188 -34.361328125 c 0
 429.515625 -27.3125 416.740234375 -18.501953125 409.250976562 -14.537109375 c 0
 375.770507812 4.4052734375 345.815429688 45.3740234375 341.850585938 79.294921875 c 0
 338.766601562 108.810546875 344.052734375 122.466796875 362.5546875 131.717773438 c 0
EndSplineSet
Validated: 33
EndChar

StartChar: uni3057
Encoding: 9271 12375 22
Width: 1000
VWidth: 0
VStem: 297.356 47.1367<267.485 512.603>
LayerCount: 2
Fore
SplineSet
324.669921875 517.62109375 m 0
 329.075195312 520.264648438 335.2421875 521.145507812 338.326171875 520.264648438 c 0
 341.850585938 518.942382812 348.017578125 518.061523438 352.86328125 518.061523438 c 0
 360.352539062 518.061523438 361.233398438 515.418945312 359.471679688 492.951171875 c 0
 358.149414062 478.854492188 355.06640625 461.673828125 352.422851562 454.184570312 c 0
 349.338867188 447.13671875 345.815429688 436.123046875 344.493164062 429.956054688 c 0
 340.528320312 412.334960938 340.96875 275.330078125 344.493164062 272.6875 c 0
 346.696289062 271.806640625 347.13671875 269.163085938 345.815429688 267.401367188 c 0
 344.93359375 265.198242188 348.017578125 253.303710938 352.86328125 240.087890625 c 0
 358.149414062 226.872070312 365.198242188 207.489257812 369.163085938 196.475585938 c 0
 379.735351562 166.079101562 395.594726562 143.612304688 410.131835938 138.326171875 c 0
 417.180664062 136.123046875 422.907226562 132.158203125 422.907226562 129.956054688 c 0
 422.907226562 122.466796875 460.352539062 125.991210938 475.770507812 134.801757812 c 0
 484.140625 139.647460938 499.119140625 147.577148438 508.810546875 152.422851562 c 0
 518.501953125 156.828125 533.040039062 165.638671875 541.41015625 171.806640625 c 0
 549.779296875 178.4140625 558.58984375 183.259765625 560.79296875 183.259765625 c 0
 562.995117188 183.259765625 572.247070312 188.545898438 581.057617188 195.154296875 c 0
 612.775390625 219.3828125 628.193359375 224.229492188 632.598632812 211.89453125 c 0
 638.326171875 197.796875 569.163085938 133.920898438 529.956054688 116.299804688 c 0
 519.82421875 111.89453125 509.250976562 104.845703125 507.048828125 100.440429688 c 0
 504.845703125 96.4755859375 501.76171875 94.2734375 500 96.03515625 c 0
 498.678710938 97.3564453125 485.903320312 94.7138671875 472.247070312 89.8681640625 c 0
 458.58984375 85.0224609375 440.087890625 80.6171875 431.717773438 79.7353515625 c 0
 413.215820312 77.9736328125 377.092773438 92.5107421875 359.912109375 107.9296875 c 0
 345.815429688 120.705078125 321.5859375 166.079101562 321.5859375 179.294921875 c 0
 321.5859375 183.700195312 319.82421875 187.665039062 317.62109375 187.665039062 c 0
 315.418945312 187.665039062 312.334960938 198.23828125 310.572265625 211.013671875 c 0
 308.810546875 223.34765625 305.7265625 236.123046875 303.524414062 238.326171875 c 0
 292.951171875 251.982421875 289.427734375 363.436523438 297.356445312 446.696289062 c 0
 300.440429688 478.854492188 312.775390625 510.572265625 324.669921875 517.62109375 c 0
EndSplineSet
Validated: 33
EndChar

StartChar: uni3058
Encoding: 9272 12376 23
Width: 1000
VWidth: 0
HStem: 127.753 51.1016<381.707 508.549>
VStem: 298.679 47.1367<279.153 522.746> 669.163 49.3389<473.45 545.768> 790.309 51.542<424.656 517.374>
LayerCount: 2
Fore
SplineSet
686.34375 545.815429688 m 0
 690.30859375 547.13671875 695.154296875 548.017578125 697.356445312 548.458007812 c 0
 700.880859375 548.8984375 717.62109375 533.040039062 718.501953125 528.193359375 c 0
 718.942382812 525.991210938 719.3828125 518.061523438 720.264648438 510.572265625 c 0
 721.5859375 492.0703125 733.040039062 474.889648438 747.13671875 469.603515625 c 0
 759.471679688 464.7578125 759.912109375 461.673828125 750.661132812 448.458007812 c 0
 737.004882812 429.075195312 723.788085938 428.193359375 697.356445312 444.052734375 c 0
 676.211914062 456.828125 673.127929688 460.79296875 666.51953125 482.37890625 c 0
 659.912109375 505.286132812 660.352539062 506.608398438 669.163085938 525.110351562 c 0
 674.44921875 535.2421875 681.938476562 544.93359375 686.34375 545.815429688 c 0
319.3828125 522.907226562 m 0
 353.744140625 530.396484375 354.625976562 528.193359375 345.815429688 449.338867188 c 0
 341.850585938 413.65625 337.4453125 382.37890625 336.123046875 380.17578125 c 0
 334.801757812 377.973632812 336.563476562 371.365234375 339.647460938 365.198242188 c 0
 344.052734375 357.268554688 344.052734375 353.744140625 340.087890625 351.1015625 c 0
 336.563476562 348.8984375 336.123046875 339.647460938 339.647460938 315.418945312 c 0
 341.850585938 297.356445312 344.93359375 274.889648438 345.815429688 265.638671875 c 0
 350.661132812 226.431640625 387.665039062 184.140625 423.788085938 176.211914062 c 0
 437.4453125 173.127929688 447.577148438 172.247070312 448.458007812 174.889648438 c 0
 449.338867188 177.092773438 455.947265625 178.854492188 463.436523438 178.854492188 c 0
 470.924804688 178.854492188 485.022460938 184.581054688 496.475585938 192.0703125 c 0
 507.048828125 199.559570312 516.740234375 205.286132812 518.061523438 205.286132812 c 0
 518.942382812 205.286132812 523.34765625 208.810546875 527.752929688 213.215820312 c 0
 532.158203125 217.180664062 543.612304688 227.752929688 553.303710938 236.563476562 c 0
 562.5546875 245.374023438 576.211914062 259.03125 583.259765625 266.51953125 c 0
 597.356445312 281.498046875 608.370117188 283.700195312 616.740234375 273.568359375 c 0
 622.466796875 266.51953125 618.942382812 249.338867188 611.013671875 249.338867188 c 0
 607.9296875 249.338867188 600 237.4453125 593.391601562 222.907226562 c 0
 585.903320312 207.489257812 577.533203125 195.594726562 572.247070312 194.2734375 c 0
 566.959960938 192.510742188 553.303710938 182.37890625 541.41015625 170.924804688 c 0
 506.608398438 138.326171875 489.427734375 130.836914062 443.171875 127.752929688 c 0
 405.7265625 125.110351562 400.880859375 125.55078125 377.533203125 136.563476562 c 0
 363.436523438 142.731445312 352.422851562 150.661132812 352.422851562 154.625976562 c 0
 352.422851562 158.149414062 347.577148438 162.114257812 341.41015625 163.876953125 c 0
 328.193359375 166.959960938 308.370117188 189.427734375 308.370117188 200.880859375 c 0
 308.370117188 204.845703125 305.7265625 211.013671875 302.203125 213.65625 c 0
 281.498046875 230.836914062 279.294921875 414.096679688 298.678710938 490.30859375 c 0
 305.7265625 517.62109375 307.9296875 520.705078125 319.3828125 522.907226562 c 0
800 517.62109375 m 0
 814.096679688 528.634765625 833.48046875 529.515625 841.850585938 519.82421875 c 0
 846.255859375 514.537109375 846.255859375 510.131835938 841.850585938 497.796875 c 0
 837.004882812 484.140625 837.4453125 480.17578125 848.458007812 457.708984375 c 0
 860.352539062 432.158203125 859.912109375 424.669921875 844.93359375 415.418945312 c 0
 841.41015625 412.775390625 833.48046875 412.334960938 826.872070312 414.096679688 c 0
 806.608398438 418.942382812 780.6171875 473.127929688 788.545898438 493.833007812 c 0
 790.749023438 499.559570312 791.629882812 504.845703125 790.30859375 506.166992188 c 0
 788.986328125 507.489257812 793.391601562 512.334960938 800 517.62109375 c 0
EndSplineSet
Validated: 33
EndChar

StartChar: uni3059
Encoding: 9273 12377 24
Width: 1000
VWidth: 0
HStem: 431.718 44.0527<629.053 750.76>
VStem: 415.419 55.9463<144.069 244.055> 540.969 40.5293<-20.9733 32.8696> 560.793 47.1367<492.608 589.785> 576.212 53.7441<363.901 431.882> 603.965 39.207<107.811 231.397>
LayerCount: 2
Fore
SplineSet
566.51953125 589.868164062 m 0xd0
 591.189453125 596.03515625 598.678710938 593.391601562 607.9296875 574.44921875 c 0xd0
 612.775390625 564.317382812 616.740234375 550.220703125 616.740234375 543.612304688 c 0
 616.740234375 536.563476562 619.82421875 523.788085938 623.34765625 514.977539062 c 0
 626.872070312 506.608398438 629.956054688 496.03515625 629.956054688 491.629882812 c 0
 629.956054688 477.973632812 647.577148438 473.568359375 691.629882812 475.770507812 c 0
 714.537109375 476.65234375 737.4453125 478.4140625 742.291015625 479.294921875 c 0
 749.338867188 480.17578125 751.541992188 477.973632812 752.422851562 466.959960938 c 0
 754.184570312 450.220703125 745.815429688 442.731445312 723.788085938 440.087890625 c 0
 714.977539062 439.20703125 705.286132812 436.563476562 702.643554688 434.361328125 c 0
 700 432.158203125 682.37890625 430.836914062 663.876953125 431.717773438 c 0
 645.374023438 432.158203125 629.956054688 431.717773438 629.956054688 430.396484375 c 0xc8
 629.956054688 429.075195312 627.752929688 405.286132812 625.110351562 378.4140625 c 0
 620.705078125 329.075195312 620.705078125 328.634765625 631.27734375 317.180664062 c 0
 650.220703125 296.916015625 658.58984375 226.872070312 648.8984375 172.247070312 c 0
 645.815429688 155.506835938 643.171875 136.563476562 643.171875 131.27734375 c 0
 643.171875 121.5859375 620.705078125 70.0439453125 592.0703125 14.9775390625 c 0
 586.34375 3.083984375 581.498046875 -8.810546875 581.498046875 -12.3349609375 c 0
 581.498046875 -21.1455078125 573.568359375 -22.9072265625 550.661132812 -19.82421875 c 0
 528.634765625 -16.740234375 527.3125 -12.3349609375 540.96875 14.0966796875 c 0
 587.224609375 100.880859375 602.643554688 145.374023438 603.96484375 196.475585938 c 0xe4
 604.405273438 217.180664062 603.083984375 233.48046875 600.880859375 233.48046875 c 0
 598.678710938 233.040039062 590.30859375 219.3828125 582.37890625 202.643554688 c 0
 574.008789062 185.903320312 562.995117188 167.401367188 557.268554688 161.233398438 c 0
 551.982421875 155.06640625 544.052734375 144.052734375 540.528320312 136.563476562 c 0
 536.563476562 129.075195312 526.431640625 117.180664062 517.62109375 110.131835938 c 0
 508.810546875 103.083984375 496.03515625 92.951171875 488.986328125 87.6650390625 c 0
 465.198242188 68.2822265625 444.052734375 78.8544921875 422.907226562 120.705078125 c 0
 414.537109375 136.563476562 413.65625 144.052734375 415.418945312 168.72265625 c 0
 416.740234375 184.581054688 420.264648438 200 422.466796875 202.203125 c 0
 425.110351562 204.845703125 427.3125 212.334960938 427.3125 218.942382812 c 0
 427.3125 225.55078125 429.075195312 232.158203125 431.27734375 233.920898438 c 0
 433.48046875 235.2421875 438.766601562 246.696289062 443.171875 259.471679688 c 0
 452.86328125 289.427734375 459.912109375 299.559570312 487.665039062 327.3125 c 0
 513.65625 353.744140625 537.004882812 365.198242188 559.912109375 364.317382812 c 2
 576.211914062 363.436523438 l 1xc8
 576.65234375 400.880859375 l 1
 577.092773438 438.766601562 l 1
 565.198242188 439.647460938 l 2
 539.20703125 440.96875 500 437.885742188 496.03515625 433.920898438 c 0
 493.391601562 431.717773438 481.938476562 429.956054688 470.043945312 429.956054688 c 0
 458.58984375 429.956054688 444.93359375 427.752929688 440.087890625 425.110351562 c 0
 432.158203125 421.145507812 379.735351562 407.9296875 366.959960938 407.048828125 c 0
 363.876953125 406.608398438 361.233398438 404.845703125 361.233398438 403.083984375 c 0
 361.233398438 401.321289062 349.779296875 396.475585938 336.123046875 392.0703125 c 0
 322.026367188 388.10546875 307.489257812 383.259765625 303.96484375 381.498046875 c 0
 300 379.735351562 290.30859375 376.65234375 281.938476562 374.889648438 c 0
 273.568359375 373.127929688 264.7578125 370.043945312 262.114257812 368.282226562 c 0
 258.58984375 365.638671875 203.083984375 350.661132812 196.916015625 350.661132812 c 0
 195.594726562 350.661132812 193.833007812 355.06640625 192.510742188 360.352539062 c 0
 191.629882812 366.079101562 189.427734375 373.568359375 187.665039062 377.092773438 c 0
 185.903320312 381.938476562 189.427734375 385.903320312 199.119140625 391.189453125 c 0
 221.145507812 402.203125 256.828125 417.180664062 267.401367188 419.3828125 c 0
 278.4140625 421.5859375 346.255859375 444.052734375 360.352539062 450.220703125 c 0
 368.282226562 453.744140625 385.903320312 457.708984375 400 459.03125 c 0
 413.65625 460.79296875 427.752929688 463.876953125 430.836914062 466.51953125 c 0
 433.920898438 468.72265625 440.528320312 471.365234375 446.255859375 472.247070312 c 0
 451.541992188 472.6875 470.924804688 475.770507812 488.986328125 478.4140625 c 0
 507.048828125 481.057617188 533.920898438 484.581054688 548.458007812 486.34375 c 0
 579.294921875 489.868164062 581.938476562 495.594726562 570.484375 529.515625 c 0
 566.51953125 540.96875 562.5546875 558.58984375 560.79296875 569.163085938 c 0
 558.58984375 585.022460938 559.471679688 588.10546875 566.51953125 589.868164062 c 0xd0
562.114257812 287.224609375 m 0
 561.673828125 303.083984375 560.79296875 304.405273438 548.458007812 305.286132812 c 0
 523.34765625 307.489257812 512.334960938 296.475585938 491.629882812 249.338867188 c 0
 482.819335938 229.075195312 471.365234375 177.973632812 471.365234375 158.58984375 c 0
 471.365234375 147.13671875 473.127929688 143.612304688 479.294921875 143.612304688 c 0
 487.224609375 143.612304688 524.229492188 182.819335938 524.229492188 191.189453125 c 0
 524.229492188 193.833007812 533.040039062 212.334960938 543.612304688 233.040039062 c 0
 556.828125 259.471679688 562.5546875 274.889648438 562.114257812 287.224609375 c 0
EndSplineSet
Validated: 33
EndChar

StartChar: uni305A
Encoding: 9274 12378 25
Width: 1000
VWidth: 0
HStem: 8.37012 25.1104<507.489 534.633> 398.238 44.9336<631.726 700.952> 398.238 37.0039<631.726 704.629> 410.132 48.458<215.933 536.263>
VStem: 842.731 46.2549<431.371 515.389>
LayerCount: 2
Fore
SplineSet
772.6875 563.436523438 m 0x88
 792.510742188 567.401367188 806.166992188 566.51953125 806.608398438 561.233398438 c 0
 806.608398438 558.149414062 807.489257812 534.801757812 807.9296875 509.69140625 c 0
 808.810546875 472.247070312 810.131835938 463.436523438 816.299804688 459.912109375 c 0
 827.3125 453.744140625 825.55078125 435.682617188 813.215820312 427.752929688 c 0
 803.524414062 421.145507812 800.880859375 421.145507812 789.868164062 427.3125 c 0
 774.008789062 435.2421875 769.603515625 440.96875 762.114257812 460.79296875 c 0
 748.458007812 499.559570312 754.184570312 559.912109375 772.6875 563.436523438 c 0x88
553.303710938 552.86328125 m 0
 560.79296875 563.436523438 581.938476562 565.638671875 589.427734375 556.828125 c 0
 594.713867188 549.779296875 613.215820312 485.022460938 611.89453125 477.533203125 c 0
 608.370117188 460.352539062 626.431640625 443.171875 647.577148438 443.171875 c 0xc8
 652.422851562 443.171875 656.387695312 441.41015625 656.387695312 439.647460938 c 0
 656.387695312 437.4453125 662.5546875 435.682617188 670.484375 435.2421875 c 0xa8
 687.224609375 434.801757812 707.048828125 421.145507812 707.048828125 409.69140625 c 0
 707.048828125 397.796875 677.092773438 387.224609375 663.436523438 394.2734375 c 0
 657.708984375 397.356445312 648.458007812 399.119140625 642.731445312 398.23828125 c 0xc8
 633.920898438 397.356445312 632.158203125 394.2734375 631.27734375 379.294921875 c 0
 630.836914062 369.603515625 628.193359375 351.982421875 625.55078125 339.647460938 c 0
 622.907226562 327.752929688 619.82421875 307.489257812 618.942382812 295.154296875 c 0
 618.501953125 282.819335938 614.537109375 262.114257812 610.131835938 249.779296875 c 0
 603.524414062 229.515625 603.524414062 225.991210938 609.250976562 219.3828125 c 0
 621.145507812 205.286132812 631.27734375 134.801757812 620.705078125 134.801757812 c 0
 618.942382812 134.801757812 616.299804688 124.229492188 614.537109375 111.89453125 c 0
 609.250976562 73.568359375 576.65234375 16.740234375 552.422851562 4.4052734375 c 0
 540.96875 -1.76171875 522.466796875 0 512.334960938 8.3701171875 c 0
 503.083984375 15.4189453125 505.286132812 33.48046875 515.418945312 33.48046875 c 0
 524.669921875 33.48046875 537.885742188 45.8154296875 544.93359375 61.2333984375 c 0
 547.577148438 66.51953125 555.506835938 82.37890625 562.114257812 96.03515625 c 0
 569.163085938 109.69140625 573.568359375 122.026367188 572.247070312 123.788085938 c 0
 568.282226562 127.3125 555.06640625 121.5859375 555.06640625 115.859375 c 0
 555.06640625 109.250976562 529.075195312 74.44921875 511.013671875 56.828125 c 0
 476.211914062 22.466796875 453.303710938 22.0263671875 418.942382812 55.06640625 c 0
 377.092773438 94.7138671875 364.7578125 140.528320312 381.498046875 196.916015625 c 0
 396.475585938 246.696289062 415.418945312 272.247070312 451.1015625 289.427734375 c 0
 474.44921875 300.440429688 477.973632812 301.321289062 488.545898438 295.594726562 c 0
 495.154296875 292.510742188 507.489257812 288.545898438 516.299804688 286.784179688 c 0
 525.110351562 285.022460938 536.563476562 278.854492188 542.291015625 273.127929688 c 0
 556.387695312 258.149414062 566.51953125 259.471679688 570.043945312 277.092773438 c 0
 575.330078125 305.286132812 576.65234375 385.462890625 572.247070312 398.23828125 c 0xa8
 568.72265625 408.810546875 564.7578125 411.89453125 549.338867188 414.096679688 c 0
 539.20703125 415.859375 529.075195312 417.180664062 526.431640625 417.62109375 c 0
 511.89453125 418.501953125 329.515625 411.454101562 321.145507812 410.131835938 c 0
 300 405.7265625 292.510742188 404.405273438 275.330078125 401.321289062 c 0
 232.598632812 394.2734375 211.013671875 388.545898438 206.608398438 382.819335938 c 0
 196.475585938 370.924804688 165.638671875 379.735351562 146.255859375 400 c 0
 138.326171875 408.810546875 137.885742188 411.89453125 142.291015625 420.705078125 c 0
 152.422851562 440.087890625 203.083984375 454.184570312 279.735351562 458.58984375 c 0x98
 414.977539062 466.079101562 506.166992188 467.841796875 538.326171875 463.436523438 c 2
 563.876953125 460.352539062 l 1
 561.233398438 481.498046875 l 2
 559.471679688 492.951171875 556.828125 504.845703125 555.06640625 507.048828125 c 0
 548.017578125 516.740234375 547.13671875 543.612304688 553.303710938 552.86328125 c 0
529.515625 221.145507812 m 0
 500 240.087890625 481.057617188 244.493164062 464.7578125 236.563476562 c 0
 448.458007812 228.634765625 447.577148438 227.752929688 435.682617188 191.189453125 c 0
 422.907226562 150.661132812 426.431640625 127.752929688 449.338867188 103.524414062 c 0
 466.51953125 85.462890625 466.51953125 85.462890625 478.854492188 92.951171875 c 0
 485.462890625 96.916015625 497.356445312 110.131835938 504.405273438 122.466796875 c 0
 555.947265625 209.250976562 555.06640625 205.286132812 529.515625 221.145507812 c 0
851.982421875 515.859375 m 0
 865.198242188 529.075195312 869.603515625 529.515625 880.6171875 518.501953125 c 0
 887.224609375 511.89453125 889.427734375 503.96484375 888.986328125 487.224609375 c 0
 888.986328125 474.889648438 891.629882812 461.673828125 895.154296875 457.708984375 c 0
 899.559570312 451.982421875 899.559570312 450.220703125 895.594726562 448.8984375 c 0
 892.510742188 447.577148438 889.868164062 444.052734375 889.868164062 440.96875 c 0
 889.868164062 437.885742188 882.819335938 433.920898438 874.008789062 432.158203125 c 0
 850.661132812 428.193359375 844.93359375 436.123046875 842.731445312 473.568359375 c 0
 840.96875 502.203125 841.850585938 505.7265625 851.982421875 515.859375 c 0
EndSplineSet
Validated: 33
EndChar

StartChar: uni305B
Encoding: 9275 12379 26
Width: 1000
VWidth: 0
HStem: 319.824 64.3164<213.661 348.804> 353.744 39.207<685.263 740.005> 357.709 44.0527<662.684 739.942> 359.472 47.5771<453.955 593.609> 451.982 49.7793<454.334 481.948>
VStem: 629.956 38.7666<452.349 547.871>
LayerCount: 2
Fore
SplineSet
635.2421875 548.017578125 m 0x1c
 638.326171875 551.1015625 645.815429688 553.303710938 652.86328125 553.303710938 c 0
 670.043945312 553.303710938 675.770507812 540.087890625 672.247070312 509.69140625 c 0
 670.484375 496.03515625 668.72265625 481.938476562 668.72265625 478.4140625 c 0
 668.282226562 474.889648438 666.079101562 456.387695312 662.995117188 437.885742188 c 0
 659.03125 412.775390625 659.03125 403.524414062 662.5546875 403.083984375 c 0
 665.198242188 402.643554688 675.330078125 402.203125 685.022460938 401.76171875 c 0x2c
 694.713867188 401.321289062 705.7265625 399.559570312 709.250976562 398.23828125 c 0
 712.775390625 396.475585938 721.145507812 394.2734375 728.193359375 392.951171875 c 0
 738.326171875 390.30859375 740.087890625 388.10546875 740.087890625 374.889648438 c 0
 740.087890625 359.03125 727.3125 347.13671875 716.740234375 353.744140625 c 0x4c
 714.096679688 355.506835938 699.119140625 357.268554688 684.581054688 357.708984375 c 2x2c
 657.268554688 359.03125 l 1
 652.422851562 332.598632812 l 2
 649.338867188 318.061523438 644.493164062 305.286132812 641.41015625 303.96484375 c 0
 637.885742188 302.643554688 634.361328125 289.868164062 632.598632812 270.924804688 c 0
 629.075195312 230.836914062 614.977539062 200 601.76171875 202.643554688 c 0
 580.6171875 206.608398438 577.092773438 210.131835938 577.092773438 228.193359375 c 0
 577.092773438 237.885742188 578.854492188 248.8984375 581.057617188 252.86328125 c 0
 585.022460938 260.352539062 586.784179688 270.924804688 592.951171875 332.158203125 c 0
 596.475585938 362.995117188 600.880859375 359.912109375 550.661132812 361.673828125 c 0
 534.801757812 362.5546875 513.65625 361.233398438 503.083984375 359.471679688 c 0
 492.951171875 357.708984375 483.700195312 357.708984375 482.37890625 359.471679688 c 0x1c
 479.735351562 363.876953125 454.625976562 359.471679688 449.338867188 353.303710938 c 0
 447.13671875 350.220703125 444.493164062 339.20703125 443.171875 329.075195312 c 0
 442.291015625 318.942382812 440.528320312 309.69140625 438.766601562 307.9296875 c 0
 434.361328125 303.083984375 435.682617188 263.436523438 440.528320312 260.352539062 c 0
 443.171875 258.58984375 444.052734375 253.744140625 442.731445312 249.779296875 c 0
 438.326171875 236.123046875 473.568359375 178.854492188 486.34375 178.854492188 c 0
 488.986328125 178.854492188 493.391601562 175.330078125 496.475585938 170.484375 c 0
 505.286132812 156.387695312 542.291015625 138.326171875 566.079101562 136.123046875 c 0
 578.4140625 135.2421875 595.154296875 133.920898438 603.083984375 133.040039062 c 0
 611.454101562 132.158203125 621.5859375 133.040039062 625.110351562 134.801757812 c 0
 657.268554688 150.661132812 664.7578125 152.422851562 671.806640625 145.374023438 c 0
 681.498046875 135.682617188 680.17578125 128.193359375 665.638671875 113.65625 c 0
 657.268554688 105.7265625 645.374023438 99.5595703125 633.48046875 97.3564453125 c 0
 622.907226562 95.154296875 609.69140625 92.951171875 603.524414062 91.6298828125 c 0
 576.211914062 86.7841796875 530.396484375 88.986328125 515.418945312 96.03515625 c 0
 507.048828125 100 492.951171875 106.166992188 484.581054688 110.131835938 c 0
 459.03125 122.026367188 451.541992188 127.3125 435.682617188 145.815429688 c 0
 427.3125 155.506835938 419.82421875 164.317382812 418.501953125 165.638671875 c 0
 414.977539062 169.163085938 402.643554688 197.356445312 396.475585938 216.299804688 c 0
 391.189453125 232.598632812 388.545898438 257.268554688 386.34375 316.299804688 c 0
 385.462890625 329.956054688 384.140625 342.291015625 383.259765625 343.612304688 c 0
 381.938476562 344.493164062 363.436523438 343.612304688 341.850585938 340.96875 c 0
 315.418945312 338.326171875 298.23828125 333.920898438 290.30859375 328.193359375 c 0
 283.700195312 323.788085938 273.568359375 319.82421875 267.401367188 319.82421875 c 0
 261.673828125 319.82421875 251.541992188 315.859375 244.93359375 310.572265625 c 0
 235.682617188 303.083984375 229.956054688 302.203125 213.65625 304.845703125 c 0
 196.916015625 307.048828125 192.510742188 309.69140625 186.784179688 322.466796875 c 0
 177.092773438 342.731445312 180.17578125 352.86328125 195.154296875 351.982421875 c 0
 201.76171875 351.541992188 207.048828125 352.86328125 207.048828125 354.625976562 c 0
 207.048828125 360.352539062 243.612304688 383.700195312 253.303710938 384.140625 c 0x8c
 292.0703125 386.34375 341.850585938 391.629882812 345.374023438 393.391601562 c 0
 347.577148438 394.713867188 360.352539062 397.356445312 374.008789062 398.678710938 c 2
 398.678710938 401.321289062 l 1
 402.643554688 427.752929688 l 2
 406.608398438 457.268554688 415.859375 480.17578125 429.956054688 494.713867188 c 0
 437.885742188 503.083984375 442.291015625 504.405273438 461.673828125 501.76171875 c 0
 479.294921875 500 484.140625 497.356445312 486.34375 490.30859375 c 0
 488.986328125 480.17578125 470.484375 451.982421875 461.673828125 451.982421875 c 0
 459.03125 451.982421875 458.149414062 450.661132812 459.471679688 448.8984375 c 0
 461.233398438 447.577148438 460.79296875 444.052734375 458.58984375 441.41015625 c 0
 456.387695312 438.766601562 453.744140625 429.075195312 451.982421875 419.82421875 c 0
 448.8984375 404.405273438 449.779296875 403.524414062 456.828125 407.048828125 c 0
 461.233398438 409.69140625 492.510742188 411.454101562 526.431640625 411.454101562 c 0
 603.083984375 411.454101562 599.119140625 411.013671875 599.119140625 418.942382812 c 0
 599.119140625 422.466796875 600.880859375 425.55078125 603.083984375 425.55078125 c 0
 606.608398438 425.55078125 611.454101562 449.779296875 614.977539062 488.986328125 c 0
 616.299804688 500.880859375 619.82421875 514.537109375 623.34765625 519.82421875 c 0
 626.872070312 524.669921875 629.956054688 532.158203125 629.956054688 535.682617188 c 0
 629.956054688 539.647460938 632.158203125 544.93359375 635.2421875 548.017578125 c 0x1c
EndSplineSet
Validated: 33
EndChar

StartChar: uni305C
Encoding: 9276 12380 27
Width: 1000
VWidth: 0
HStem: 59.9121 53.7441<495.603 621.077> 325.551 47.1367<399.119 550.247>
VStem: 348.018 51.1016<372.688 430.598> 523.348 60.793<183.569 272.421> 806.167 55.0664<410.249 517.193>
LayerCount: 2
Fore
SplineSet
746.696289062 584.140625 m 0
 766.959960938 588.545898438 776.65234375 581.938476562 773.568359375 565.198242188 c 0
 771.806640625 557.708984375 768.72265625 550.220703125 766.51953125 548.8984375 c 0
 757.268554688 543.171875 761.673828125 459.912109375 771.806640625 443.171875 c 0
 774.889648438 438.326171875 780.6171875 433.040039062 784.581054688 432.158203125 c 0
 794.713867188 428.634765625 797.796875 408.370117188 790.30859375 393.833007812 c 0
 784.140625 381.938476562 775.330078125 377.092773438 775.330078125 385.903320312 c 0
 775.330078125 388.545898438 769.603515625 390.30859375 762.995117188 390.30859375 c 0
 754.625976562 390.30859375 747.577148438 394.2734375 741.41015625 402.643554688 c 0
 726.872070312 422.026367188 716.740234375 444.493164062 715.859375 458.58984375 c 0
 714.977539062 465.638671875 712.775390625 484.581054688 710.131835938 500.440429688 c 0
 707.489257812 516.299804688 706.166992188 533.48046875 707.048828125 538.766601562 c 0
 708.370117188 544.493164062 710.131835938 553.744140625 711.454101562 559.912109375 c 0
 714.096679688 571.365234375 725.55078125 579.294921875 746.696289062 584.140625 c 0
819.3828125 510.131835938 m 0
 827.752929688 518.061523438 835.2421875 522.466796875 839.647460938 520.705078125 c 0
 843.612304688 519.3828125 849.338867188 518.061523438 852.422851562 518.061523438 c 0
 864.317382812 518.061523438 867.841796875 503.083984375 861.233398438 480.6171875 c 0
 852.422851562 451.541992188 852.86328125 445.374023438 865.638671875 431.717773438 c 0
 879.294921875 417.180664062 879.294921875 416.299804688 865.198242188 399.119140625 c 0
 853.744140625 385.903320312 853.303710938 385.903320312 841.850585938 392.951171875 c 0
 835.682617188 397.356445312 825.991210938 404.845703125 821.145507812 409.69140625 c 0
 809.250976562 421.145507812 796.475585938 461.673828125 802.203125 470.043945312 c 0
 804.405273438 473.568359375 806.166992188 480.6171875 806.166992188 486.34375 c 0
 806.166992188 492.0703125 812.334960938 502.643554688 819.3828125 510.131835938 c 0
606.166992188 497.796875 m 0
 614.977539062 507.048828125 627.3125 506.608398438 636.563476562 497.356445312 c 0
 644.93359375 488.986328125 644.493164062 481.057617188 630.396484375 414.977539062 c 0
 625.110351562 391.189453125 621.5859375 370.924804688 622.026367188 370.484375 c 0
 622.907226562 369.603515625 631.717773438 365.198242188 641.850585938 359.912109375 c 0
 666.079101562 347.577148438 672.6875 336.123046875 662.995117188 321.5859375 c 0
 655.947265625 310.572265625 648.017578125 308.370117188 640.96875 314.977539062 c 0
 634.801757812 320.705078125 617.180664062 312.775390625 614.096679688 303.524414062 c 0
 612.775390625 299.119140625 607.9296875 287.665039062 603.524414062 277.973632812 c 0
 598.678710938 268.282226562 590.30859375 245.815429688 584.140625 227.752929688 c 0
 573.568359375 195.154296875 548.8984375 159.471679688 542.731445312 167.841796875 c 0
 540.96875 170.484375 535.682617188 174.44921875 530.836914062 177.092773438 c 0
 523.788085938 181.057617188 522.466796875 185.903320312 523.34765625 199.119140625 c 0
 524.229492188 208.810546875 526.431640625 218.501953125 528.634765625 220.705078125 c 0
 536.123046875 230.396484375 551.982421875 293.833007812 551.541992188 312.775390625 c 0
 551.1015625 325.55078125 548.017578125 326.431640625 507.489257812 325.55078125 c 0
 401.321289062 323.34765625 388.10546875 319.3828125 380.6171875 284.581054688 c 0
 375.770507812 261.673828125 374.889648438 186.34375 379.735351562 180.6171875 c 0
 381.938476562 177.533203125 383.259765625 173.568359375 382.819335938 171.806640625 c 0
 377.973632812 144.493164062 403.524414062 114.096679688 440.528320312 103.083984375 c 0
 462.114257812 96.4755859375 491.629882812 92.5107421875 497.796875 95.154296875 c 0
 499.119140625 95.5947265625 513.65625 96.916015625 530.396484375 97.796875 c 0
 547.13671875 98.6787109375 569.163085938 103.524414062 579.294921875 107.9296875 c 0
 589.868164062 112.775390625 599.559570312 114.977539062 601.321289062 113.65625 c 0
 603.083984375 111.89453125 606.608398438 113.65625 609.250976562 117.180664062 c 0
 619.82421875 130.396484375 656.387695312 125.55078125 656.387695312 111.013671875 c 0
 656.387695312 98.6787109375 588.545898438 59.912109375 566.959960938 59.912109375 c 0
 561.233398438 59.912109375 554.625976562 57.708984375 552.422851562 55.5068359375 c 0
 549.779296875 52.86328125 536.123046875 50.220703125 521.5859375 48.8984375 c 0
 507.489257812 48.017578125 495.594726562 46.6962890625 495.594726562 46.6962890625 c 1
 495.594726562 44.052734375 456.828125 44.93359375 444.93359375 47.5771484375 c 0
 375.770507812 63.4365234375 345.374023438 87.224609375 332.598632812 134.801757812 c 0
 323.788085938 167.401367188 322.026367188 201.321289062 326.872070312 248.8984375 c 0
 328.634765625 267.401367188 330.836914062 288.10546875 331.27734375 295.594726562 c 2
 332.598632812 308.810546875 l 1
 303.96484375 307.489257812 l 2
 288.10546875 306.608398438 269.603515625 303.083984375 262.5546875 299.559570312 c 0
 255.506835938 296.03515625 245.374023438 293.391601562 240.087890625 293.391601562 c 0
 235.2421875 293.391601562 221.5859375 287.665039062 210.131835938 280.17578125 c 0
 183.259765625 263.436523438 171.365234375 263.436523438 156.828125 280.6171875 c 0
 143.612304688 296.475585938 143.171875 299.119140625 152.422851562 308.370117188 c 0
 185.022460938 340.96875 217.180664062 351.541992188 303.96484375 357.268554688 c 0
 339.20703125 359.912109375 348.017578125 365.198242188 348.017578125 384.581054688 c 0
 348.017578125 403.524414062 361.673828125 449.338867188 373.568359375 471.806640625 c 0
 384.140625 491.629882812 387.224609375 493.833007812 402.643554688 495.154296875 c 0
 432.598632812 497.796875 440.528320312 493.833007812 440.528320312 475.770507812 c 0
 440.528320312 463.436523438 438.326171875 459.471679688 431.717773438 457.708984375 c 0
 426.872070312 456.387695312 421.5859375 450.661132812 420.264648438 444.93359375 c 0
 418.501953125 439.20703125 414.977539062 432.598632812 411.454101562 430.836914062 c 0
 403.96484375 426.431640625 393.833007812 377.973632812 399.119140625 372.6875 c 0
 403.96484375 367.841796875 559.471679688 375.330078125 564.7578125 380.6171875 c 0
 566.51953125 382.37890625 571.806640625 400.440429688 576.65234375 420.264648438 c 0
 581.498046875 440.528320312 587.224609375 459.471679688 589.427734375 462.114257812 c 0
 591.629882812 465.198242188 594.713867188 472.6875 596.475585938 479.294921875 c 0
 597.796875 485.903320312 602.203125 494.2734375 606.166992188 497.796875 c 0
EndSplineSet
Validated: 33
EndChar

StartChar: uni305D
Encoding: 9277 12381 28
Width: 1000
VWidth: 0
HStem: 511.454 41.8496<366.48 410.817> 513.656 66.0791<563.437 583.26>
LayerCount: 2
Fore
SplineSet
469.163085938 589.868164062 m 0x80
 498.23828125 594.2734375 574.008789062 590.749023438 576.211914062 585.022460938 c 0
 577.092773438 582.37890625 580.17578125 579.735351562 583.259765625 579.735351562 c 0
 592.0703125 579.735351562 604.845703125 562.995117188 601.76171875 555.506835938 c 0
 600.440429688 551.982421875 594.2734375 546.696289062 587.665039062 544.493164062 c 0
 581.498046875 541.850585938 574.008789062 534.361328125 571.365234375 526.872070312 c 0
 568.72265625 519.3828125 565.198242188 513.65625 563.436523438 513.65625 c 0x40
 561.673828125 513.65625 553.303710938 503.083984375 544.493164062 490.749023438 c 0
 536.123046875 477.973632812 518.942382812 453.744140625 506.608398438 436.563476562 c 0
 474.889648438 392.0703125 458.149414062 366.959960938 458.149414062 363.436523438 c 0
 458.149414062 359.471679688 476.65234375 361.673828125 495.594726562 367.841796875 c 0
 532.158203125 379.294921875 595.594726562 403.524414062 604.405273438 409.250976562 c 0
 610.131835938 412.775390625 623.788085938 416.740234375 635.2421875 418.501953125 c 0
 653.303710938 420.705078125 656.828125 419.82421875 662.995117188 411.454101562 c 0
 672.247070312 397.796875 671.365234375 387.224609375 660.79296875 383.700195312 c 0
 655.947265625 382.37890625 651.541992188 378.854492188 651.541992188 376.65234375 c 0
 651.1015625 374.44921875 650.220703125 370.924804688 649.779296875 368.282226562 c 0
 649.338867188 366.079101562 648.458007812 362.114257812 648.017578125 359.912109375 c 0
 648.017578125 357.708984375 638.326171875 346.255859375 627.3125 334.361328125 c 0
 615.859375 322.907226562 600.880859375 304.405273438 593.391601562 293.391601562 c 0
 577.092773438 270.043945312 550.661132812 218.501953125 550.661132812 211.013671875 c 0
 550.661132812 207.9296875 548.8984375 205.286132812 546.696289062 205.286132812 c 0
 544.493164062 205.286132812 541.41015625 196.03515625 539.647460938 185.022460938 c 0
 537.885742188 173.568359375 535.2421875 161.233398438 533.040039062 157.268554688 c 0
 518.942382812 130.836914062 510.572265625 50.6611328125 518.061523438 21.5859375 c 0
 523.788085938 0 570.924804688 16.740234375 591.189453125 47.13671875 c 0
 594.713867188 52.86328125 603.083984375 60.3525390625 609.250976562 63.876953125 c 0
 619.3828125 69.1630859375 622.026367188 69.1630859375 632.158203125 62.5546875 c 0
 638.326171875 58.58984375 643.171875 52.4228515625 643.171875 48.4580078125 c 0
 643.171875 37.0048828125 581.057617188 -21.5859375 557.708984375 -32.158203125 c 0
 527.3125 -45.3740234375 515.859375 -46.6962890625 494.713867188 -38.7666015625 c 0
 480.17578125 -33.0400390625 474.889648438 -28.193359375 469.163085938 -14.0966796875 c 0
 465.638671875 -4.4052734375 463.876953125 5.2861328125 465.198242188 7.9296875 c 0
 466.959960938 10.572265625 466.079101562 13.65625 463.876953125 15.4189453125 c 0
 455.06640625 21.1455078125 475.770507812 151.1015625 491.189453125 185.462890625 c 0
 494.2734375 192.951171875 500.440429688 209.69140625 504.405273438 222.907226562 c 0
 508.370117188 236.123046875 515.859375 255.947265625 520.705078125 266.959960938 c 0
 533.040039062 294.2734375 536.563476562 302.643554688 539.647460938 314.537109375 c 0
 541.41015625 319.82421875 544.493164062 324.229492188 546.696289062 324.229492188 c 0
 548.8984375 324.229492188 550.661132812 326.431640625 550.661132812 328.634765625 c 0
 550.661132812 333.48046875 516.740234375 329.956054688 508.810546875 324.229492188 c 0
 506.608398438 322.466796875 494.713867188 318.061523438 482.37890625 314.096679688 c 0
 437.004882812 299.559570312 416.299804688 292.951171875 409.250976562 290.749023438 c 0
 405.286132812 289.427734375 396.916015625 292.951171875 390.30859375 298.678710938 c 0
 379.294921875 308.370117188 378.854492188 310.131835938 383.700195312 326.431640625 c 0
 386.34375 336.123046875 391.189453125 347.13671875 393.833007812 350.661132812 c 0
 396.916015625 354.184570312 406.166992188 369.163085938 414.096679688 383.700195312 c 0
 422.466796875 398.23828125 433.040039062 415.418945312 437.885742188 421.5859375 c 0
 443.171875 427.752929688 449.779296875 437.004882812 452.422851562 441.41015625 c 0
 455.506835938 445.815429688 462.995117188 456.828125 469.163085938 465.198242188 c 0
 475.330078125 473.568359375 484.140625 489.427734375 488.986328125 500.440429688 c 0
 494.2734375 511.454101562 500 523.788085938 502.203125 527.752929688 c 0
 504.845703125 532.158203125 506.608398438 536.563476562 506.608398438 537.885742188 c 0
 506.608398438 542.731445312 465.198242188 539.647460938 454.625976562 533.920898438 c 0
 430.836914062 520.705078125 390.30859375 508.810546875 379.294921875 511.454101562 c 0
 369.603515625 513.65625 367.841796875 516.740234375 366.51953125 531.27734375 c 0
 365.638671875 546.696289062 366.959960938 549.779296875 376.65234375 553.303710938 c 0
 382.819335938 555.506835938 387.665039062 559.03125 387.665039062 560.79296875 c 0
 387.665039062 564.7578125 419.3828125 578.4140625 433.920898438 581.057617188 c 0
 438.766601562 581.938476562 445.815429688 584.140625 449.338867188 585.462890625 c 0
 452.86328125 586.784179688 462.114257812 588.986328125 469.163085938 589.868164062 c 0x80
EndSplineSet
Validated: 33
EndChar

StartChar: uni305E
Encoding: 9278 12382 29
Width: 1000
VWidth: 0
HStem: 32.1582 49.7803<501.954 564.382>
VStem: 668.282 54.625<568.349 600.475> 787.225 51.542<477.912 582.13>
LayerCount: 2
Fore
SplineSet
684.581054688 597.796875 m 0
 692.0703125 602.203125 703.083984375 605.286132812 709.250976562 604.845703125 c 0
 718.061523438 603.524414062 720.705078125 600 722.907226562 586.784179688 c 0
 724.229492188 577.973632812 723.788085938 569.603515625 721.5859375 568.282226562 c 0
 715.859375 564.7578125 722.466796875 482.819335938 729.515625 468.282226562 c 0
 737.885742188 450.220703125 729.956054688 438.766601562 708.370117188 438.766601562 c 0
 694.2734375 438.766601562 691.189453125 440.528320312 685.022460938 453.744140625 c 0
 681.057617188 462.114257812 676.211914062 479.294921875 674.008789062 492.510742188 c 0
 671.806640625 505.286132812 668.282226562 524.229492188 665.638671875 534.801757812 c 0
 661.233398438 551.982421875 662.114257812 575.770507812 668.282226562 585.022460938 c 0
 669.603515625 587.665039062 676.65234375 592.951171875 684.581054688 597.796875 c 0
794.713867188 582.37890625 m 0
 807.9296875 591.629882812 826.431640625 590.30859375 834.361328125 578.854492188 c 0
 839.647460938 571.365234375 840.528320312 563.436523438 838.766601562 547.577148438 c 0
 836.563476562 532.158203125 837.885742188 519.3828125 844.052734375 501.76171875 c 2
 852.422851562 477.533203125 l 1
 840.087890625 466.959960938 l 2
 824.669921875 453.744140625 820.264648438 453.744140625 815.418945312 466.51953125 c 0
 813.215820312 472.247070312 808.370117188 479.294921875 804.405273438 482.37890625 c 0
 800.440429688 485.462890625 797.356445312 492.510742188 797.356445312 497.796875 c 0
 797.356445312 503.083984375 795.154296875 509.69140625 792.510742188 512.334960938 c 0
 789.868164062 514.977539062 787.224609375 530.396484375 787.224609375 546.696289062 c 0
 786.34375 570.924804688 787.665039062 577.092773438 794.713867188 582.37890625 c 0
475.330078125 547.13671875 m 0
 476.65234375 548.017578125 485.462890625 547.577148438 495.154296875 546.255859375 c 0
 505.286132812 544.493164062 517.180664062 543.171875 522.026367188 543.171875 c 0
 536.123046875 542.731445312 557.268554688 529.075195312 558.58984375 518.942382812 c 0
 560.79296875 505.7265625 530.396484375 470.043945312 452.86328125 394.2734375 c 0
 417.180664062 359.03125 387.665039062 328.634765625 387.665039062 326.872070312 c 0
 387.665039062 325.110351562 375.770507812 312.334960938 361.233398438 298.678710938 c 0
 346.696289062 284.581054688 334.801757812 270.924804688 334.801757812 268.282226562 c 0
 334.801757812 265.638671875 333.040039062 262.5546875 331.27734375 261.673828125 c 0
 329.075195312 261.233398438 321.145507812 250.661132812 313.215820312 239.20703125 c 2
 299.119140625 218.061523438 l 1
 311.454101562 221.145507812 l 2
 322.026367188 223.34765625 373.127929688 245.815429688 397.356445312 258.58984375 c 0
 401.76171875 260.79296875 407.048828125 262.5546875 409.250976562 262.5546875 c 0
 411.454101562 262.5546875 418.942382812 264.7578125 425.991210938 267.401367188 c 0
 432.598632812 270.484375 441.41015625 273.127929688 444.93359375 273.568359375 c 0
 474.889648438 277.533203125 508.810546875 291.189453125 518.942382812 303.524414062 c 0
 522.466796875 307.489257812 529.956054688 309.250976562 538.766601562 308.370117188 c 0
 546.255859375 307.9296875 555.06640625 307.048828125 558.149414062 307.048828125 c 0
 560.79296875 306.608398438 566.079101562 300.440429688 570.043945312 293.391601562 c 0
 576.65234375 280.17578125 576.211914062 279.735351562 552.86328125 252.422851562 c 0
 540.087890625 237.4453125 523.34765625 219.3828125 515.859375 212.775390625 c 0
 508.370117188 205.7265625 499.119140625 192.951171875 494.713867188 184.140625 c 0
 490.749023438 175.330078125 483.259765625 162.5546875 478.4140625 155.947265625 c 0
 473.568359375 148.8984375 470.043945312 137.4453125 470.484375 128.193359375 c 0
 470.924804688 118.942382812 469.163085938 112.775390625 466.079101562 112.775390625 c 0
 457.268554688 112.775390625 485.903320312 85.462890625 501.321289062 78.8544921875 c 0
 514.977539062 73.1279296875 518.061523438 73.568359375 534.801757812 81.9384765625 c 0
 560.352539062 94.2734375 566.959960938 93.3916015625 570.484375 77.0927734375 c 0
 575.770507812 53.744140625 548.8984375 33.9208984375 507.9296875 32.158203125 c 0
 489.868164062 31.27734375 436.123046875 46.6962890625 436.123046875 52.4228515625 c 0
 436.123046875 54.6259765625 432.158203125 62.1142578125 426.872070312 69.1630859375 c 0
 413.215820312 88.5458984375 407.9296875 137.885742188 417.180664062 157.708984375 c 0
 421.5859375 166.51953125 436.123046875 208.810546875 436.123046875 212.775390625 c 0
 436.123046875 215.859375 413.65625 213.65625 406.166992188 210.131835938 c 0
 393.833007812 203.524414062 343.171875 182.819335938 317.62109375 174.008789062 c 0
 304.405273438 169.163085938 289.427734375 162.995117188 284.140625 159.471679688 c 0
 279.294921875 156.387695312 266.959960938 151.982421875 256.828125 150.661132812 c 0
 240.96875 147.577148438 237.885742188 148.8984375 231.717773438 157.708984375 c 0
 217.62109375 177.533203125 222.466796875 190.30859375 264.7578125 249.338867188 c 0
 276.211914062 265.198242188 292.510742188 285.903320312 300.880859375 295.594726562 c 0
 346.696289062 347.577148438 355.947265625 358.58984375 366.959960938 373.568359375 c 0
 373.568359375 382.819335938 387.665039062 398.678710938 397.796875 409.69140625 c 0
 424.669921875 437.885742188 440.528320312 456.828125 440.528320312 460.352539062 c 0
 440.528320312 462.114257812 446.696289062 469.163085938 453.744140625 476.211914062 c 0
 461.233398438 483.259765625 466.959960938 490.749023438 466.959960938 492.951171875 c 0
 466.959960938 495.154296875 455.947265625 495.154296875 441.850585938 493.391601562 c 0
 427.752929688 491.629882812 413.215820312 489.868164062 409.69140625 489.427734375 c 0
 381.498046875 486.784179688 319.3828125 456.387695312 315.859375 443.612304688 c 0
 314.977539062 439.20703125 308.810546875 434.361328125 302.203125 432.598632812 c 0
 277.533203125 426.431640625 256.387695312 457.268554688 269.163085938 481.498046875 c 0
 275.330078125 493.391601562 303.083984375 508.810546875 334.801757812 517.62109375 c 0
 345.815429688 521.145507812 362.114257812 526.431640625 371.365234375 529.515625 c 0
 380.17578125 533.040039062 407.048828125 537.885742188 430.836914062 540.528320312 c 0
 454.184570312 543.171875 474.44921875 546.255859375 475.330078125 547.13671875 c 0
EndSplineSet
Validated: 33
EndChar

StartChar: uni305F
Encoding: 9279 12383 30
Width: 1000
VWidth: 0
HStem: 28.1934 60.3525<531.718 687.479> 181.058 48.8984<459.198 652.134> 418.942 53.3047<210.164 360.7 423.012 536.657>
VStem: 354.185 48.0186<-48.6972 417.34> 359.472 42.7314<152.855 271.303>
LayerCount: 2
Fore
SplineSet
390.749023438 521.5859375 m 0xe8
 404.845703125 542.291015625 408.370117188 544.93359375 420.264648438 543.612304688 c 0
 432.598632812 542.291015625 433.920898438 540.528320312 435.2421875 526.431640625 c 0
 436.123046875 516.299804688 434.361328125 508.810546875 429.956054688 504.845703125 c 0
 425.991210938 501.76171875 422.907226562 493.833007812 422.907226562 486.784179688 c 0
 422.907226562 475.330078125 424.669921875 474.008789062 437.4453125 473.568359375 c 0
 490.30859375 472.6875 519.82421875 466.959960938 531.717773438 455.506835938 c 0
 555.947265625 433.040039062 540.96875 424.229492188 477.533203125 424.229492188 c 0
 426.872070312 424.229492188 426.431640625 424.229492188 422.026367188 412.775390625 c 0
 415.859375 396.475585938 409.69140625 360.352539062 407.048828125 325.55078125 c 0
 405.7265625 309.250976562 403.96484375 285.903320312 403.083984375 273.568359375 c 0
 399.559570312 227.3125 399.119140625 47.13671875 402.203125 8.3701171875 c 0
 406.166992188 -37.0048828125 402.203125 -50.220703125 386.34375 -50.220703125 c 0
 366.51953125 -49.779296875 362.114257812 -41.41015625 357.268554688 7.4892578125 c 0
 354.625976562 32.5986328125 352.422851562 76.2119140625 352.422851562 103.96484375 c 0
 351.541992188 205.286132812 352.422851562 269.603515625 354.184570312 282.37890625 c 0xf0
 355.06640625 289.868164062 357.708984375 325.110351562 359.471679688 361.233398438 c 0
 361.673828125 413.215820312 361.233398438 425.991210938 356.828125 423.34765625 c 0
 354.184570312 421.5859375 325.991210938 419.82421875 294.713867188 418.942382812 c 0
 263.436523438 418.501953125 236.563476562 416.740234375 234.801757812 415.418945312 c 0
 229.075195312 409.250976562 211.013671875 412.775390625 202.643554688 421.145507812 c 0
 177.973632812 445.815429688 228.634765625 469.163085938 314.537109375 472.247070312 c 0
 343.612304688 473.568359375 368.282226562 475.330078125 369.603515625 476.65234375 c 0
 370.924804688 477.533203125 372.247070312 483.259765625 373.127929688 488.545898438 c 0
 374.008789062 493.833007812 381.938476562 508.810546875 390.749023438 521.5859375 c 0xe8
477.092773438 236.563476562 m 0
 493.391601562 246.255859375 500.880859375 246.696289062 518.501953125 240.087890625 c 0
 534.361328125 233.920898438 555.06640625 230.836914062 588.10546875 229.956054688 c 0
 602.643554688 229.515625 622.907226562 226.431640625 632.598632812 223.34765625 c 0
 648.8984375 218.061523438 651.1015625 215.418945312 653.744140625 201.321289062 c 0
 655.506835938 189.427734375 654.625976562 184.581054688 648.458007812 181.498046875 c 0
 641.41015625 177.092773438 595.154296875 177.092773438 581.498046875 181.057617188 c 0
 577.973632812 181.938476562 559.03125 181.498046875 539.647460938 179.294921875 c 0
 505.286132812 175.770507812 495.154296875 177.533203125 467.401367188 191.629882812 c 0
 452.422851562 199.119140625 457.708984375 224.669921875 477.092773438 236.563476562 c 0
516.299804688 88.5458984375 m 0
 524.229492188 97.3564453125 540.528320312 96.4755859375 561.233398438 86.34375 c 0
 590.30859375 72.6875 627.752929688 68.72265625 651.541992188 76.65234375 c 0
 662.5546875 80.17578125 676.211914062 86.34375 681.498046875 89.427734375 c 0
 689.868164062 95.154296875 692.510742188 94.7138671875 702.203125 88.5458984375 c 0
 718.942382812 77.533203125 716.299804688 68.2822265625 692.510742188 52.4228515625 c 0
 655.506835938 28.193359375 645.815429688 25.9912109375 586.34375 26.8720703125 c 2
 531.717773438 28.193359375 l 1
 518.942382812 41.8505859375 l 2
 508.370117188 53.3037109375 506.166992188 58.58984375 508.370117188 69.1630859375 c 0
 509.69140625 76.2119140625 513.215820312 85.0224609375 516.299804688 88.5458984375 c 0
EndSplineSet
Validated: 33
EndChar

StartChar: uni3060
Encoding: 9280 12384 31
Width: 1000
VWidth: 0
HStem: 38.7666 45.374<539.954 676.853> 411.014 40.0879<183.871 306.973 383.955 480.467>
VStem: 285.903 44.4932<-13.1539 294.593> 732.599 51.1016<378.626 502.407>
LayerCount: 2
Fore
SplineSet
631.717773438 525.55078125 m 0
 642.291015625 537.004882812 643.171875 537.004882812 658.149414062 531.27734375 c 0
 669.163085938 527.3125 670.924804688 522.466796875 676.211914062 485.022460938 c 0
 679.294921875 461.673828125 685.462890625 441.41015625 695.154296875 423.34765625 c 0
 700.440429688 413.65625 704.845703125 403.96484375 704.845703125 401.76171875 c 0
 704.845703125 399.559570312 710.131835938 390.749023438 716.740234375 382.37890625 c 0
 728.193359375 366.959960938 728.193359375 366.959960938 720.264648438 352.422851562 c 0
 715.859375 344.493164062 710.572265625 338.766601562 708.370117188 340.087890625 c 0
 706.166992188 341.41015625 699.559570312 343.171875 693.391601562 344.052734375 c 0
 680.17578125 345.374023438 681.938476562 343.612304688 667.401367188 370.484375 c 0
 637.004882812 425.55078125 629.956054688 440.96875 632.158203125 446.696289062 c 0
 633.48046875 450.220703125 633.040039062 455.06640625 631.27734375 457.708984375 c 0
 623.34765625 470.043945312 617.180664062 494.713867188 619.82421875 504.845703125 c 0
 621.145507812 511.013671875 626.872070312 520.264648438 631.717773438 525.55078125 c 0
736.563476562 492.510742188 m 0
 742.731445312 501.76171875 748.017578125 504.405273438 757.268554688 503.083984375 c 0
 777.533203125 500.880859375 779.735351562 497.356445312 779.735351562 465.198242188 c 0
 779.735351562 448.458007812 781.498046875 430.396484375 783.700195312 424.669921875 c 0
 803.524414062 373.568359375 798.23828125 347.13671875 770.924804688 360.79296875 c 0
 759.912109375 366.51953125 740.96875 396.03515625 732.598632812 421.145507812 c 0
 724.669921875 444.493164062 726.872070312 478.4140625 736.563476562 492.510742188 c 0
356.828125 484.140625 m 0
 373.127929688 486.784179688 376.211914062 485.462890625 382.37890625 473.127929688 c 0
 388.545898438 460.352539062 413.215820312 452.422851562 452.86328125 451.1015625 c 0
 479.735351562 449.779296875 492.0703125 439.647460938 484.140625 424.669921875 c 0
 481.938476562 420.264648438 481.498046875 416.740234375 483.259765625 416.740234375 c 0
 485.022460938 416.740234375 484.140625 414.977539062 480.6171875 412.775390625 c 0
 477.533203125 410.572265625 466.51953125 409.69140625 456.387695312 411.013671875 c 0
 422.466796875 414.537109375 379.294921875 415.418945312 375.330078125 412.775390625 c 0
 373.127929688 411.454101562 369.603515625 401.321289062 367.841796875 390.30859375 c 0
 366.079101562 379.735351562 362.114257812 366.51953125 359.03125 361.673828125 c 0
 355.947265625 356.828125 351.982421875 340.087890625 350.220703125 324.229492188 c 0
 348.8984375 308.370117188 346.255859375 286.784179688 344.93359375 275.770507812 c 0
 341.850585938 249.338867188 340.528320312 233.040039062 337.4453125 181.057617188 c 0
 335.682617188 156.828125 333.48046875 128.193359375 331.717773438 117.180664062 c 0
 330.396484375 106.166992188 329.515625 95.5947265625 329.956054688 92.951171875 c 0
 330.836914062 90.7490234375 331.27734375 76.65234375 330.836914062 62.5546875 c 0
 330.396484375 44.4931640625 332.598632812 33.9208984375 337.004882812 29.0751953125 c 0
 343.171875 22.466796875 343.171875 21.1455078125 337.004882812 15.859375 c 0
 333.48046875 12.775390625 330.396484375 5.7265625 330.396484375 0 c 0
 330.396484375 -6.1669921875 327.752929688 -10.572265625 324.229492188 -10.572265625 c 0
 320.705078125 -10.572265625 314.537109375 -11.89453125 311.013671875 -13.2158203125 c 0
 305.7265625 -15.4189453125 301.76171875 -10.572265625 295.154296875 3.96484375 c 0
 287.665039062 20.2646484375 286.34375 34.361328125 285.903320312 84.5810546875 c 0
 285.462890625 118.501953125 287.224609375 168.72265625 290.30859375 196.475585938 c 0
 292.951171875 224.229492188 296.03515625 267.841796875 297.356445312 293.391601562 c 0
 298.23828125 318.942382812 301.321289062 350.220703125 303.96484375 363.436523438 c 0
 310.131835938 397.356445312 309.69140625 406.608398438 300.440429688 408.810546875 c 0
 288.545898438 411.89453125 211.013671875 401.321289062 199.559570312 395.594726562 c 0
 188.986328125 389.427734375 163.436523438 388.545898438 155.506835938 393.833007812 c 0
 152.422851562 395.594726562 149.779296875 404.405273438 148.8984375 413.215820312 c 0
 147.13671875 440.96875 163.876953125 451.541992188 213.65625 453.744140625 c 0
 225.991210938 454.625976562 256.387695312 456.387695312 281.498046875 458.58984375 c 0
 321.145507812 461.673828125 329.075195312 463.876953125 337.004882812 472.247070312 c 0
 341.850585938 477.533203125 351.1015625 482.819335938 356.828125 484.140625 c 0
468.72265625 263.876953125 m 0
 487.224609375 266.51953125 510.572265625 262.995117188 525.110351562 255.506835938 c 0
 531.27734375 251.982421875 539.647460938 250.661132812 543.171875 251.982421875 c 0
 546.255859375 252.86328125 551.982421875 251.1015625 555.06640625 247.13671875 c 0
 558.149414062 243.612304688 563.876953125 240.528320312 568.282226562 240.528320312 c 0
 572.6875 240.528320312 578.4140625 237.4453125 581.498046875 233.920898438 c 0
 584.581054688 230.396484375 589.427734375 227.3125 592.951171875 227.3125 c 0
 596.03515625 227.3125 601.321289062 224.669921875 604.845703125 221.145507812 c 0
 608.370117188 217.62109375 614.537109375 214.977539062 619.3828125 215.418945312 c 0
 624.229492188 215.859375 627.3125 213.65625 626.431640625 210.572265625 c 0
 625.991210938 207.489257812 627.752929688 200.880859375 630.396484375 196.03515625 c 0
 633.920898438 188.986328125 633.48046875 184.581054688 627.752929688 176.211914062 c 0
 619.3828125 163.436523438 614.977539062 162.995117188 598.678710938 174.889648438 c 0
 582.37890625 186.34375 542.731445312 199.119140625 509.250976562 203.083984375 c 0
 473.127929688 207.489257812 458.149414062 210.572265625 458.149414062 214.537109375 c 0
 458.149414062 216.740234375 455.506835938 218.501953125 451.982421875 218.501953125 c 0
 442.731445312 218.501953125 441.41015625 231.717773438 448.8984375 248.017578125 c 0
 453.303710938 258.58984375 458.58984375 262.5546875 468.72265625 263.876953125 c 0
511.013671875 102.643554688 m 0
 519.82421875 110.131835938 537.4453125 109.69140625 545.815429688 102.203125 c 0
 549.779296875 98.6787109375 563.876953125 93.8330078125 577.092773438 91.189453125 c 0
 590.30859375 88.5458984375 606.166992188 85.0224609375 612.334960938 84.140625 c 0
 618.501953125 82.8193359375 638.766601562 85.462890625 657.708984375 90.30859375 c 0
 689.427734375 98.6787109375 704.845703125 98.6787109375 704.845703125 90.7490234375 c 0
 704.845703125 76.65234375 693.391601562 59.912109375 677.533203125 51.1015625 c 0
 662.995117188 43.171875 650.661132812 40.5283203125 613.65625 38.7666015625 c 0
 543.171875 35.6826171875 493.391601562 49.3388671875 493.391601562 71.806640625 c 0
 493.391601562 79.294921875 502.643554688 95.5947265625 511.013671875 102.643554688 c 0
EndSplineSet
Validated: 33
EndChar

StartChar: uni3061
Encoding: 9281 12385 32
Width: 1000
VWidth: 0
HStem: 461.674 42.291<436.708 620.37>
VStem: 369.163 51.542<228.484 456.336> 396.476 60.793<507.27 557.924> 396.476 40.0879<506.708 555.838>
LayerCount: 2
Fore
SplineSet
429.515625 571.365234375 m 0xa0
 439.20703125 581.498046875 455.506835938 578.854492188 457.268554688 566.959960938 c 0xa0
 458.149414062 561.673828125 456.387695312 554.184570312 452.86328125 550.220703125 c 0
 441.41015625 536.563476562 432.158203125 511.454101562 436.563476562 507.048828125 c 0x90
 439.20703125 504.405273438 469.603515625 503.083984375 514.977539062 503.96484375 c 0
 593.833007812 505.286132812 607.489257812 503.083984375 618.942382812 485.462890625 c 0
 625.55078125 475.330078125 625.55078125 473.568359375 618.942382812 459.03125 c 0
 610.131835938 440.528320312 607.048828125 440.087890625 588.986328125 453.303710938 c 0
 575.770507812 462.5546875 571.365234375 462.995117188 506.608398438 461.673828125 c 0
 469.163085938 460.79296875 437.004882812 458.58984375 434.801757812 456.828125 c 0
 425.110351562 447.13671875 418.501953125 385.903320312 420.705078125 316.740234375 c 0
 422.907226562 225.991210938 425.991210938 218.942382812 452.86328125 233.48046875 c 0
 499.119140625 257.708984375 516.740234375 263.436523438 545.815429688 261.233398438 c 0
 588.545898438 258.149414062 627.3125 236.123046875 640.96875 206.608398438 c 0
 644.93359375 198.23828125 649.338867188 176.65234375 650.661132812 159.03125 c 0
 654.625976562 103.524414062 630.836914062 50.6611328125 571.806640625 -16.2998046875 c 0
 553.303710938 -37.4453125 534.361328125 -37.8857421875 525.110351562 -17.62109375 c 0
 519.3828125 -6.1669921875 519.82421875 -4.4052734375 533.920898438 11.013671875 c 0
 550.220703125 28.634765625 568.282226562 53.3037109375 568.282226562 58.58984375 c 0
 568.282226562 60.3525390625 573.568359375 69.1630859375 580.17578125 78.4140625 c 0
 596.03515625 101.76171875 604.845703125 148.017578125 598.23828125 174.889648438 c 0
 593.833007812 193.391601562 592.0703125 195.594726562 572.6875 202.203125 c 0
 561.233398438 206.166992188 548.017578125 209.69140625 543.612304688 209.69140625 c 0
 534.801757812 209.69140625 507.9296875 201.76171875 497.796875 196.03515625 c 0
 494.2734375 194.2734375 481.498046875 187.224609375 469.163085938 181.057617188 c 0
 457.268554688 174.44921875 442.291015625 166.51953125 436.123046875 163.436523438 c 0
 419.82421875 153.744140625 402.203125 155.06640625 398.678710938 165.638671875 c 0
 397.356445312 170.484375 394.2734375 174.44921875 392.0703125 174.44921875 c 0
 385.903320312 174.44921875 381.498046875 191.189453125 377.092773438 231.717773438 c 0
 376.211914062 240.087890625 374.008789062 255.06640625 372.247070312 264.7578125 c 0
 370.484375 274.44921875 369.163085938 284.581054688 369.163085938 286.784179688 c 0xc0
 370.043945312 341.850585938 374.44921875 423.34765625 376.65234375 437.885742188 c 0
 378.4140625 448.017578125 378.4140625 456.387695312 376.211914062 456.387695312 c 0
 358.58984375 455.947265625 288.545898438 442.731445312 285.022460938 439.20703125 c 0
 271.806640625 425.991210938 244.93359375 446.696289062 247.577148438 467.841796875 c 0
 248.8984375 478.854492188 251.982421875 481.498046875 271.806640625 488.10546875 c 0
 296.916015625 496.475585938 312.775390625 499.559570312 356.828125 503.524414062 c 0
 385.903320312 506.166992188 396.03515625 512.334960938 396.475585938 527.3125 c 0
 396.475585938 533.48046875 403.083984375 541.850585938 429.515625 571.365234375 c 0xa0
EndSplineSet
Validated: 33
EndChar

StartChar: uni3062
Encoding: 9282 12386 33
Width: 1000
VWidth: 0
HStem: 15.8594 46.2549<541.538 586.95> 182.379 51.9824<498.955 629.436> 361.674 99.1191<770.539 810.972> 380.176 54.626<297.925 428.948> 411.454 40.5283<601.408 642.249>
VStem: 629.956 49.7793<106.999 181.492> 677.533 53.3037<399.702 550.874>
LayerCount: 2
Fore
SplineSet
488.10546875 565.638671875 m 0xd4
 497.356445312 572.6875 508.810546875 572.247070312 515.418945312 564.317382812 c 0
 519.82421875 559.03125 519.3828125 554.625976562 513.65625 542.291015625 c 0
 509.69140625 533.920898438 504.405273438 525.991210938 502.203125 524.669921875 c 0
 500 523.34765625 496.916015625 511.013671875 495.154296875 496.916015625 c 0
 493.833007812 483.259765625 490.30859375 469.163085938 487.665039062 466.079101562 c 0
 481.498046875 458.58984375 492.0703125 451.1015625 501.76171875 455.947265625 c 0
 513.215820312 461.673828125 597.796875 462.114257812 601.321289062 456.387695312 c 0
 603.083984375 453.744140625 610.572265625 451.541992188 618.501953125 451.982421875 c 0
 643.612304688 453.303710938 643.612304688 453.303710938 642.291015625 431.27734375 c 0
 641.41015625 416.740234375 639.20703125 410.572265625 635.2421875 411.454101562 c 0xcc
 632.158203125 411.89453125 625.991210938 410.572265625 621.5859375 407.9296875 c 0
 615.418945312 404.845703125 609.250976562 405.7265625 599.559570312 410.572265625 c 0
 586.34375 417.180664062 541.850585938 416.740234375 504.845703125 409.69140625 c 0
 479.735351562 404.405273438 472.6875 357.268554688 481.938476562 253.744140625 c 0
 485.462890625 217.62109375 489.868164062 208.370117188 498.678710938 219.3828125 c 0
 504.405273438 226.431640625 520.705078125 229.075195312 584.581054688 234.361328125 c 0
 611.013671875 237.004882812 618.942382812 235.682617188 637.4453125 227.3125 c 0
 666.959960938 214.096679688 679.294921875 195.594726562 679.735351562 162.5546875 c 0
 679.735351562 131.717773438 669.163085938 105.286132812 644.052734375 76.2119140625 c 0
 634.361328125 65.1982421875 623.788085938 51.982421875 620.264648438 47.5771484375 c 0
 612.334960938 35.6826171875 581.938476562 15.859375 572.247070312 15.859375 c 0
 567.841796875 15.859375 557.708984375 21.5859375 550.220703125 28.193359375 c 0
 538.326171875 38.7666015625 537.004882812 41.8505859375 541.41015625 49.779296875 c 0
 544.052734375 55.06640625 551.982421875 60.3525390625 559.03125 62.1142578125 c 0
 566.51953125 63.4365234375 573.568359375 68.72265625 574.889648438 73.1279296875 c 0
 576.211914062 77.533203125 581.057617188 81.9384765625 585.462890625 83.259765625 c 0
 599.119140625 86.7841796875 629.956054688 137.885742188 629.956054688 156.828125 c 0
 629.956054688 172.247070312 628.634765625 174.008789062 611.89453125 180.6171875 c 0
 601.76171875 184.581054688 590.30859375 186.784179688 585.903320312 185.462890625 c 0
 581.938476562 184.140625 570.924804688 182.819335938 562.114257812 182.37890625 c 0
 553.303710938 181.938476562 546.255859375 180.6171875 546.255859375 178.854492188 c 0
 546.255859375 177.092773438 533.920898438 172.247070312 518.942382812 168.282226562 c 0
 503.524414062 163.876953125 485.462890625 157.708984375 478.4140625 154.184570312 c 0
 457.708984375 143.612304688 447.13671875 153.744140625 440.528320312 190.749023438 c 0
 430.396484375 248.8984375 429.075195312 268.282226562 432.158203125 356.387695312 c 0
 432.598632812 373.127929688 431.27734375 388.10546875 429.075195312 390.30859375 c 0
 426.431640625 392.951171875 419.82421875 391.629882812 411.89453125 387.665039062 c 0
 403.083984375 382.819335938 386.34375 380.6171875 360.352539062 380.17578125 c 0
 319.3828125 380.17578125 303.083984375 385.903320312 297.356445312 403.524414062 c 0
 293.833007812 414.977539062 305.7265625 434.361328125 316.299804688 434.801757812 c 0
 359.912109375 435.682617188 410.572265625 439.647460938 422.907226562 442.291015625 c 0
 437.4453125 445.374023438 438.326171875 447.13671875 440.96875 467.401367188 c 0
 442.731445312 479.735351562 445.815429688 496.475585938 448.8984375 504.845703125 c 0
 454.184570312 521.145507812 477.092773438 556.387695312 488.10546875 565.638671875 c 0xd4
688.545898438 552.422851562 m 0
 694.2734375 559.912109375 729.075195312 559.03125 735.682617188 551.1015625 c 0
 739.647460938 546.255859375 740.087890625 541.41015625 736.563476562 532.598632812 c 0
 734.361328125 525.55078125 731.717773438 508.370117188 731.717773438 493.833007812 c 0
 731.27734375 479.294921875 730.836914062 465.638671875 730.836914062 462.995117188 c 0
 730.396484375 455.06640625 735.2421875 438.326171875 742.291015625 424.669921875 c 0
 745.815429688 417.180664062 748.8984375 404.845703125 748.8984375 397.796875 c 0
 748.8984375 390.30859375 751.541992188 381.057617188 755.06640625 377.533203125 c 0
 773.568359375 355.947265625 765.198242188 339.20703125 739.647460938 346.696289062 c 0
 726.872070312 350.661132812 722.026367188 355.947265625 711.454101562 377.533203125 c 0
 704.405273438 391.629882812 697.796875 403.524414062 696.03515625 403.524414062 c 0
 688.986328125 403.524414062 678.4140625 453.744140625 677.533203125 489.868164062 c 0xc2
 677.092773438 527.752929688 679.294921875 540.528320312 688.545898438 552.422851562 c 0
786.34375 460.79296875 m 0xe0
 797.356445312 465.198242188 811.013671875 462.114257812 817.62109375 453.303710938 c 0
 821.5859375 448.458007812 821.145507812 444.052734375 815.859375 433.48046875 c 0
 810.572265625 422.026367188 810.131835938 415.418945312 813.65625 397.356445312 c 0
 818.942382812 372.247070312 815.859375 365.198242188 797.796875 361.673828125 c 0
 790.30859375 360.352539062 784.581054688 362.995117188 777.973632812 371.365234375 c 0
 766.959960938 385.462890625 756.828125 411.89453125 760.352539062 417.180664062 c 0
 761.673828125 419.3828125 763.876953125 426.431640625 764.7578125 433.040039062 c 0
 767.401367188 447.577148438 774.008789062 455.947265625 786.34375 460.79296875 c 0xe0
EndSplineSet
Validated: 33
EndChar

StartChar: uni3063
Encoding: 9283 12387 34
Width: 1000
VWidth: 0
HStem: -23.7881 48.458<509.833 560.777>
LayerCount: 2
Fore
SplineSet
376.65234375 214.537109375 m 0
 394.2734375 217.62109375 448.017578125 216.299804688 484.140625 211.013671875 c 0
 510.131835938 207.489257812 559.03125 189.427734375 572.6875 178.4140625 c 0
 578.854492188 173.568359375 588.545898438 167.401367188 594.713867188 164.7578125 c 0
 605.7265625 159.912109375 622.907226562 127.3125 626.872070312 102.643554688 c 0
 629.075195312 89.8681640625 620.705078125 48.4580078125 613.215820312 35.6826171875 c 0
 607.489257812 25.1103515625 558.58984375 -23.7880859375 554.184570312 -23.7880859375 c 0
 551.982421875 -23.7880859375 544.93359375 -27.7529296875 538.326171875 -32.158203125 c 0
 531.717773438 -37.0048828125 517.62109375 -42.291015625 506.608398438 -43.6123046875 c 0
 490.30859375 -45.8154296875 485.022460938 -44.93359375 479.294921875 -38.326171875 c 0
 469.603515625 -27.7529296875 473.568359375 -11.89453125 486.784179688 -8.810546875 c 0
 492.510742188 -7.4892578125 507.489257812 0.880859375 520.264648438 9.2509765625 c 0
 533.48046875 17.62109375 545.374023438 24.669921875 547.13671875 24.669921875 c 0
 549.338867188 24.669921875 550.661132812 27.3125 550.661132812 30.396484375 c 0
 550.661132812 33.48046875 556.387695312 41.8505859375 563.876953125 48.8984375 c 0
 572.6875 57.2685546875 577.533203125 67.4013671875 579.735351562 80.6171875 c 0
 585.022460938 116.299804688 570.924804688 133.48046875 519.82421875 151.541992188 c 0
 444.93359375 178.854492188 360.352539062 175.770507812 342.291015625 144.93359375 c 0
 337.885742188 137.885742188 324.229492188 137.4453125 318.501953125 144.93359375 c 0
 307.9296875 158.149414062 308.810546875 166.079101562 321.5859375 178.4140625 c 0
 329.075195312 185.022460938 334.801757812 192.951171875 334.801757812 196.03515625 c 0
 334.801757812 202.203125 351.982421875 209.69140625 376.65234375 214.537109375 c 0
EndSplineSet
Validated: 33
EndChar

StartChar: uni3064
Encoding: 9284 12388 35
Width: 1000
VWidth: 0
HStem: 92.9512 24.6699<353.412 386.923> 401.321 43.1719<300.023 537.946>
VStem: 563.877 78.8545<235.444 265.964>
LayerCount: 2
Fore
SplineSet
363.436523438 444.493164062 m 0
 373.127929688 444.93359375 409.250976562 445.374023438 444.052734375 444.93359375 c 0
 494.2734375 444.052734375 511.454101562 441.850585938 529.956054688 434.801757812 c 0
 559.03125 423.788085938 581.057617188 412.775390625 593.833007812 403.083984375 c 0
 614.977539062 386.784179688 643.612304688 333.48046875 642.731445312 311.89453125 c 0
 641.41015625 278.854492188 619.82421875 223.34765625 599.559570312 201.321289062 c 0
 593.833007812 195.154296875 584.140625 183.259765625 578.4140625 175.770507812 c 0
 572.247070312 167.841796875 565.198242188 161.233398438 562.995117188 161.233398438 c 0
 558.58984375 161.233398438 532.158203125 142.731445312 515.418945312 127.752929688 c 0
 496.475585938 110.572265625 462.995117188 95.154296875 439.20703125 92.951171875 c 0
 406.608398438 89.427734375 362.5546875 89.427734375 356.828125 92.951171875 c 0
 351.982421875 96.03515625 350.661132812 117.180664062 355.947265625 117.62109375 c 0
 357.708984375 117.62109375 371.806640625 118.501953125 387.665039062 118.942382812 c 0
 406.608398438 119.82421875 422.466796875 123.34765625 433.920898438 129.956054688 c 0
 443.612304688 134.801757812 452.86328125 139.20703125 455.06640625 139.20703125 c 0
 465.638671875 139.20703125 563.876953125 223.788085938 563.876953125 232.598632812 c 0
 563.876953125 236.563476562 581.498046875 262.995117188 586.784179688 266.959960938 c 0
 594.713867188 273.127929688 597.356445312 305.286132812 591.629882812 321.5859375 c 0
 585.022460938 340.528320312 565.638671875 368.282226562 559.03125 368.282226562 c 0
 556.828125 368.282226562 549.338867188 372.247070312 542.731445312 377.092773438 c 0
 525.55078125 389.868164062 489.868164062 397.796875 436.123046875 401.321289062 c 0
 397.796875 403.524414062 383.259765625 402.643554688 351.1015625 395.154296875 c 0
 296.916015625 382.37890625 285.022460938 376.211914062 257.268554688 348.458007812 c 0
 244.052734375 334.801757812 230.836914062 324.229492188 227.752929688 325.55078125 c 0
 221.145507812 327.752929688 202.643554688 354.625976562 202.643554688 362.114257812 c 0
 202.643554688 377.092773438 249.338867188 416.740234375 266.51953125 416.740234375 c 0
 269.603515625 416.740234375 274.44921875 419.3828125 277.092773438 422.907226562 c 0
 282.37890625 429.515625 332.598632812 441.850585938 363.436523438 444.493164062 c 0
EndSplineSet
Validated: 33
EndChar

StartChar: uni3065
Encoding: 9285 12389 36
Width: 1000
VWidth: 0
HStem: 86.3438 61.6738<433.452 515.507> 95.1543 37.8857<436.82 472.317> 360.793 45.8154<287.115 507.93>
VStem: 559.472 46.2549<198.96 316.191> 633.921 48.8984<381.864 498.077> 737.445 55.5059<397.495 474.179>
LayerCount: 2
Fore
SplineSet
633.920898438 481.057617188 m 0x3c
 642.291015625 499.119140625 643.612304688 500.440429688 657.268554688 498.678710938 c 0
 688.545898438 494.713867188 690.749023438 491.629882812 682.819335938 457.268554688 c 0
 676.65234375 430.836914062 684.581054688 401.321289062 703.524414062 382.819335938 c 0
 711.454101562 374.44921875 718.061523438 366.51953125 718.061523438 364.7578125 c 0
 718.061523438 362.5546875 710.131835938 356.387695312 700.440429688 351.1015625 c 0
 683.700195312 341.850585938 681.498046875 341.41015625 672.6875 348.017578125 c 0
 648.8984375 364.7578125 641.850585938 372.247070312 630.396484375 396.475585938 c 0
 616.740234375 425.55078125 617.62109375 443.171875 633.920898438 481.057617188 c 0x3c
757.708984375 477.092773438 m 0
 771.365234375 484.140625 771.365234375 484.140625 783.259765625 474.44921875 c 0
 789.427734375 468.72265625 792.951171875 461.233398438 792.951171875 451.541992188 c 0
 792.951171875 444.052734375 797.356445312 429.075195312 802.203125 418.942382812 c 0
 808.810546875 405.7265625 810.572265625 396.03515625 808.810546875 388.10546875 c 0
 806.166992188 377.092773438 804.405273438 376.211914062 789.427734375 378.854492188 c 0
 769.163085938 382.37890625 741.850585938 411.89453125 737.4453125 433.920898438 c 0
 733.920898438 451.982421875 741.850585938 469.163085938 757.708984375 477.092773438 c 0
341.850585938 404.845703125 m 0
 342.291015625 405.286132812 367.401367188 406.166992188 397.796875 406.608398438 c 0
 476.211914062 407.9296875 519.3828125 396.916015625 555.06640625 367.401367188 c 0
 600.440429688 329.956054688 605.7265625 320.264648438 605.7265625 269.163085938 c 0
 605.7265625 217.180664062 596.916015625 193.391601562 562.995117188 154.625976562 c 0
 526.431640625 112.775390625 491.189453125 86.34375 472.6875 86.34375 c 0xbc
 464.7578125 86.34375 458.149414062 88.5458984375 458.149414062 90.7490234375 c 0
 458.149414062 93.3916015625 454.625976562 95.154296875 450.220703125 95.154296875 c 0
 430.396484375 95.154296875 423.34765625 128.193359375 442.291015625 133.040039062 c 0x7c
 448.017578125 134.361328125 456.828125 133.48046875 461.233398438 130.836914062 c 0
 468.282226562 127.3125 472.247070312 128.634765625 481.498046875 137.4453125 c 0
 487.665039062 143.171875 494.2734375 148.017578125 495.594726562 148.017578125 c 0xbc
 500 148.017578125 519.82421875 171.365234375 534.801757812 194.2734375 c 0
 551.1015625 219.3828125 559.471679688 244.93359375 559.471679688 268.72265625 c 0
 559.471679688 285.903320312 548.8984375 311.013671875 541.850585938 311.013671875 c 0
 539.20703125 311.013671875 537.4453125 314.096679688 537.4453125 317.62109375 c 0
 537.4453125 329.956054688 490.749023438 349.779296875 453.744140625 352.86328125 c 0
 421.5859375 355.947265625 414.977539062 357.268554688 411.454101562 360.79296875 c 0
 406.166992188 366.079101562 303.96484375 351.541992188 303.96484375 345.374023438 c 0
 303.96484375 343.612304688 301.321289062 341.850585938 298.23828125 341.850585938 c 0
 280.17578125 341.850585938 237.885742188 308.370117188 237.885742188 293.833007812 c 0
 237.885742188 288.545898438 234.801757812 283.259765625 231.27734375 281.938476562 c 0
 219.3828125 277.092773438 192.510742188 286.784179688 183.700195312 298.678710938 c 2
 174.889648438 310.131835938 l 1
 185.022460938 325.991210938 l 2
 194.2734375 341.41015625 227.752929688 368.282226562 237.4453125 368.282226562 c 0
 239.647460938 368.282226562 251.541992188 373.568359375 262.995117188 379.735351562 c 0
 287.224609375 392.951171875 303.96484375 398.678710938 325.991210938 401.76171875 c 0
 333.920898438 403.083984375 341.41015625 404.405273438 341.850585938 404.845703125 c 0
EndSplineSet
Validated: 33
EndChar

StartChar: uni3066
Encoding: 9286 12390 37
Width: 1000
VWidth: 0
HStem: 369.163 47.5771<234.816 307.719>
LayerCount: 2
Fore
SplineSet
511.013671875 466.959960938 m 0
 595.154296875 477.092773438 696.475585938 468.72265625 728.193359375 448.8984375 c 0
 752.422851562 433.48046875 749.338867188 422.466796875 715.859375 405.7265625 c 0
 676.65234375 386.34375 640.087890625 359.471679688 610.572265625 329.075195312 c 0
 596.475585938 314.096679688 582.819335938 302.203125 581.057617188 302.203125 c 0
 578.854492188 302.203125 571.806640625 290.749023438 565.638671875 277.092773438 c 0
 553.303710938 249.338867188 545.815429688 200.880859375 550.661132812 183.259765625 c 0
 555.947265625 165.638671875 570.043945312 142.731445312 579.294921875 137.4453125 c 0
 583.700195312 134.801757812 591.629882812 129.075195312 596.475585938 125.110351562 c 0
 606.608398438 115.859375 615.418945312 114.977539062 617.62109375 122.026367188 c 0
 620.264648438 129.956054688 647.13671875 122.026367188 652.422851562 112.334960938 c 0
 662.995117188 91.6298828125 640.087890625 72.2470703125 609.69140625 75.7705078125 c 0
 567.401367188 80.6171875 559.03125 84.140625 530.396484375 111.89453125 c 0
 501.76171875 138.766601562 486.34375 192.510742188 497.796875 225.55078125 c 0
 500.440429688 232.598632812 502.643554688 244.493164062 503.524414062 251.541992188 c 0
 506.166992188 273.568359375 531.27734375 328.193359375 540.528320312 331.717773438 c 0
 543.612304688 333.040039062 546.255859375 335.682617188 546.255859375 337.885742188 c 0
 546.255859375 341.850585938 566.51953125 365.638671875 600.440429688 400.440429688 c 0
 609.69140625 410.131835938 615.859375 419.3828125 614.096679688 420.705078125 c 0
 607.489257812 427.3125 502.643554688 421.5859375 479.735351562 413.215820312 c 0
 474.008789062 411.013671875 463.436523438 411.013671875 456.387695312 412.775390625 c 0
 449.338867188 414.977539062 440.528320312 414.977539062 436.563476562 412.775390625 c 0
 432.598632812 410.572265625 418.501953125 407.489257812 405.286132812 405.7265625 c 0
 392.0703125 403.96484375 377.533203125 400.880859375 373.568359375 398.678710938 c 0
 369.603515625 396.475585938 355.506835938 393.833007812 342.731445312 392.951171875 c 0
 329.515625 392.0703125 314.977539062 389.427734375 310.131835938 386.784179688 c 0
 286.34375 374.008789062 266.959960938 367.841796875 254.625976562 369.163085938 c 0
 242.731445312 370.043945312 239.647460938 373.127929688 236.123046875 385.022460938 c 0
 233.040039062 396.475585938 233.920898438 400.880859375 240.087890625 407.9296875 c 0
 244.493164062 412.775390625 250.661132812 416.740234375 253.744140625 416.740234375 c 0
 256.828125 416.740234375 262.5546875 419.82421875 266.079101562 423.788085938 c 0
 270.043945312 427.3125 279.294921875 432.158203125 286.784179688 434.361328125 c 0
 300.880859375 438.326171875 424.669921875 456.387695312 511.013671875 466.959960938 c 0
EndSplineSet
Validated: 33
EndChar

StartChar: uni3067
Encoding: 9287 12391 38
Width: 1000
VWidth: 0
HStem: 15.8594 57.2686<509.376 549.937> 399.56 84.5811<757.984 794.343>
VStem: 236.563 49.7803<326.757 371.871> 462.555 66.0801<52.1406 100.361> 645.815 53.3037<434.043 506.341> 751.102 48.8984<400.772 479.211>
LayerCount: 2
Fore
SplineSet
655.06640625 507.048828125 m 0
 663.436523438 515.859375 678.4140625 515.418945312 691.189453125 506.608398438 c 0
 699.119140625 500.880859375 700.880859375 496.475585938 699.119140625 485.462890625 c 0
 696.916015625 470.924804688 707.489257812 444.93359375 719.82421875 434.801757812 c 0
 731.717773438 424.669921875 728.634765625 407.9296875 713.65625 402.203125 c 0
 703.083984375 398.23828125 700.440429688 394.713867188 700.440429688 385.022460938 c 0
 700.440429688 375.330078125 697.356445312 371.365234375 688.986328125 367.841796875 c 0
 682.37890625 365.638671875 678.4140625 362.5546875 679.735351562 360.79296875 c 0
 683.700195312 357.268554688 674.44921875 340.96875 670.043945312 343.612304688 c 0
 663.436523438 348.017578125 634.801757812 337.004882812 613.65625 322.907226562 c 0
 539.20703125 272.6875 517.62109375 245.815429688 506.608398438 189.868164062 c 0
 503.524414062 175.330078125 499.559570312 161.233398438 497.796875 159.03125 c 0
 488.545898438 147.577148438 511.89453125 73.1279296875 524.229492188 73.1279296875 c 0
 526.872070312 73.1279296875 528.634765625 70.0439453125 528.634765625 66.51953125 c 0
 528.634765625 62.5546875 533.920898438 57.708984375 540.96875 55.5068359375 c 0
 547.577148438 52.86328125 556.387695312 48.8984375 560.352539062 46.6962890625 c 0
 570.043945312 41.41015625 606.608398438 40.96875 609.69140625 46.255859375 c 0
 613.65625 51.982421875 642.731445312 36.5634765625 643.171875 28.634765625 c 0
 643.171875 25.1103515625 638.326171875 17.62109375 633.040039062 12.3349609375 c 0
 618.942382812 -1.3212890625 571.365234375 -3.083984375 538.766601562 7.9296875 c 0
 525.991210938 12.3349609375 513.65625 15.859375 511.013671875 15.859375 c 0
 502.203125 15.859375 462.5546875 52.4228515625 462.5546875 61.2333984375 c 0
 462.5546875 64.3173828125 458.58984375 71.365234375 453.744140625 77.533203125 c 0
 442.731445312 91.6298828125 441.41015625 152.86328125 451.541992188 177.533203125 c 0
 455.06640625 185.903320312 458.149414062 196.03515625 458.149414062 199.559570312 c 0
 458.149414062 203.083984375 460.79296875 212.334960938 464.317382812 219.82421875 c 0
 467.401367188 227.752929688 473.568359375 243.171875 477.533203125 254.184570312 c 0
 490.30859375 290.30859375 559.912109375 367.841796875 593.833007812 384.140625 c 0
 609.69140625 392.0703125 611.89453125 398.23828125 600.440429688 401.76171875 c 0
 596.03515625 403.083984375 586.784179688 407.048828125 579.294921875 411.013671875 c 0
 569.603515625 415.859375 548.8984375 418.061523438 502.203125 419.3828125 c 0
 447.577148438 421.145507812 432.598632812 419.82421875 398.678710938 411.89453125 c 0
 354.625976562 400.880859375 340.087890625 395.154296875 317.180664062 378.854492188 c 0
 292.0703125 360.79296875 286.34375 354.184570312 286.34375 343.612304688 c 0
 286.34375 331.27734375 284.140625 329.956054688 260.79296875 325.991210938 c 0
 243.612304688 323.34765625 242.291015625 323.788085938 236.563476562 337.885742188 c 0
 230.836914062 350.661132812 230.836914062 354.184570312 236.123046875 361.673828125 c 0
 239.647460938 366.51953125 244.052734375 374.889648438 246.255859375 380.17578125 c 0
 256.828125 403.524414062 291.189453125 424.669921875 360.79296875 449.338867188 c 0
 408.810546875 466.51953125 485.462890625 474.889648438 533.040039062 467.841796875 c 0
 541.41015625 466.51953125 555.506835938 464.7578125 563.876953125 463.436523438 c 0
 585.022460938 460.79296875 639.20703125 438.326171875 653.303710938 426.431640625 c 0
 664.317382812 416.740234375 668.282226562 423.788085938 657.708984375 435.682617188 c 0
 652.86328125 440.96875 647.577148438 449.338867188 645.815429688 453.744140625 c 0
 641.41015625 465.638671875 647.577148438 499.559570312 655.06640625 507.048828125 c 0
767.401367188 484.140625 m 0
 770.484375 485.462890625 776.211914062 485.462890625 779.735351562 484.140625 c 0
 783.259765625 482.819335938 789.868164062 480.6171875 794.713867188 479.294921875 c 0
 801.76171875 477.533203125 802.203125 474.44921875 800 455.06640625 c 0
 797.796875 438.326171875 798.678710938 431.717773438 803.96484375 425.55078125 c 0
 812.775390625 415.859375 809.250976562 407.489257812 794.713867188 400.440429688 c 0
 786.784179688 396.475585938 780.6171875 396.475585938 774.889648438 399.559570312 c 0
 765.198242188 404.405273438 752.86328125 426.872070312 751.1015625 442.291015625 c 0
 749.779296875 455.506835938 759.471679688 481.057617188 767.401367188 484.140625 c 0
EndSplineSet
Validated: 33
EndChar

StartChar: uni3068
Encoding: 9288 12392 39
Width: 1000
VWidth: 0
HStem: 92.9512 39.6475<619.23 677.472> 315.419 53.7441<608.379 666.085>
LayerCount: 2
Fore
SplineSet
369.603515625 521.145507812 m 0
 373.568359375 524.229492188 378.4140625 526.872070312 380.17578125 526.872070312 c 0
 385.903320312 526.872070312 409.69140625 513.65625 409.69140625 510.131835938 c 0
 413.215820312 435.2421875 414.537109375 423.34765625 422.907226562 409.69140625 c 0
 427.752929688 401.76171875 431.717773438 393.833007812 431.27734375 391.629882812 c 0
 429.515625 384.581054688 440.96875 350.661132812 444.93359375 350.661132812 c 0
 447.577148438 350.661132812 449.338867188 348.458007812 449.338867188 346.255859375 c 0
 449.338867188 343.612304688 452.422851562 334.801757812 455.947265625 325.991210938 c 0
 459.471679688 317.62109375 462.114257812 309.69140625 462.114257812 308.370117188 c 0
 461.673828125 303.524414062 486.34375 280.17578125 491.629882812 280.17578125 c 0
 494.2734375 280.17578125 498.678710938 277.533203125 501.76171875 274.44921875 c 0
 505.286132812 269.603515625 514.096679688 275.770507812 542.731445312 303.083984375 c 0
 583.259765625 342.291015625 626.431640625 370.484375 642.731445312 369.163085938 c 0
 655.947265625 367.841796875 674.008789062 356.828125 674.008789062 349.779296875 c 0
 674.008789062 342.731445312 647.13671875 315.418945312 640.96875 315.418945312 c 0
 637.885742188 315.418945312 632.158203125 311.454101562 627.752929688 306.608398438 c 0
 623.34765625 301.76171875 617.180664062 297.796875 614.537109375 297.796875 c 0
 611.454101562 297.796875 607.9296875 294.713867188 606.166992188 291.189453125 c 0
 604.845703125 287.665039062 601.321289062 284.581054688 597.796875 284.581054688 c 0
 591.629882812 284.581054688 547.13671875 242.291015625 530.396484375 220.705078125 c 0
 517.180664062 203.524414062 493.391601562 155.06640625 493.391601562 145.374023438 c 0
 493.391601562 133.920898438 511.013671875 105.286132812 522.026367188 99.5595703125 c 0
 535.682617188 92.0703125 581.498046875 101.76171875 614.537109375 118.942382812 c 0
 631.27734375 127.752929688 647.577148438 132.598632812 658.58984375 132.598632812 c 0
 675.770507812 132.598632812 676.211914062 132.158203125 677.533203125 115.418945312 c 0
 678.854492188 97.796875 672.6875 88.986328125 661.673828125 92.951171875 c 0
 658.58984375 94.2734375 648.458007812 90.30859375 639.647460938 84.140625 c 0
 600.440429688 58.1494140625 526.431640625 48.8984375 493.391601562 65.638671875 c 0
 466.959960938 78.4140625 439.647460938 105.7265625 438.766601562 119.82421875 c 0
 437.885742188 126.872070312 436.123046875 135.682617188 434.361328125 139.647460938 c 0
 430.836914062 148.017578125 461.233398438 212.775390625 473.127929688 222.466796875 c 0
 484.140625 231.717773438 481.498046875 237.004882812 458.149414062 255.947265625 c 0
 446.255859375 265.638671875 436.563476562 275.330078125 436.123046875 277.092773438 c 0
 436.123046875 278.854492188 426.431640625 295.594726562 414.537109375 313.65625 c 0
 402.643554688 331.717773438 389.427734375 356.828125 385.022460938 369.603515625 c 0
 381.057617188 382.37890625 375.330078125 398.678710938 372.247070312 405.7265625 c 0
 369.163085938 413.215820312 363.436523438 431.717773438 359.471679688 447.577148438 c 0
 351.982421875 479.294921875 356.387695312 511.013671875 369.603515625 521.145507812 c 0
EndSplineSet
Validated: 33
EndChar

StartChar: uni3069
Encoding: 9289 12393 40
Width: 1000
VWidth: 0
HStem: 31.7178 43.1719<489.714 572.945>
VStem: 330.837 39.6475<442.987 499.359> 658.149 59.9121<367.331 423.633> 810.132 57.2695<320.146 370.732 382.279 411.306>
LayerCount: 2
Fore
SplineSet
330.836914062 498.678710938 m 0
 337.004882812 506.166992188 335.2421875 506.166992188 352.86328125 498.678710938 c 0
 367.841796875 492.510742188 368.282226562 491.629882812 370.484375 450.220703125 c 0
 370.924804688 438.326171875 375.330078125 417.62109375 379.735351562 404.405273438 c 0
 384.140625 391.189453125 387.665039062 374.44921875 387.665039062 367.841796875 c 0
 387.665039062 361.233398438 389.868164062 354.184570312 392.0703125 352.86328125 c 0
 394.713867188 351.541992188 396.475585938 345.815429688 396.475585938 340.528320312 c 0
 396.475585938 335.2421875 399.559570312 325.110351562 403.083984375 318.061523438 c 0
 406.608398438 311.454101562 409.69140625 302.203125 409.69140625 298.23828125 c 0
 409.69140625 294.2734375 412.775390625 285.462890625 416.740234375 277.973632812 c 0
 420.705078125 270.924804688 426.872070312 259.03125 430.396484375 252.422851562 c 0
 434.361328125 245.374023438 441.850585938 238.326171875 447.577148438 236.123046875 c 0
 453.303710938 233.920898438 458.149414062 229.075195312 458.149414062 225.110351562 c 0
 458.149414062 214.096679688 470.924804688 217.62109375 489.868164062 233.920898438 c 0
 500 242.291015625 514.977539062 251.541992188 523.788085938 254.184570312 c 0
 532.598632812 257.268554688 546.696289062 265.198242188 555.06640625 271.806640625 c 0
 563.436523438 278.854492188 572.6875 284.581054688 575.770507812 284.581054688 c 0
 578.854492188 284.581054688 583.259765625 288.10546875 585.462890625 292.510742188 c 0
 589.427734375 299.559570312 608.810546875 307.048828125 643.612304688 314.096679688 c 0
 659.912109375 317.180664062 674.008789062 308.810546875 674.008789062 295.594726562 c 0
 674.008789062 289.427734375 672.247070312 284.581054688 670.043945312 284.581054688 c 0
 667.841796875 284.581054688 664.7578125 280.6171875 662.995117188 276.211914062 c 0
 660.352539062 266.959960938 646.696289062 258.58984375 594.713867188 233.040039062 c 0
 576.65234375 224.229492188 555.947265625 212.334960938 549.338867188 206.608398438 c 0
 542.291015625 200.880859375 534.361328125 196.475585938 531.717773438 196.475585938 c 0
 522.466796875 196.475585938 485.022460938 157.708984375 481.938476562 145.815429688 c 0
 476.211914062 122.907226562 482.819335938 98.23828125 498.678710938 85.0224609375 c 0
 511.454101562 74.0087890625 515.859375 72.6875 532.598632812 74.8896484375 c 0
 543.612304688 76.65234375 553.303710938 79.294921875 554.625976562 81.0576171875 c 0
 556.387695312 83.259765625 569.163085938 93.3916015625 583.700195312 103.96484375 c 0
 598.23828125 114.096679688 613.215820312 126.872070312 617.180664062 131.717773438 c 0
 622.466796875 137.885742188 625.110351562 138.766601562 627.752929688 135.2421875 c 0
 629.515625 132.158203125 636.123046875 127.752929688 642.291015625 125.55078125 c 2
 653.744140625 121.145507812 l 1
 637.885742188 104.845703125 l 2
 629.075195312 96.03515625 618.061523438 84.5810546875 613.215820312 79.7353515625 c 0
 579.735351562 44.4931640625 552.422851562 31.27734375 515.418945312 31.7177734375 c 0
 475.770507812 32.158203125 449.338867188 47.5771484375 435.682617188 76.65234375 c 0
 430.396484375 88.10546875 424.229492188 100.880859375 422.026367188 105.286132812 c 0
 416.740234375 116.299804688 422.466796875 151.1015625 432.158203125 169.163085938 c 0
 442.731445312 187.665039062 442.731445312 190.749023438 430.836914062 194.713867188 c 0
 410.572265625 200.880859375 381.498046875 239.647460938 357.268554688 293.391601562 c 0
 351.1015625 307.048828125 325.991210938 404.845703125 323.34765625 424.669921875 c 0
 322.466796875 433.040039062 320.705078125 440.96875 319.82421875 442.731445312 c 0
 316.740234375 447.577148438 325.55078125 492.0703125 330.836914062 498.678710938 c 0
687.665039062 425.991210938 m 0
 695.594726562 427.752929688 703.083984375 429.075195312 703.524414062 429.515625 c 0
 703.96484375 429.515625 707.489257812 426.872070312 711.013671875 422.907226562 c 0
 714.977539062 419.3828125 718.061523438 409.69140625 718.061523438 401.76171875 c 0
 718.061523438 391.189453125 722.466796875 383.700195312 734.801757812 371.365234375 c 0
 745.374023438 361.233398438 754.184570312 355.947265625 758.58984375 357.268554688 c 0
 770.484375 362.114257812 786.34375 352.422851562 787.665039062 340.087890625 c 0
 789.427734375 316.299804688 748.458007812 308.370117188 719.3828125 326.872070312 c 0
 714.096679688 330.396484375 706.608398438 333.040039062 703.524414062 333.040039062 c 0
 695.154296875 333.040039062 661.233398438 370.924804688 658.149414062 383.700195312 c 0
 653.744140625 400.880859375 669.163085938 422.907226562 687.665039062 425.991210938 c 0
814.537109375 396.475585938 m 0
 822.026367188 408.370117188 827.3125 412.334960938 836.123046875 412.334960938 c 0
 856.828125 411.89453125 863.876953125 403.083984375 860.79296875 380.17578125 c 0
 858.58984375 364.317382812 859.912109375 355.947265625 867.401367188 341.850585938 c 0
 882.819335938 312.334960938 878.854492188 303.96484375 852.422851562 309.250976562 c 0
 833.48046875 312.775390625 817.62109375 331.27734375 810.131835938 359.912109375 c 0
 805.286132812 378.4140625 805.286132812 381.498046875 814.537109375 396.475585938 c 0
EndSplineSet
Validated: 33
EndChar

